<?xml version="1.0" encoding="iso-8859-1"?>
<!-- Generator: Adobe Illustrator 16.2.0, SVG Export Plug-In . SVG Version: 6.00 Build 0)  -->
<!DOCTYPE svg PUBLIC "-//W3C//DTD SVG 1.1//EN" "http://www.w3.org/Graphics/SVG/1.1/DTD/svg11.dtd">
<svg version="1.1" id="Layer_1" xmlns="http://www.w3.org/2000/svg" xmlns:xlink="http://www.w3.org/1999/xlink" x="0px" y="0px"
	 width="109.048px" height="109.601px" viewBox="92.237 97.493 109.048 109.601"
	 enable-background="new 92.237 97.493 109.048 109.601" xml:space="preserve">
<g>
	<path fill="#6FC497" d="M296.145,145.754c-4.576,0-6.617,2.514-7.764,4.282v0.08h-0.052c0.014-0.021,0.036-0.056,0.052-0.08v-3.671
		h-8.606c0.112,2.428,0,25.901,0,25.901h8.606v-14.469c0-0.772,0.059-1.547,0.289-2.101c0.623-1.547,2.037-3.149,4.416-3.149
		c3.115,0,4.359,2.38,4.359,5.86v13.858h8.612v-14.852C306.059,149.453,301.812,145.754,296.145,145.754"/>
	<rect x="266.396" y="146.364" fill="#6FC497" width="8.615" height="25.902"/>
	<path fill="#6FC497" d="M270.76,133.877c-2.946,0-4.871,1.932-4.871,4.468c0,2.492,1.868,4.479,4.757,4.479h0.056
		c3.001,0,4.873-1.987,4.873-4.479C275.516,135.809,273.704,133.877,270.76,133.877"/>
	<path fill="#6FC497" d="M285.473,97.153c-30.301,0-54.865,24.562-54.865,54.866s24.563,54.863,54.865,54.863
		c30.304,0,54.868-24.56,54.868-54.863S315.776,97.153,285.473,97.153 M314.734,177.503c0,2.268-1.884,4.113-4.211,4.113h-48.583
		c-2.329,0-4.214-1.846-4.214-4.113v-49.152c0-2.269,1.885-4.11,4.214-4.11h48.583c2.327,0,4.211,1.842,4.211,4.11V177.503z"/>
</g>
<g>
	<path fill="#6FC497" d="M146.763,97.493c-30.114,0-54.526,24.412-54.526,54.52c0,30.118,24.412,54.53,54.526,54.53
		c30.113,0,54.522-24.412,54.522-54.53C201.286,121.906,176.876,97.493,146.763,97.493 M162.583,129.814h-7.659
		c-1.512,0-3.042,1.584-3.042,2.759v7.87h10.684c-0.433,6.033-1.312,11.552-1.312,11.552h-9.427v34.196h-14.045v-34.196h-6.837
		v-11.512h6.837v-9.409c0-1.722-0.345-13.24,14.39-13.24h10.411V129.814z"/>
</g>
<path fill="#6FC497" d="M432.048,96.941c-30.416,0-55.075,24.658-55.075,55.079c0,30.416,24.659,55.074,55.075,55.074
	c30.424,0,55.078-24.658,55.078-55.074C487.126,121.599,462.472,96.941,432.048,96.941z M463.509,136.248
	c-0.256,0.429-1.585,1.929-3.001,3.301c-2.401,2.359-2.527,2.616-2.527,4.588c0,3.045-1.46,9.394-2.916,12.865
	c-2.701,6.519-8.491,13.25-14.28,16.637c-8.148,4.759-18.996,5.961-28.13,3.174c-3.045-0.942-8.277-3.345-8.277-3.773
	c0-0.128,1.588-0.302,3.518-0.342c4.03-0.089,8.061-1.203,11.491-3.174l2.315-1.374l-2.658-0.899
	c-3.773-1.286-7.16-4.245-8.019-7.033c-0.258-0.9-0.174-0.943,2.229-0.943l2.486-0.042l-2.103-0.985
	c-2.485-1.244-4.758-3.346-5.874-5.489c-0.814-1.542-1.845-5.446-1.544-5.747c0.086-0.128,0.987,0.129,2.017,0.473
	c2.959,1.073,3.347,0.814,1.629-0.986c-3.215-3.26-4.201-8.104-2.657-12.692l0.729-2.059l2.831,2.788
	c5.789,5.614,12.606,8.961,20.41,9.947l2.146,0.26l-0.128-2.104c-0.387-5.446,3-10.421,8.359-12.35
	c1.974-0.687,5.318-0.772,7.504-0.173c0.86,0.257,2.488,1.113,3.646,1.888l2.102,1.416l2.317-0.731
	c1.283-0.385,2.999-1.026,3.771-1.459c0.728-0.384,1.371-0.598,1.371-0.47c0,0.729-1.586,3.217-2.916,4.588
	c-1.802,1.928-1.287,2.103,2.357,0.815C463.895,135.433,463.938,135.433,463.509,136.248z"/>
</svg>
