<?xml version="1.0" encoding="iso-8859-1"?>
<!-- Generator: Adobe Illustrator 15.1.0, SVG Export Plug-In . SVG Version: 6.00 Build 0)  -->
<!DOCTYPE svg PUBLIC "-//W3C//DTD SVG 1.1//EN" "http://www.w3.org/Graphics/SVG/1.1/DTD/svg11.dtd">
<svg version="1.1" id="Layer_1" xmlns="http://www.w3.org/2000/svg" xmlns:xlink="http://www.w3.org/1999/xlink" x="0px" y="0px"
	 width="109.047px" height="109.602px" viewBox="0 0 109.047 109.602" style="enable-background:new 0 0 109.047 109.602;"
	 xml:space="preserve">
<g>
	<path style="fill:#6FC497;" d="M54.525,0C24.411,0-0.001,24.412-0.001,54.52c0,30.117,24.412,54.529,54.526,54.529
		c30.112,0,54.522-24.412,54.522-54.529C109.047,24.413,84.637,0,54.525,0 M70.344,32.321h-7.658c-1.512,0-3.043,1.584-3.043,2.759
		v7.87h10.685c-0.433,6.033-1.312,11.552-1.312,11.552h-9.428v34.196H45.543V54.502h-6.837V42.99h6.837v-9.409
		c0-1.722-0.345-13.24,14.391-13.24h10.41V32.321z"/>
</g>
<path style="fill:#FFFFFF;" d="M70.344,32.321h-7.658c-1.512,0-3.043,1.584-3.043,2.759v7.87h10.685
	c-0.433,6.033-1.312,11.552-1.312,11.552h-9.428v34.196H45.543V54.502h-6.837V42.99h6.837v-9.409c0-1.722-0.345-13.24,14.391-13.24
	h10.41V32.321z"/>
</svg>
