<?xml version="1.0" encoding="iso-8859-1"?>
<!-- Generator: Adobe Illustrator 15.1.0, SVG Export Plug-In . SVG Version: 6.00 Build 0)  -->
<!DOCTYPE svg PUBLIC "-//W3C//DTD SVG 1.1//EN" "http://www.w3.org/Graphics/SVG/1.1/DTD/svg11.dtd">
<svg version="1.1" id="Layer_1" xmlns="http://www.w3.org/2000/svg" xmlns:xlink="http://www.w3.org/1999/xlink" x="0px" y="0px"
	 width="109.732px" height="109.941px" viewBox="0 0 109.732 109.941" style="enable-background:new 0 0 109.732 109.941;"
	 xml:space="preserve">
<path style="fill:#FFFFFF;" d="M83.628,80.349c0,2.27-1.885,4.113-4.211,4.113H30.833c-2.329,0-4.214-1.846-4.214-4.113V31.198
	c0-2.27,1.885-4.11,4.214-4.11h48.584c2.326,0,4.211,1.842,4.211,4.11V80.349z"/>
<g>
	<path style="fill:#6FC497;" d="M65.038,48.6c-4.576,0-6.617,2.515-7.764,4.282v0.08h-0.052c0.014-0.021,0.036-0.056,0.052-0.08
		v-3.671h-8.606c0.112,2.428,0,25.901,0,25.901h8.606v-14.47c0-0.771,0.059-1.547,0.289-2.101c0.623-1.547,2.037-3.149,4.416-3.149
		c3.115,0,4.358,2.38,4.358,5.86v13.858h8.612V60.26C74.952,52.3,70.705,48.6,65.038,48.6"/>
	<rect x="35.289" y="49.211" style="fill:#6FC497;" width="8.615" height="25.902"/>
	<path style="fill:#6FC497;" d="M39.654,36.723c-2.946,0-4.871,1.933-4.871,4.468c0,2.492,1.868,4.479,4.757,4.479h0.057
		c3.001,0,4.873-1.987,4.873-4.479C44.409,38.656,42.598,36.723,39.654,36.723"/>
	<path style="fill:#6FC497;" d="M54.366,0C24.066,0-0.499,24.561-0.499,54.866c0,30.304,24.563,54.862,54.865,54.862
		c30.305,0,54.868-24.56,54.868-54.862C109.235,24.562,84.67,0,54.366,0 M83.628,80.349c0,2.269-1.885,4.113-4.211,4.113H30.833
		c-2.329,0-4.214-1.846-4.214-4.113V31.198c0-2.27,1.885-4.11,4.214-4.11h48.584c2.326,0,4.211,1.842,4.211,4.11V80.349z"/>
</g>
</svg>
