<?xml version="1.0" encoding="iso-8859-1"?>
<!-- Generator: Adobe Illustrator 15.1.0, SVG Export Plug-In . SVG Version: 6.00 Build 0)  -->
<!DOCTYPE svg PUBLIC "-//W3C//DTD SVG 1.1//EN" "http://www.w3.org/Graphics/SVG/1.1/DTD/svg11.dtd">
<svg version="1.1" id="Layer_1" xmlns="http://www.w3.org/2000/svg" xmlns:xlink="http://www.w3.org/1999/xlink" x="0px" y="0px"
	 width="347.496px" height="88.865px" viewBox="0 0 347.496 88.865" style="enable-background:new 0 0 347.496 88.865;"
	 xml:space="preserve">
<path style="fill:#C7C8CA;" d="M70.684,2.046c-8.457,0-16.023,3.731-21.205,9.615C44.297,5.777,36.73,2.046,28.273,2.046
	C12.656,2.046,0,14.705,0,30.319v56.549h14.137V30.319c0-7.809,6.328-14.137,14.137-14.137c7.803,0,14.137,6.328,14.137,14.137
	v56.549h14.137V30.319c0-7.809,6.328-14.137,14.137-14.137c7.803,0,14.137,6.328,14.137,14.137v56.549h14.137V30.319
	C98.957,14.705,86.295,2.046,70.684,2.046z"/>
<path style="fill:#FFFFFF;" d="M188.02,58.595c0,7.809-6.328,14.137-14.137,14.137s-14.137-6.328-14.137-14.137V2.046h-14.137
	v56.549c0,7.159,2.682,13.678,7.068,18.659c5.181,5.882,12.748,9.614,21.205,9.614c15.616,0,28.273-12.657,28.273-28.273V2.046
	H188.02V58.595z"/>
<path style="fill:#C7C8CA;" d="M131.473,72.731c-7.809,0-14.137-6.328-14.137-14.137V2.046h-14.137v56.549
	c0,15.616,12.656,28.273,28.273,28.273c6.426,0,12.332-2.169,17.08-5.779c-3.182-3.578-5.643-7.809-7.091-12.492
	C138.904,71.15,135.373,72.731,131.473,72.731z"/>
<polygon style="fill:#FFFFFF;" points="244.566,2.046 230.43,30.319 216.293,2.046 202.156,2.046 223.361,44.456 202.156,86.868 
	216.293,86.868 230.43,58.595 244.566,86.868 258.703,86.868 237.498,44.456 258.703,2.046 "/>
<path style="fill:#C7C8CA;" d="M341.974,46.417c-2.607-3.182-5.943-5.598-10.008-7.247c7.247-4.256,10.871-10.027,10.871-17.313
	c0-3.719-1.045-7.285-3.135-10.698c-2.091-3.413-5.043-6.126-8.857-8.139C327.028,1.007,322.916,0,318.507,0
	c-6.06,0-11.312,1.879-15.76,5.637c-4.449,3.759-7.459,9.126-9.03,16.105h8.627c1.841-4.908,4.084-8.388,6.73-10.439
	c2.646-2.051,5.789-3.077,9.433-3.077c4.486,0,8.196,1.343,11.13,4.026c2.934,2.685,4.399,5.867,4.399,9.548
	c0,2.493-0.719,4.794-2.156,6.902c-1.438,2.109-3.749,3.845-6.932,5.205c-3.183,1.362-6.71,2.042-10.583,2.042v7.765
	c6.558,0.345,11.397,1.247,14.523,2.703c3.125,1.458,5.617,3.624,7.478,6.5c1.859,2.875,2.789,5.963,2.789,9.26
	c0,4.947-1.86,9.261-5.579,12.941c-3.72,3.682-8.647,5.522-14.782,5.522c-5.406,0-9.854-1.554-13.344-4.659
	c-2.724-2.453-4.812-6.422-6.27-11.906h-8.282c1.495,8.13,4.678,14.293,9.548,18.492c4.869,4.199,10.947,6.298,18.233,6.298
	c5.406,0,10.295-1.188,14.667-3.565c4.371-2.377,7.822-5.742,10.353-10.095c2.531-4.352,3.797-8.925,3.797-13.718
	C347.496,55.927,345.655,50.903,341.974,46.417z"/>
<polygon style="fill:#C7C8CA;" points="260.949,10.411 273.136,10.411 273.136,86.737 281.533,86.737 281.533,2.128 265.091,2.128 
	"/>
</svg>
