<?xml version="1.0" encoding="iso-8859-1"?>
<!-- Generator: Adobe Illustrator 15.1.0, SVG Export Plug-In . SVG Version: 6.00 Build 0)  -->
<!DOCTYPE svg PUBLIC "-//W3C//DTD SVG 1.1//EN" "http://www.w3.org/Graphics/SVG/1.1/DTD/svg11.dtd">
<svg version="1.1" xmlns="http://www.w3.org/2000/svg" xmlns:xlink="http://www.w3.org/1999/xlink" x="0px" y="0px"
	 width="237.338px" height="60.696px" viewBox="0 0 237.338 60.696" style="enable-background:new 0 0 237.338 60.696;"
	 xml:space="preserve">
<g id="Layer_1">
	<path style="fill:#F0C833;" d="M48.276,1.397c-5.775,0-10.943,2.549-14.483,6.567c-3.538-4.018-8.707-6.567-14.482-6.567
		C8.645,1.397,0,10.044,0,20.708v38.624h9.655V20.708c0-5.334,4.321-9.655,9.656-9.655c5.329,0,9.654,4.321,9.654,9.655v38.624
		h9.657V20.708c0-5.334,4.321-9.655,9.654-9.655c5.331,0,9.656,4.321,9.656,9.655v38.624h9.656V20.708
		C67.588,10.044,58.939,1.397,48.276,1.397"/>
	<path style="fill:#FFFFFF;" d="M128.418,40.02c0,5.334-4.323,9.656-9.655,9.656c-5.334,0-9.656-4.322-9.656-9.656V1.397h-9.655
		V40.02c0,4.891,1.83,9.343,4.827,12.745c3.536,4.018,8.706,6.567,14.484,6.567c10.665,0,19.309-8.646,19.309-19.312V1.397h-9.653
		V40.02z"/>
	<path style="fill:#F0C833;" d="M89.796,49.676c-5.333,0-9.655-4.322-9.655-9.656V1.398h-9.657V40.02
		c0,10.667,8.645,19.312,19.312,19.312c4.388,0,8.421-1.482,11.666-3.948c-2.174-2.443-3.856-5.333-4.845-8.531
		C94.871,48.596,92.46,49.676,89.796,49.676"/>
	<polygon style="fill:#FFFFFF;" points="167.037,1.397 157.382,20.708 147.729,1.397 138.071,1.397 152.556,30.366 138.071,59.332 
		147.729,59.332 157.382,40.02 167.037,59.332 176.692,59.332 162.211,30.366 176.692,1.397 	"/>
	<path style="fill:#F0C833;" d="M217.537,0c-4.136,0-7.725,1.285-10.764,3.851c-3.038,2.567-5.093,6.233-6.165,11h5.893
		c1.257-3.352,2.79-5.729,4.595-7.132c1.808-1.399,3.955-2.1,6.441-2.1c3.066,0,5.601,0.917,7.604,2.749
		c2.002,1.832,3.005,4.007,3.005,6.523c0,1.701-0.492,3.273-1.472,4.713c-0.983,1.441-2.562,2.625-4.735,3.555
		c-2.175,0.931-4.584,1.394-7.229,1.394v5.303c4.48,0.238,7.786,0.853,9.92,1.849c2.133,0.993,3.837,2.475,5.106,4.438
		c1.271,1.964,1.905,4.072,1.905,6.323c0,3.38-1.271,6.325-3.812,8.839c-2.539,2.516-5.904,3.773-10.096,3.773
		c-3.692,0-6.731-1.062-9.115-3.184c-1.858-1.675-3.284-4.386-4.281-8.132h-5.656c1.02,5.553,3.194,9.763,6.522,12.63
		c3.325,2.868,7.476,4.303,12.453,4.303c3.691,0,7.03-0.812,10.018-2.438c2.984-1.622,5.344-3.921,7.069-6.894
		c1.729-2.971,2.594-6.097,2.594-9.368c0-3.799-1.256-7.229-3.771-10.292c-1.784-2.175-4.062-3.824-6.836-4.951
		c4.95-2.908,7.424-6.849,7.424-11.824c0-2.541-0.714-4.978-2.14-7.308c-1.429-2.331-3.444-4.184-6.051-5.559
		C223.36,0.688,220.55,0,217.537,0"/>
	<polygon style="fill:#F0C833;" points="192.286,1.455 181.058,1.455 178.228,7.109 186.551,7.109 186.551,59.242 192.286,59.242 	
		"/>
</g>
<g id="Circles">
</g>
</svg>
