<?xml version="1.0" encoding="iso-8859-1"?>
<!-- Generator: Adobe Illustrator 16.2.0, SVG Export Plug-In . SVG Version: 6.00 Build 0)  -->
<!DOCTYPE svg PUBLIC "-//W3C//DTD SVG 1.1//EN" "http://www.w3.org/Graphics/SVG/1.1/DTD/svg11.dtd">
<svg version="1.1" id="Layer_1" xmlns="http://www.w3.org/2000/svg" xmlns:xlink="http://www.w3.org/1999/xlink" x="0px" y="0px"
	 width="258.703px" height="84.821px" viewBox="0 0 258.703 84.821" enable-background="new 0 0 258.703 84.821"
	 xml:space="preserve">
<path fill="#FFFFFF" d="M70.684,0C62.227,0,54.66,3.731,49.479,9.615C44.297,3.731,36.731,0,28.273,0C12.657,0,0,12.659,0,28.273
	v56.548h14.137V28.273c0-7.809,6.329-14.137,14.137-14.137c7.803,0,14.137,6.328,14.137,14.137v56.548h14.137V28.273
	c0-7.809,6.328-14.137,14.137-14.137c7.803,0,14.137,6.328,14.137,14.137v56.548h14.137V28.273C98.958,12.659,86.295,0,70.684,0z"/>
<g>
	<path fill="#FFFFFF" d="M188.02,0v56.548c0,7.809-6.328,14.137-14.137,14.137s-14.137-6.328-14.137-14.137V0h-14.137v56.548
		c0,7.16,2.682,13.679,7.068,18.66c5.181,5.883,12.748,9.613,21.205,9.613c15.616,0,28.273-12.656,28.273-28.273V0H188.02z"/>
	<path fill="#FFFFFF" d="M131.473,70.685c-7.809,0-14.137-6.328-14.137-14.137V0h-14.137v56.548
		c0,15.617,12.657,28.273,28.274,28.273c6.426,0,12.332-2.168,17.08-5.778c-3.182-3.578-5.643-7.809-7.091-12.493
		C138.904,69.104,135.373,70.685,131.473,70.685z"/>
</g>
<g>
	<polygon fill="#FFFFFF" points="258.703,0 244.566,0 230.43,28.273 216.293,0 202.156,0 223.361,42.41 202.156,84.821 
		216.293,84.821 230.43,56.548 244.566,84.821 258.703,84.821 237.498,42.41 	"/>
</g>
</svg>
