<?xml version="1.0" encoding="utf-8"?>
<!-- Generator: Adobe Illustrator 15.1.0, SVG Export Plug-In . SVG Version: 6.00 Build 0)  -->
<!DOCTYPE svg PUBLIC "-//W3C//DTD SVG 1.1//EN" "http://www.w3.org/Graphics/SVG/1.1/DTD/svg11.dtd" [
	<!ENTITY ns_extend "http://ns.adobe.com/Extensibility/1.0/">
	<!ENTITY ns_ai "http://ns.adobe.com/AdobeIllustrator/10.0/">
	<!ENTITY ns_graphs "http://ns.adobe.com/Graphs/1.0/">
	<!ENTITY ns_vars "http://ns.adobe.com/Variables/1.0/">
	<!ENTITY ns_imrep "http://ns.adobe.com/ImageReplacement/1.0/">
	<!ENTITY ns_sfw "http://ns.adobe.com/SaveForWeb/1.0/">
	<!ENTITY ns_custom "http://ns.adobe.com/GenericCustomNamespace/1.0/">
	<!ENTITY ns_adobe_xpath "http://ns.adobe.com/XPath/1.0/">
]>
<svg version="1.1" id="Layer_1" xmlns:x="&ns_extend;" xmlns:i="&ns_ai;" xmlns:graph="&ns_graphs;"
	 xmlns="http://www.w3.org/2000/svg" xmlns:xlink="http://www.w3.org/1999/xlink" x="0px" y="0px" width="1948px" height="1001px"
	 viewBox="0 0 1948 1001" style="enable-background:new 0 0 1948 1001;" xml:space="preserve">
<metadata>
	<sfw  xmlns="&ns_sfw;">
		<slices></slices>
		<sliceSourceBounds  height="1001" width="1948" x="-578.5" y="-194" bottomLeftOrigin="true"></sliceSourceBounds>
	</sfw>
</metadata>
<g id="_x33_">
</g>
<g id="_x32_">
</g>
<g id="Copy">
</g>
<g>
	<path style="fill:none;" d="M1007.444,39.351c-4.403,2.752-8.847,5.458-13.334,8.119
		C998.598,44.81,1003.041,42.103,1007.444,39.351z"/>
	<path style="fill:none;" d="M994.11,47.47c-4.487,2.661-9.018,5.274-13.596,7.84C985.093,52.744,989.623,50.13,994.11,47.47z"/>
	<path style="fill:none;" d="M1096.38,75.719C896.899,210.284,685.164,269.671,0,125.852v0.001
		C685.164,269.671,896.899,210.285,1096.38,75.719z"/>
	<path style="fill:none;" d="M980.515,55.31C801.974,155.383,551.311,182.581,0,50.64v0.001
		C551.311,182.581,801.974,155.383,980.515,55.31z"/>
	<path style="fill:none;" d="M1469.311,36.822c-4.885,2.095-9.715,4.185-14.493,6.27
		C1459.596,41.007,1464.426,38.917,1469.311,36.822z"/>
	<path style="fill:none;" d="M1506.981,21.011c-5.164,2.121-10.271,4.236-15.32,6.347
		C1496.711,25.247,1501.817,23.131,1506.981,21.011z"/>
	<path style="fill:none;" d="M1151.5,36.758c-3.702,2.711-7.394,5.401-11.078,8.069C1144.106,42.16,1147.798,39.47,1151.5,36.758z"
		/>
	<path style="fill:none;" d="M1162.639,28.561c-2.483,1.836-4.961,3.662-7.434,5.479
		C1157.678,32.223,1160.155,30.396,1162.639,28.561z"/>
	<path style="fill:none;" d="M1140.422,44.827c-7.368,5.335-14.707,10.582-22.04,15.732
		C1125.715,55.409,1133.054,50.163,1140.422,44.827z"/>
	<path style="fill:none;" d="M1103.719,70.731c-2.445,1.674-4.891,3.336-7.339,4.987
		C1098.828,74.067,1101.273,72.405,1103.719,70.731z"/>
	<path style="fill:none;" d="M1177.616,17.438c-3.766,2.807-7.514,5.595-11.248,8.362
		C1170.103,23.033,1173.851,20.245,1177.616,17.438z"/>
	<path style="fill:none;" d="M1017.287,33.084c-2.173,1.409-4.355,2.808-6.547,4.195
		C1012.932,35.892,1015.114,34.493,1017.287,33.084z"/>
	<path style="fill:none;" d="M1297.271,118.142c-9.259,4.763-18.31,9.472-27.174,14.123
		C1278.961,127.614,1288.012,122.905,1297.271,118.142z"/>
	<path style="fill:none;" d="M1214.025,162.067c-11.43,6.125-22.6,12.117-33.574,17.968
		C1191.426,174.184,1202.596,168.191,1214.025,162.067z"/>
	<path style="fill:none;" d="M1244.034,146.036c-10.222,5.436-20.211,10.781-30.009,16.031
		C1223.823,156.817,1233.812,151.472,1244.034,146.036z"/>
	<path style="fill:none;" d="M1254.335,140.571c-3.461,1.832-6.894,3.653-10.301,5.465
		C1247.441,144.224,1250.874,142.402,1254.335,140.571z"/>
	<path style="fill:none;" d="M1188.965,8.958c-3.802,2.846-7.584,5.672-11.349,8.479
		C1181.381,14.631,1185.163,11.804,1188.965,8.958z"/>
	<path style="fill:none;" d="M1052.39,8.865c-2.087,1.525-4.18,3.039-6.28,4.543C1048.21,11.904,1050.303,10.39,1052.39,8.865z"/>
	<path style="fill:none;" d="M1061.736,1.938c-2.068,1.554-4.142,3.098-6.222,4.633C1057.595,5.037,1059.668,3.492,1061.736,1.938z"
		/>
	<path style="fill:none;" d="M1314.168,109.51c-3.807,1.931-7.579,3.854-11.316,5.768
		C1306.589,113.363,1310.361,111.44,1314.168,109.51z"/>
	<path style="fill:none;" d="M1036.61,20.109c-3.184,2.21-6.384,4.397-9.604,6.56C1030.227,24.506,1033.427,22.32,1036.61,20.109z"
		/>
	<path style="fill:none;" d="M1046.109,13.409c-2.1,1.504-4.207,2.999-6.321,4.483C1041.902,16.407,1044.01,14.913,1046.109,13.409z
		"/>
	<path style="fill:none;" d="M1325.699,103.692c-3.88,1.948-7.724,3.887-11.531,5.818
		C1317.976,107.579,1321.819,105.64,1325.699,103.692z"/>
	<path style="fill:none;" d="M1337.454,97.826c-3.956,1.963-7.874,3.918-11.755,5.866
		C1329.58,101.745,1333.498,99.789,1337.454,97.826z"/>
	<path style="fill:none;" d="M1361.672,85.954c-4.118,1.994-8.194,3.98-12.229,5.958
		C1353.478,89.934,1357.554,87.948,1361.672,85.954z"/>
	<path style="fill:none;" d="M1349.442,91.913c-4.036,1.979-8.031,3.95-11.988,5.914
		C1341.411,95.863,1345.406,93.892,1349.442,91.913z"/>
	<path style="fill:none;" d="M1118.382,60.56c-3.666,2.575-7.331,5.126-10.997,7.653
		C1111.051,65.686,1114.716,63.135,1118.382,60.56z"/>
	<path style="fill:none;" d="M1165.732,687.648C908.3,693.07,798.826,653.064,0,613.125v0.001
		C798.826,653.065,908.3,693.07,1165.732,687.648z"/>
	<path style="fill:none;" d="M1383.75,675.619c4.645-0.365,9.343-0.739,14.096-1.122
		C1393.093,674.88,1388.395,675.254,1383.75,675.619z"/>
	<path style="fill:none;" d="M1180.451,180.035C934.306,311.263,786.401,371.042,0,238.533v0.001
		C786.401,371.043,934.306,311.263,1180.451,180.035z"/>
	<path style="fill:none;" d="M0,874.598L0,874.598C768.994,860.125,891.334,936.892,1118.401,1001l0,0
		C891.334,936.892,768.995,860.125,0,874.598z"/>
	<path style="fill:none;" d="M803.293,561.696c337.8,13.163,379.468-35.161,1144.707-150.458v-0.001
		C1182.761,526.535,1141.093,574.859,803.293,561.696z"/>
	<path style="fill:none;" d="M773.237,560.4c6.169,0.29,12.241,0.562,18.22,0.814C785.479,560.962,779.407,560.69,773.237,560.4z"/>
	<path style="fill:none;" d="M1200.218,686.68c3.378-0.117,6.783-0.242,10.22-0.374
		C1207.001,686.438,1203.596,686.562,1200.218,686.68z"/>
	<path style="fill:none;" d="M1165.732,687.648c9.594-0.202,19.393-0.467,29.44-0.798
		C1185.125,687.182,1175.326,687.446,1165.732,687.648z"/>
	<path style="fill:none;" d="M760.767,559.797c4.202,0.209,8.358,0.411,12.471,0.604
		C769.125,560.208,764.968,560.006,760.767,559.797z"/>
	<path style="fill:none;" d="M1369.973,676.688c4.54-0.348,9.132-0.704,13.777-1.069
		C1379.104,675.984,1374.513,676.341,1369.973,676.688z"/>
	<path style="fill:none;" d="M1210.438,686.306c3.436-0.133,6.901-0.272,10.399-0.419
		C1217.339,686.033,1213.873,686.173,1210.438,686.306z"/>
	<path style="fill:none;" d="M1317.874,680.458c6.228-0.421,12.558-0.86,18.994-1.319
		C1330.432,679.598,1324.102,680.037,1317.874,680.458z"/>
	<path style="fill:none;" d="M1253.213,684.357c5.554-0.289,11.188-0.596,16.911-0.92
		C1264.401,683.762,1258.767,684.068,1253.213,684.357z"/>
	<path style="fill:none;" d="M1300.944,408.667c3.913-1.027,7.864-2.062,11.856-3.107
		C1308.809,406.604,1304.857,407.64,1300.944,408.667z"/>
	<path style="fill:none;" d="M1220.837,685.887c8.744-0.368,17.686-0.782,26.851-1.245
		C1238.522,685.104,1229.581,685.519,1220.837,685.887z"/>
	<path style="fill:none;" d="M1349.868,395.921c4.25-1.097,8.545-2.203,12.887-3.317
		C1358.413,393.718,1354.118,394.824,1349.868,395.921z"/>
	<path style="fill:none;" d="M1266.744,417.667c5.539-1.459,11.154-2.94,16.853-4.44
		C1277.898,414.728,1272.283,416.208,1266.744,417.667z"/>
	<path style="fill:none;" d="M1362.755,392.604c4.343-1.114,8.731-2.237,13.168-3.369
		C1371.486,390.367,1367.098,391.49,1362.755,392.604z"/>
	<path style="fill:none;" d="M1234.401,426.181c3.5-0.918,7.029-1.846,10.591-2.783
		C1241.431,424.334,1237.901,425.262,1234.401,426.181z"/>
	<path style="fill:none;" d="M1183.937,439.263c11.347-2.889,22.961-5.893,34.911-9.011
		C1206.897,433.37,1195.283,436.375,1183.937,439.263z"/>
	<path style="fill:none;" d="M1223.989,428.909c3.442-0.9,6.912-1.809,10.412-2.728
		C1230.901,427.1,1227.432,428.009,1223.989,428.909z"/>
	<path style="fill:none;" d="M1403.14,382.344c4.637-1.166,9.325-2.339,14.067-3.522
		C1412.465,380.004,1407.776,381.179,1403.14,382.344z"/>
	<path style="fill:none;" d="M587.309,548.729c5.51,0.404,10.957,0.802,16.341,1.19C598.266,549.53,592.819,549.133,587.309,548.729
		z"/>
	<path style="fill:none;" d="M562.074,546.852c5.706,0.43,11.346,0.851,16.921,1.264C573.42,547.702,567.78,547.281,562.074,546.852
		z"/>
	<path style="fill:none;" d="M721.693,557.689c4.486,0.259,8.922,0.509,13.311,0.751
		C730.615,558.198,726.179,557.948,721.693,557.689z"/>
	<path style="fill:none;" d="M1183.937,439.263C921.357,506.115,802.61,510.968,0,426.007v0.001
		C802.61,510.969,921.357,506.115,1183.937,439.263z"/>
	<path style="fill:none;" d="M748.025,559.144c4.293,0.226,8.54,0.443,12.742,0.653
		C756.565,559.587,752.318,559.369,748.025,559.144z"/>
	<path style="opacity:0.65;fill:#73C69C;enable-background:new    ;" d="M0,388.542v37.465
		c802.61,84.961,921.357,80.108,1183.937,13.256c11.347-2.889,22.961-5.893,34.911-9.011c1.707-0.445,3.421-0.893,5.142-1.343
		c3.442-0.9,6.912-1.809,10.412-2.728c3.5-0.918,7.029-1.846,10.591-2.783c7.121-1.874,14.368-3.784,21.752-5.73
		c5.539-1.459,11.154-2.94,16.853-4.44c5.698-1.5,11.479-3.021,17.348-4.561c3.913-1.027,7.864-2.062,11.856-3.107
		c11.977-3.134,24.318-6.347,37.067-9.638c4.25-1.097,8.545-2.203,12.887-3.317c4.343-1.114,8.731-2.237,13.168-3.369
		c8.875-2.263,17.942-4.56,27.217-6.891c4.637-1.166,9.325-2.34,14.067-3.522c128.023-31.924,294.736-69.975,530.793-113.12v-74.684
		C835.936,412.191,1269.537,538.096,0,388.542z"/>
	<path style="opacity:0.5;fill:#73C69C;enable-background:new    ;" d="M911.654,329.608c-17.235,3.336-35.149,6.246-53.933,8.702
		c-3.757,0.491-7.548,0.964-11.376,1.419c-5.742,0.682-11.565,1.323-17.476,1.922c-3.94,0.399-7.919,0.78-11.938,1.142
		c-12.057,1.086-24.475,2.002-37.295,2.744c-4.273,0.247-8.591,0.475-12.956,0.683c-6.546,0.312-13.197,0.58-19.957,0.803
		c-4.507,0.149-9.062,0.277-13.667,0.386c-11.513,0.271-23.339,0.417-35.502,0.434c-2.433,0.003-4.878,0.001-7.338-0.005
		c-4.919-0.014-9.894-0.049-14.923-0.105c-2.515-0.028-5.044-0.061-7.588-0.099c-5.086-0.077-10.23-0.175-15.433-0.294
		c-7.803-0.179-15.738-0.405-23.81-0.68c-21.524-0.733-44.02-1.812-67.586-3.249c-5.892-0.359-11.85-0.741-17.877-1.145
		c-15.067-1.01-30.562-2.162-46.508-3.458c-6.378-0.518-12.829-1.06-19.353-1.625C349.913,326.172,194.644,306.299,0,276.058v37.513
		c1274.088,181.613,850.883-23.056,1948-276.293V0h-159.498C1265.176,147.612,1157.367,282.042,911.654,329.608z"/>
	<path style="opacity:0.6;fill:#73C69C;enable-background:new    ;" d="M0,351.062v37.479
		c1269.537,149.554,835.936,23.649,1948-197.524v-76.115C843.182,352.361,1271.438,516.388,0,351.062z"/>
	<path style="opacity:0.55;fill:#73C69C;enable-background:new    ;" d="M0,313.571v37.491
		c1271.438,165.325,843.182,1.299,1948-236.16V37.278C850.883,290.515,1274.088,495.185,0,313.571z"/>
	<path style="opacity:0.45;fill:#73C69C;enable-background:new    ;" d="M496.491,338.81c15.946,1.296,31.441,2.448,46.508,3.458
		c6.027,0.404,11.985,0.786,17.877,1.145c23.566,1.437,46.062,2.515,67.586,3.249c8.072,0.275,16.006,0.501,23.81,0.68
		c5.202,0.119,10.346,0.217,15.433,0.294c2.543,0.039,5.073,0.071,7.588,0.099c5.03,0.056,10.004,0.091,14.923,0.105
		c2.46,0.007,4.906,0.009,7.338,0.005c12.163-0.017,23.989-0.163,35.502-0.434c4.605-0.109,9.16-0.237,13.667-0.386
		c6.76-0.223,13.411-0.491,19.957-0.803c4.365-0.208,8.683-0.436,12.956-0.683c12.821-0.742,25.239-1.658,37.295-2.744
		c4.019-0.362,7.998-0.743,11.938-1.142c5.91-0.599,11.734-1.24,17.476-1.922c3.828-0.455,7.619-0.928,11.376-1.419
		c18.784-2.457,36.698-5.366,53.933-8.702C1157.367,282.042,1265.175,147.612,1788.499,0h-228.767
		c-18.237,7.048-35.811,14.056-52.751,21.011c-5.164,2.121-10.271,4.236-15.32,6.347c-7.575,3.166-15.023,6.321-22.351,9.464
		c-4.885,2.095-9.715,4.185-14.493,6.27c-33.447,14.59-64.321,28.906-93.146,42.862c-4.118,1.994-8.194,3.98-12.229,5.958
		c-4.036,1.979-8.031,3.95-11.988,5.914c-3.956,1.963-7.874,3.918-11.755,5.866c-3.88,1.948-7.724,3.887-11.531,5.818
		c-3.807,1.931-7.579,3.854-11.316,5.768c-1.869,0.957-3.729,1.912-5.581,2.864c-9.259,4.763-18.31,9.472-27.174,14.123
		c-5.319,2.79-10.571,5.56-15.762,8.307c-3.461,1.832-6.894,3.653-10.301,5.465c-10.222,5.436-20.211,10.781-30.009,16.031
		c-11.43,6.125-22.6,12.117-33.574,17.968C934.306,311.263,786.401,371.043,0,238.534v37.524
		c194.644,30.241,349.913,50.114,477.138,61.127C483.663,337.75,490.113,338.292,496.491,338.81z"/>
	<path style="opacity:0.5;fill:#73C69C;enable-background:new    ;" d="M1788.502,0h-0.003
		c-523.324,147.612-631.132,282.042-876.845,329.608C1157.367,282.042,1265.176,147.612,1788.502,0z"/>
	<path style="opacity:0.45;fill:#73C69C;enable-background:new    ;" d="M1788.502,0h-0.003
		c-523.324,147.612-631.132,282.042-876.845,329.608C1157.367,282.042,1265.176,147.612,1788.502,0z"/>
	<path style="opacity:0.5;fill:#73C69C;enable-background:new    ;" d="M690.216,347.839c-4.919-0.014-9.894-0.049-14.923-0.105
		C680.322,347.791,685.296,347.825,690.216,347.839z"/>
	<path style="opacity:0.45;fill:#73C69C;enable-background:new    ;" d="M690.216,347.839c-4.919-0.014-9.894-0.049-14.923-0.105
		C680.322,347.791,685.296,347.825,690.216,347.839z"/>
	<path style="opacity:0.5;fill:#73C69C;enable-background:new    ;" d="M733.056,347.411c-11.513,0.271-23.339,0.417-35.502,0.434
		C709.717,347.828,721.543,347.682,733.056,347.411z"/>
	<path style="opacity:0.45;fill:#73C69C;enable-background:new    ;" d="M733.056,347.411c-11.513,0.271-23.339,0.417-35.502,0.434
		C709.717,347.828,721.543,347.682,733.056,347.411z"/>
	<path style="opacity:0.5;fill:#73C69C;enable-background:new    ;" d="M496.491,338.81c-6.378-0.518-12.829-1.06-19.353-1.625
		C483.663,337.75,490.113,338.292,496.491,338.81z"/>
	<path style="opacity:0.45;fill:#73C69C;enable-background:new    ;" d="M496.491,338.81c-6.378-0.518-12.829-1.06-19.353-1.625
		C483.663,337.75,490.113,338.292,496.491,338.81z"/>
	<path style="opacity:0.5;fill:#73C69C;enable-background:new    ;" d="M560.876,343.413c-5.892-0.359-11.85-0.741-17.877-1.145
		C549.026,342.672,554.984,343.053,560.876,343.413z"/>
	<path style="opacity:0.45;fill:#73C69C;enable-background:new    ;" d="M560.876,343.413c-5.892-0.359-11.85-0.741-17.877-1.145
		C549.026,342.672,554.984,343.053,560.876,343.413z"/>
	<path style="opacity:0.5;fill:#73C69C;enable-background:new    ;" d="M667.705,347.635c-5.086-0.077-10.23-0.175-15.433-0.294
		C657.474,347.46,662.618,347.559,667.705,347.635z"/>
	<path style="opacity:0.45;fill:#73C69C;enable-background:new    ;" d="M667.705,347.635c-5.086-0.077-10.23-0.175-15.433-0.294
		C657.474,347.46,662.618,347.559,667.705,347.635z"/>
	<path style="opacity:0.5;fill:#73C69C;enable-background:new    ;" d="M766.68,346.221c-6.546,0.312-13.197,0.58-19.957,0.803
		C753.483,346.801,760.134,346.533,766.68,346.221z"/>
	<path style="opacity:0.45;fill:#73C69C;enable-background:new    ;" d="M766.68,346.221c-6.546,0.312-13.197,0.58-19.957,0.803
		C753.483,346.801,760.134,346.533,766.68,346.221z"/>
	<path style="opacity:0.5;fill:#73C69C;enable-background:new    ;" d="M857.721,338.31c-3.757,0.491-7.548,0.964-11.376,1.419
		C850.173,339.274,853.964,338.801,857.721,338.31z"/>
	<path style="opacity:0.45;fill:#73C69C;enable-background:new    ;" d="M857.721,338.31c-3.757,0.491-7.548,0.964-11.376,1.419
		C850.173,339.274,853.964,338.801,857.721,338.31z"/>
	<path style="opacity:0.5;fill:#73C69C;enable-background:new    ;" d="M911.654,329.608c-17.235,3.336-35.149,6.246-53.933,8.702
		C876.505,335.854,894.419,332.944,911.654,329.608z"/>
	<path style="opacity:0.45;fill:#73C69C;enable-background:new    ;" d="M911.654,329.608c-17.235,3.336-35.149,6.246-53.933,8.702
		C876.505,335.854,894.419,332.944,911.654,329.608z"/>
	<path style="opacity:0.5;fill:#73C69C;enable-background:new    ;" d="M846.345,339.729c-5.742,0.682-11.565,1.323-17.476,1.922
		C834.78,341.053,840.604,340.412,846.345,339.729z"/>
	<path style="opacity:0.45;fill:#73C69C;enable-background:new    ;" d="M846.345,339.729c-5.742,0.682-11.565,1.323-17.476,1.922
		C834.78,341.053,840.604,340.412,846.345,339.729z"/>
	<path style="opacity:0.5;fill:#73C69C;enable-background:new    ;" d="M816.932,342.794c-12.057,1.086-24.475,2.002-37.295,2.744
		C792.457,344.796,804.875,343.88,816.932,342.794z"/>
	<path style="opacity:0.45;fill:#73C69C;enable-background:new    ;" d="M816.932,342.794c-12.057,1.086-24.475,2.002-37.295,2.744
		C792.457,344.796,804.875,343.88,816.932,342.794z"/>
	<path style="opacity:0.5;fill:#73C69C;enable-background:new    ;" d="M652.272,347.341c-7.803-0.179-15.738-0.405-23.81-0.68
		C636.534,346.937,644.469,347.163,652.272,347.341z"/>
	<path style="opacity:0.45;fill:#73C69C;enable-background:new    ;" d="M652.272,347.341c-7.803-0.179-15.738-0.405-23.81-0.68
		C636.534,346.937,644.469,347.163,652.272,347.341z"/>
	<path style="opacity:0.4;fill:#73C69C;enable-background:new    ;" d="M1180.451,180.035c10.975-5.851,22.145-11.844,33.574-17.968
		c9.798-5.25,19.787-10.595,30.009-16.031c3.407-1.812,6.84-3.634,10.301-5.465c5.19-2.747,10.442-5.517,15.762-8.307
		c8.864-4.65,17.915-9.359,27.174-14.123c1.853-0.953,3.712-1.907,5.581-2.864c3.737-1.914,7.51-3.837,11.316-5.768
		c3.808-1.931,7.651-3.87,11.531-5.818c3.881-1.947,7.799-3.903,11.755-5.866c3.957-1.963,7.952-3.935,11.988-5.914
		c4.035-1.979,8.111-3.965,12.229-5.958c28.824-13.956,59.698-28.272,93.146-42.862c4.778-2.084,9.608-4.174,14.493-6.27
		c7.327-3.143,14.775-6.298,22.351-9.464c5.05-2.111,10.156-4.227,15.32-6.347c16.94-6.955,34.514-13.962,52.751-21.011h-158.707
		C975.365,218.764,988.921,380.933,0,200.991v37.542C786.401,371.042,934.306,311.263,1180.451,180.035z"/>
	<path style="opacity:0.8;fill:#73C69C;enable-background:new    ;" d="M803.293,561.696c-3.905-0.152-7.85-0.312-11.836-0.481
		c-5.979-0.253-12.05-0.524-18.22-0.814c-4.113-0.192-8.269-0.395-12.471-0.604c-4.202-0.21-8.448-0.428-12.742-0.653
		c-4.293-0.227-8.633-0.46-13.021-0.703c-4.389-0.242-8.825-0.492-13.311-0.751c-35.89-2.069-74.969-4.661-118.042-7.771
		c-5.384-0.389-10.831-0.786-16.341-1.19c-2.755-0.202-5.527-0.407-8.314-0.613c-5.575-0.413-11.215-0.834-16.921-1.264
		C422.273,536.338,242.638,520.979,0,500.896v37.416c881.774,63.14,928.551,85.581,1258.007,41.801
		c7.404-0.984,14.95-2.001,22.651-3.052c5.776-0.789,11.641-1.596,17.597-2.422c3.972-0.551,7.983-1.11,12.038-1.679
		c8.11-1.136,16.392-2.306,24.857-3.51c4.232-0.603,8.511-1.213,12.838-1.832c6.489-0.93,13.085-1.878,19.794-2.846
		c4.473-0.646,8.995-1.3,13.569-1.962c2.287-0.331,4.587-0.665,6.9-1.001c6.938-1.007,13.995-2.034,21.175-3.081
		c2.394-0.349,4.801-0.699,7.222-1.053c4.841-0.707,9.738-1.422,14.692-2.146c2.478-0.362,4.969-0.727,7.475-1.093
		c5.012-0.733,10.081-1.476,15.211-2.227c12.822-1.877,26.017-3.81,39.607-5.799c5.437-0.795,10.937-1.6,16.501-2.414
		c114.078-16.68,255.48-37.154,437.865-61.735v-71.024C1182.761,526.535,1141.093,574.859,803.293,561.696z"/>
	<path style="opacity:0.85;fill:#73C69C;enable-background:new    ;" d="M1493.634,546.412c-13.591,1.989-26.785,3.922-39.607,5.799
		c-5.13,0.751-10.199,1.493-15.211,2.227c-2.506,0.366-4.997,0.73-7.475,1.093c-4.954,0.725-9.852,1.439-14.692,2.146
		c-2.421,0.354-4.828,0.704-7.222,1.053c-7.18,1.047-14.236,2.074-21.175,3.081c-2.313,0.336-4.613,0.67-6.9,1.001
		c-4.574,0.662-9.097,1.316-13.569,1.962c-6.709,0.968-13.305,1.916-19.794,2.846c-4.327,0.619-8.605,1.229-12.838,1.832
		c-8.466,1.204-16.747,2.374-24.857,3.51c-4.055,0.568-8.066,1.128-12.038,1.679c-5.956,0.826-11.82,1.633-17.597,2.422
		c-7.701,1.051-15.247,2.067-22.651,3.052C928.551,623.895,881.774,601.453,0,538.314v37.414
		c1268.988,77.003,803.231,112.798,1948-23.48v-69.985c-182.385,24.581-323.787,45.056-437.865,61.735
		C1504.57,544.812,1499.07,545.617,1493.634,546.412z"/>
	<path style="opacity:0.8;fill:#73C69C;enable-background:new    ;" d="M1347.988,567.619c6.489-0.93,13.085-1.878,19.794-2.846
		C1361.073,565.741,1354.478,566.689,1347.988,567.619z"/>
	<path style="opacity:0.85;fill:#73C69C;enable-background:new    ;" d="M1347.988,567.619c6.489-0.93,13.085-1.878,19.794-2.846
		C1361.073,565.741,1354.478,566.689,1347.988,567.619z"/>
	<path style="opacity:0.8;fill:#73C69C;enable-background:new    ;" d="M1258.007,580.113c7.404-0.984,14.95-2.001,22.651-3.052
		C1272.957,578.112,1265.411,579.129,1258.007,580.113z"/>
	<path style="opacity:0.85;fill:#73C69C;enable-background:new    ;" d="M1258.007,580.113c7.404-0.984,14.95-2.001,22.651-3.052
		C1272.957,578.112,1265.411,579.129,1258.007,580.113z"/>
	<path style="opacity:0.8;fill:#73C69C;enable-background:new    ;" d="M1335.15,569.451c4.232-0.603,8.511-1.213,12.838-1.832
		C1343.661,568.238,1339.383,568.849,1335.15,569.451z"/>
	<path style="opacity:0.85;fill:#73C69C;enable-background:new    ;" d="M1335.15,569.451c4.232-0.603,8.511-1.213,12.838-1.832
		C1343.661,568.238,1339.383,568.849,1335.15,569.451z"/>
	<path style="opacity:0.8;fill:#73C69C;enable-background:new    ;" d="M1280.658,577.062c5.776-0.789,11.641-1.596,17.597-2.422
		C1292.299,575.466,1286.435,576.272,1280.658,577.062z"/>
	<path style="opacity:0.85;fill:#73C69C;enable-background:new    ;" d="M1280.658,577.062c5.776-0.789,11.641-1.596,17.597-2.422
		C1292.299,575.466,1286.435,576.272,1280.658,577.062z"/>
	<path style="opacity:0.8;fill:#73C69C;enable-background:new    ;" d="M1310.293,572.961c8.11-1.136,16.392-2.306,24.857-3.51
		C1326.685,570.655,1318.403,571.825,1310.293,572.961z"/>
	<path style="opacity:0.85;fill:#73C69C;enable-background:new    ;" d="M1310.293,572.961c8.11-1.136,16.392-2.306,24.857-3.51
		C1326.685,570.655,1318.403,571.825,1310.293,572.961z"/>
	<path style="opacity:0.8;fill:#73C69C;enable-background:new    ;" d="M1493.634,546.412c5.437-0.795,10.937-1.6,16.501-2.414
		C1504.57,544.812,1499.07,545.617,1493.634,546.412z"/>
	<path style="opacity:0.85;fill:#73C69C;enable-background:new    ;" d="M1493.634,546.412c5.437-0.795,10.937-1.6,16.501-2.414
		C1504.57,544.812,1499.07,545.617,1493.634,546.412z"/>
	<path style="opacity:0.8;fill:#73C69C;enable-background:new    ;" d="M1416.648,557.677c4.841-0.707,9.738-1.422,14.692-2.146
		C1426.387,556.255,1421.489,556.97,1416.648,557.677z"/>
	<path style="opacity:0.85;fill:#73C69C;enable-background:new    ;" d="M1416.648,557.677c4.841-0.707,9.738-1.422,14.692-2.146
		C1426.387,556.255,1421.489,556.97,1416.648,557.677z"/>
	<path style="opacity:0.8;fill:#73C69C;enable-background:new    ;" d="M1438.815,554.438c5.012-0.733,10.081-1.476,15.211-2.227
		C1448.896,552.962,1443.827,553.704,1438.815,554.438z"/>
	<path style="opacity:0.85;fill:#73C69C;enable-background:new    ;" d="M1438.815,554.438c5.012-0.733,10.081-1.476,15.211-2.227
		C1448.896,552.962,1443.827,553.704,1438.815,554.438z"/>
	<path style="opacity:0.8;fill:#73C69C;enable-background:new    ;" d="M1258.007,580.113
		C928.551,623.894,881.774,601.452,0,538.312v0.002C881.774,601.453,928.551,623.895,1258.007,580.113z"/>
	<path style="opacity:0.85;fill:#73C69C;enable-background:new    ;" d="M1258.007,580.113
		C928.551,623.894,881.774,601.452,0,538.312v0.002C881.774,601.453,928.551,623.895,1258.007,580.113z"/>
	<path style="opacity:0.8;fill:#73C69C;enable-background:new    ;" d="M1367.782,564.773c4.473-0.646,8.995-1.3,13.569-1.962
		C1376.777,563.474,1372.255,564.128,1367.782,564.773z"/>
	<path style="opacity:0.85;fill:#73C69C;enable-background:new    ;" d="M1367.782,564.773c4.473-0.646,8.995-1.3,13.569-1.962
		C1376.777,563.474,1372.255,564.128,1367.782,564.773z"/>
	<path style="opacity:0.8;fill:#73C69C;enable-background:new    ;" d="M1388.252,561.811c6.938-1.007,13.995-2.034,21.175-3.081
		C1402.247,559.776,1395.19,560.804,1388.252,561.811z"/>
	<path style="opacity:0.85;fill:#73C69C;enable-background:new    ;" d="M1388.252,561.811c6.938-1.007,13.995-2.034,21.175-3.081
		C1402.247,559.776,1395.19,560.804,1388.252,561.811z"/>
	<path style="opacity:0.7;fill:#73C69C;enable-background:new    ;" d="M1403.14,382.344c-9.274,2.331-18.342,4.628-27.217,6.891
		c-4.437,1.131-8.825,2.254-13.168,3.369c-4.342,1.114-8.637,2.22-12.887,3.317c-12.749,3.291-25.091,6.504-37.067,9.638
		c-3.992,1.045-7.943,2.081-11.856,3.107c-5.868,1.541-11.649,3.061-17.348,4.561c-5.698,1.5-11.313,2.98-16.853,4.44
		c-7.384,1.946-14.631,3.856-21.752,5.73c-3.562,0.937-7.091,1.864-10.591,2.783c-3.5,0.919-6.97,1.828-10.412,2.728
		c-1.721,0.45-3.435,0.898-5.142,1.343c-11.95,3.118-23.564,6.123-34.911,9.011C921.357,506.115,802.61,510.969,0,426.008v37.451
		c1267.726,119.39,822.137,63.276,1948-124.38v-73.377c-236.057,43.146-402.77,81.196-530.793,113.12
		C1412.465,380.005,1407.776,381.179,1403.14,382.344z"/>
	<path style="opacity:0.95;fill:#73C69C;enable-background:new    ;" d="M1383.75,675.619c-4.646,0.365-9.237,0.722-13.777,1.069
		c-11.35,0.87-22.376,1.687-33.104,2.45c-6.437,0.459-12.767,0.898-18.994,1.319c-16.607,1.123-32.489,2.114-47.75,2.979
		c-5.723,0.324-11.357,0.631-16.911,0.92c-1.851,0.097-3.692,0.191-5.525,0.284c-9.165,0.463-18.106,0.877-26.851,1.245
		c-3.498,0.146-6.964,0.286-10.399,0.419c-3.437,0.132-6.842,0.257-10.22,0.374c-1.688,0.059-3.37,0.116-5.045,0.171
		c-10.048,0.331-19.847,0.596-29.44,0.798C908.3,693.07,798.826,653.065,0,613.126v37.385
		c1271.729,50.283,791.923,140.682,1948,38.835v-68.093c-247.183,25.578-419.44,42.722-550.154,53.244
		C1393.093,674.88,1388.395,675.254,1383.75,675.619z"/>
	<path style="opacity:0.9;fill:#73C69C;enable-background:new    ;" d="M0,575.729v37.396
		c798.826,39.939,908.3,79.945,1165.732,74.523c9.594-0.202,19.393-0.467,29.44-0.798c1.675-0.055,3.356-0.112,5.045-0.171
		c3.378-0.117,6.783-0.242,10.22-0.374c3.436-0.133,6.901-0.272,10.399-0.419c8.744-0.368,17.686-0.782,26.851-1.245
		c1.833-0.093,3.675-0.188,5.525-0.284c5.554-0.289,11.188-0.596,16.911-0.92c15.261-0.865,31.143-1.856,47.75-2.979
		c6.228-0.421,12.558-0.86,18.994-1.319c10.729-0.764,21.755-1.58,33.104-2.45c4.54-0.348,9.132-0.704,13.777-1.069
		c4.645-0.365,9.343-0.739,14.096-1.122c130.714-10.522,302.972-27.666,550.154-53.244v-69.005
		C803.231,688.526,1268.988,652.731,0,575.729z"/>
	<path style="opacity:0.35;fill:#73C69C;enable-background:new    ;" d="M1401.025,0h-113.654c-0.54,0.349-1.083,0.698-1.621,1.046
		c-8.021,5.189-15.893,10.335-23.629,15.433c-7.737,5.098-15.342,10.147-22.83,15.145c-5.99,3.998-11.906,7.962-17.758,11.892
		c-1.463,0.982-2.922,1.962-4.377,2.94c-2.91,1.956-5.804,3.902-8.684,5.84c-2.88,1.937-5.744,3.865-8.597,5.784
		c-4.277,2.877-8.524,5.734-12.745,8.568c-2.814,1.889-5.616,3.769-8.408,5.637c-6.979,4.673-13.893,9.282-20.758,13.823
		C931.425,235.954,757.559,311.727,0,163.432v37.559C988.921,380.933,975.365,218.764,1401.025,0z"/>
	<path style="opacity:0.75;fill:#73C69C;enable-background:new    ;" d="M0,463.459v37.438
		c242.638,20.082,422.273,35.441,562.074,45.955c5.706,0.43,11.346,0.851,16.921,1.264c2.788,0.206,5.559,0.411,8.314,0.613
		c5.51,0.404,10.957,0.802,16.341,1.19c43.074,3.109,82.152,5.701,118.042,7.771c4.486,0.259,8.922,0.509,13.311,0.751
		c4.388,0.243,8.728,0.477,13.021,0.703c4.293,0.226,8.54,0.443,12.742,0.653c4.202,0.209,8.358,0.411,12.471,0.604
		c6.169,0.29,12.241,0.562,18.22,0.814c3.986,0.169,7.931,0.329,11.836,0.481c337.8,13.163,379.468-35.161,1144.707-150.459v-72.158
		C822.137,526.735,1267.726,582.849,0,463.459z"/>
	<path style="opacity:0.3;fill:#73C69C;enable-background:new    ;" d="M1157.965,86.107c6.865-4.541,13.778-9.15,20.758-13.823
		c2.792-1.869,5.594-3.748,8.408-5.637c4.221-2.834,8.468-5.69,12.745-8.568c2.853-1.918,5.717-3.847,8.597-5.784
		c2.88-1.938,5.773-3.884,8.684-5.84c1.455-0.978,2.914-1.958,4.377-2.94c5.852-3.929,11.768-7.894,17.758-11.892
		c7.488-4.998,15.093-10.047,22.83-15.145c7.736-5.098,15.607-10.243,23.629-15.433c0.538-0.348,1.081-0.698,1.621-1.046h-86.45
		c-4.009,3.006-7.993,5.993-11.956,8.958c-3.802,2.846-7.584,5.672-11.349,8.479c-3.766,2.807-7.514,5.595-11.248,8.362
		c-1.245,0.922-2.488,1.842-3.729,2.76c-2.483,1.836-4.961,3.662-7.434,5.479c-1.236,0.908-2.472,1.814-3.705,2.718
		c-3.702,2.711-7.394,5.401-11.078,8.069c-7.368,5.335-14.707,10.582-22.04,15.732c-3.666,2.575-7.331,5.126-10.997,7.653
		c-1.222,0.842-2.444,1.682-3.666,2.519c-2.445,1.674-4.891,3.336-7.339,4.987C896.899,210.285,685.164,269.671,0,125.853v37.578
		C757.559,311.727,931.425,235.954,1157.965,86.107z"/>
	<path style="opacity:0.35;fill:#73C69C;enable-background:new    ;" d="M1239.291,31.624c-5.99,3.998-11.906,7.962-17.758,11.892
		C1227.385,39.586,1233.301,35.622,1239.291,31.624z"/>
	<path style="opacity:0.3;fill:#73C69C;enable-background:new    ;" d="M1239.291,31.624c-5.99,3.998-11.906,7.962-17.758,11.892
		C1227.385,39.586,1233.301,35.622,1239.291,31.624z"/>
	<path style="opacity:0.35;fill:#73C69C;enable-background:new    ;" d="M1208.473,52.295c-2.88,1.937-5.744,3.865-8.597,5.784
		C1202.729,56.161,1205.593,54.232,1208.473,52.295z"/>
	<path style="opacity:0.3;fill:#73C69C;enable-background:new    ;" d="M1208.473,52.295c-2.88,1.937-5.744,3.865-8.597,5.784
		C1202.729,56.161,1205.593,54.232,1208.473,52.295z"/>
	<path style="opacity:0.35;fill:#73C69C;enable-background:new    ;" d="M1217.156,46.456c-2.91,1.956-5.804,3.902-8.684,5.84
		C1211.353,50.358,1214.246,48.411,1217.156,46.456z"/>
	<path style="opacity:0.3;fill:#73C69C;enable-background:new    ;" d="M1217.156,46.456c-2.91,1.956-5.804,3.902-8.684,5.84
		C1211.353,50.358,1214.246,48.411,1217.156,46.456z"/>
	<path style="opacity:0.35;fill:#73C69C;enable-background:new    ;" d="M1199.876,58.079c-4.277,2.877-8.524,5.734-12.745,8.568
		C1191.352,63.813,1195.599,60.957,1199.876,58.079z"/>
	<path style="opacity:0.3;fill:#73C69C;enable-background:new    ;" d="M1199.876,58.079c-4.277,2.877-8.524,5.734-12.745,8.568
		C1191.352,63.813,1195.599,60.957,1199.876,58.079z"/>
	<path style="opacity:0.35;fill:#73C69C;enable-background:new    ;" d="M1285.75,1.046c-8.021,5.189-15.893,10.335-23.629,15.433
		C1269.857,11.381,1277.729,6.236,1285.75,1.046z"/>
	<path style="opacity:0.3;fill:#73C69C;enable-background:new    ;" d="M1285.75,1.046c-8.021,5.189-15.893,10.335-23.629,15.433
		C1269.857,11.381,1277.729,6.236,1285.75,1.046z"/>
	<path style="opacity:0.35;fill:#73C69C;enable-background:new    ;" d="M1157.965,86.107
		C931.425,235.954,757.559,311.727,0,163.431v0.001C757.559,311.727,931.425,235.954,1157.965,86.107z"/>
	<path style="opacity:0.3;fill:#73C69C;enable-background:new    ;" d="M1157.965,86.107C931.425,235.954,757.559,311.727,0,163.431
		v0.001C757.559,311.727,931.425,235.954,1157.965,86.107z"/>
	<path style="opacity:0.35;fill:#73C69C;enable-background:new    ;" d="M1178.723,72.284c-6.979,4.673-13.893,9.282-20.758,13.823
		C1164.83,81.566,1171.743,76.957,1178.723,72.284z"/>
	<path style="opacity:0.3;fill:#73C69C;enable-background:new    ;" d="M1178.723,72.284c-6.979,4.673-13.893,9.282-20.758,13.823
		C1164.83,81.566,1171.743,76.957,1178.723,72.284z"/>
	<path style="opacity:0.05;fill:#6FC497;enable-background:new    ;" d="M644.29,0H490.497C546.408,3.79,597.451,3.64,644.29,0z"/>
	<path style="opacity:0.2;fill:#6FC497;enable-background:new    ;" d="M1038.33,65.746c2.313-1.474,4.62-2.958,6.919-4.455
		c1.149-0.748,2.297-1.499,3.442-2.253c3.438-2.262,6.858-4.549,10.266-6.861c2.272-1.542,4.537-3.094,6.798-4.658
		c3.39-2.345,6.768-4.715,10.135-7.108c5.612-3.989,11.196-8.044,16.762-12.162c2.227-1.647,4.45-3.304,6.671-4.971
		s4.439-3.344,6.656-5.03c3.326-2.53,6.647-5.081,9.968-7.653c4.51-3.494,9.017-7.026,13.525-10.595h-65.168
		c-0.855,0.647-1.711,1.294-2.567,1.938c-2.068,1.554-4.142,3.098-6.222,4.633c-1.04,0.767-2.082,1.532-3.125,2.294
		c-2.087,1.525-4.18,3.039-6.28,4.543c-2.1,1.504-4.207,2.999-6.321,4.483c-1.058,0.742-2.116,1.481-3.178,2.218
		c-3.184,2.21-6.384,4.397-9.604,6.56c-3.22,2.163-6.459,4.301-9.719,6.415c-2.173,1.409-4.355,2.808-6.547,4.195
		c-1.097,0.693-2.194,1.384-3.296,2.072c-4.403,2.752-8.847,5.458-13.334,8.119c-4.487,2.661-9.018,5.274-13.596,7.84
		C801.974,155.383,551.311,182.581,0,50.641v37.618C616.44,226.602,853.189,183.605,1038.33,65.746z"/>
	<path style="opacity:0.15;fill:#6FC497;enable-background:new    ;" d="M980.515,55.31c4.578-2.566,9.108-5.18,13.596-7.84
		c4.487-2.66,8.931-5.367,13.334-8.119c1.102-0.688,2.199-1.379,3.296-2.072c2.191-1.387,4.374-2.786,6.547-4.195
		c3.26-2.114,6.499-4.252,9.719-6.415c3.221-2.163,6.421-4.35,9.604-6.56c1.062-0.737,2.12-1.476,3.178-2.218
		c2.114-1.484,4.222-2.979,6.321-4.483c2.101-1.504,4.193-3.019,6.28-4.543c1.043-0.762,2.085-1.527,3.125-2.294
		c2.08-1.535,4.153-3.079,6.222-4.633c0.856-0.644,1.712-1.291,2.567-1.938h-65.869C819.323,117.844,566.855,157.336,0,13.008V50.64
		C551.311,182.581,801.974,155.383,980.515,55.31z"/>
	<path style="opacity:0.95;fill:#73C69C;enable-background:new    ;" d="M0,687.886v37.36
		c1275.699,24.597,781.526,165.339,1948,97.759v-66.428C786.639,841.257,1273.572,725.206,0,687.886z"/>
	<path style="opacity:0.25;fill:#6FC497;enable-background:new    ;" d="M1096.38,75.719c2.448-1.651,4.894-3.313,7.339-4.987
		c1.222-0.836,2.444-1.676,3.666-2.519c3.666-2.527,7.331-5.078,10.997-7.653c7.333-5.151,14.672-10.397,22.04-15.732
		c3.685-2.667,7.376-5.357,11.078-8.069c1.233-0.904,2.469-1.81,3.705-2.718c2.473-1.817,4.95-3.644,7.434-5.479
		c1.241-0.918,2.484-1.838,3.729-2.76c3.734-2.767,7.482-5.555,11.248-8.362c3.765-2.807,7.547-5.634,11.349-8.479
		c3.963-2.966,7.947-5.953,11.956-8.958h-71.449c-4.509,3.569-9.016,7.101-13.525,10.595c-3.32,2.572-6.642,5.123-9.968,7.653
		c-2.217,1.687-4.436,3.363-6.656,5.03c-2.221,1.667-4.444,3.324-6.671,4.971c-5.565,4.117-11.149,8.172-16.762,12.162
		c-3.367,2.393-6.745,4.763-10.135,7.108c-2.261,1.563-4.525,3.116-6.798,4.658c-3.407,2.312-6.828,4.6-10.266,6.861
		c-1.146,0.754-2.293,1.505-3.442,2.253c-2.299,1.497-4.605,2.981-6.919,4.455C853.189,183.605,616.44,226.602,0,88.26v37.592
		C685.164,269.671,896.899,210.284,1096.38,75.719z"/>
	<path style="opacity:0.2;fill:#6FC497;enable-background:new    ;" d="M1045.249,61.291c-2.299,1.497-4.605,2.981-6.919,4.455
		C1040.644,64.272,1042.95,62.788,1045.249,61.291z"/>
	<path style="opacity:0.25;fill:#6FC497;enable-background:new    ;" d="M1045.249,61.291c-2.299,1.497-4.605,2.981-6.919,4.455
		C1040.644,64.272,1042.95,62.788,1045.249,61.291z"/>
	<path style="opacity:0.2;fill:#6FC497;enable-background:new    ;" d="M1115.946,10.595c-3.32,2.572-6.642,5.123-9.968,7.653
		C1109.305,15.718,1112.626,13.167,1115.946,10.595z"/>
	<path style="opacity:0.25;fill:#6FC497;enable-background:new    ;" d="M1115.946,10.595c-3.32,2.572-6.642,5.123-9.968,7.653
		C1109.305,15.718,1112.626,13.167,1115.946,10.595z"/>
	<path style="opacity:0.2;fill:#6FC497;enable-background:new    ;" d="M1038.33,65.746C853.189,183.605,616.44,226.602,0,88.259
		v0.001C616.44,226.602,853.189,183.605,1038.33,65.746z"/>
	<path style="opacity:0.25;fill:#6FC497;enable-background:new    ;" d="M1038.33,65.746C853.189,183.605,616.44,226.602,0,88.259
		v0.001C616.44,226.602,853.189,183.605,1038.33,65.746z"/>
	<path style="opacity:0.2;fill:#6FC497;enable-background:new    ;" d="M1058.957,52.177c-3.407,2.312-6.828,4.6-10.266,6.861
		C1052.129,56.776,1055.55,54.489,1058.957,52.177z"/>
	<path style="opacity:0.25;fill:#6FC497;enable-background:new    ;" d="M1058.957,52.177c-3.407,2.312-6.828,4.6-10.266,6.861
		C1052.129,56.776,1055.55,54.489,1058.957,52.177z"/>
	<path style="opacity:0.2;fill:#6FC497;enable-background:new    ;" d="M1065.755,47.519c-2.261,1.563-4.525,3.116-6.798,4.658
		C1061.229,50.635,1063.494,49.083,1065.755,47.519z"/>
	<path style="opacity:0.25;fill:#6FC497;enable-background:new    ;" d="M1065.755,47.519c-2.261,1.563-4.525,3.116-6.798,4.658
		C1061.229,50.635,1063.494,49.083,1065.755,47.519z"/>
	<path style="opacity:0.2;fill:#6FC497;enable-background:new    ;" d="M1075.89,40.411c-3.367,2.393-6.745,4.763-10.135,7.108
		C1069.145,45.174,1072.522,42.804,1075.89,40.411z"/>
	<path style="opacity:0.25;fill:#6FC497;enable-background:new    ;" d="M1075.89,40.411c-3.367,2.393-6.745,4.763-10.135,7.108
		C1069.145,45.174,1072.522,42.804,1075.89,40.411z"/>
	<path style="opacity:0.2;fill:#6FC497;enable-background:new    ;" d="M1099.322,23.278c-2.221,1.667-4.444,3.324-6.671,4.971
		C1094.878,26.602,1097.102,24.944,1099.322,23.278z"/>
	<path style="opacity:0.25;fill:#6FC497;enable-background:new    ;" d="M1099.322,23.278c-2.221,1.667-4.444,3.324-6.671,4.971
		C1094.878,26.602,1097.102,24.944,1099.322,23.278z"/>
	<path style="opacity:0.05;fill:#6FC497;enable-background:new    ;" d="M924.555,0h-94.629c-134.583,45.616-314.328,53.16-577.84,0
		H95.507C524.676,105.287,760.189,84.604,924.555,0z"/>
	<path style="opacity:0.1;fill:#6FC497;enable-background:new    ;" d="M998.434,0h-73.879C760.189,84.604,524.676,105.287,95.507,0
		H0v13.007C566.855,157.336,819.323,117.844,998.434,0z"/>
	<path style="opacity:0.15;fill:#6FC497;enable-background:new    ;" d="M998.435,0L998.435,0
		C819.323,117.844,566.855,157.336,0,13.007v0.001C566.855,157.336,819.323,117.844,998.435,0z"/>
	<path style="opacity:0.1;fill:#6FC497;enable-background:new    ;" d="M998.435,0L998.435,0
		C819.323,117.844,566.855,157.336,0,13.007v0.001C566.855,157.336,819.323,117.844,998.435,0z"/>
	<path style="opacity:0.05;fill:#6FC497;enable-background:new    ;" d="M829.925,0H644.29c-46.839,3.64-97.882,3.79-153.793,0
		H252.085C515.598,53.16,695.343,45.616,829.925,0z"/>
	<path style="opacity:0.99;fill:#73C69C;enable-background:new    ;" d="M0,650.511v37.375
		c1273.572,37.32,786.639,153.371,1948,68.691v-67.231C791.923,791.192,1271.729,700.794,0,650.511z"/>
	<path style="opacity:0.9;fill:#73C69C;enable-background:new    ;" d="M0,725.246v37.351
		c1278.064,12.1,776.665,176.609,1948,126.08v-65.672C781.526,890.585,1275.699,749.843,0,725.246z"/>
	<path style="opacity:0.65;fill:#73C69C;enable-background:new    ;" d="M0,911.908v37.302
		c484.278-17.797,711.707,9.249,869.439,51.79h120.122C818.016,943.569,618.018,894.682,0,911.908z"/>
	<path style="opacity:0.6;fill:#73C69C;enable-background:new    ;" d="M0,949.21v37.293c335.851-15.268,548.1-6.999,699.068,14.497
		h170.372C711.707,958.459,484.278,931.413,0,949.21z"/>
	<path style="opacity:0.7;fill:#73C69C;enable-background:new    ;" d="M0,874.599v37.309
		c618.018-17.227,818.016,31.662,989.562,89.093h128.839C891.334,936.892,768.994,860.125,0,874.599z"/>
	<path style="opacity:0.65;fill:#73C69C;enable-background:new    ;" d="M0,911.907L0,911.907
		c618.018-17.226,818.016,31.662,989.562,89.093h0.001C818.016,943.569,618.018,894.681,0,911.907z"/>
	<path style="opacity:0.7;fill:#73C69C;enable-background:new    ;" d="M0,911.907L0,911.907
		c618.018-17.226,818.016,31.662,989.562,89.093h0.001C818.016,943.569,618.018,894.681,0,911.907z"/>
	<path style="opacity:0.85;fill:#73C69C;enable-background:new    ;" d="M0,762.597v37.341
		c1280.674-0.198,771.949,187.28,1948,153.698v-64.959C776.665,939.206,1278.064,774.696,0,762.597z"/>
	<path style="opacity:0.75;fill:#73C69C;enable-background:new    ;" d="M0,837.275v37.322
		C768.995,860.125,891.334,936.892,1118.401,1001h260.966C907.235,953.379,1002.103,827.674,0,837.275z"/>
	<path style="opacity:0.55;fill:#73C69C;enable-background:new    ;" d="M0,986.503V1001h699.068
		C548.1,979.504,335.851,971.235,0,986.503z"/>
	<path style="opacity:0.8;fill:#73C69C;enable-background:new    ;" d="M0,799.938v37.337
		C1002.105,827.674,907.235,953.379,1379.372,1001H1948v-47.364C771.949,987.218,1280.674,799.739,0,799.938z"/>
	<path style="opacity:0.75;fill:#73C69C;enable-background:new    ;" d="M0,837.274L0,837.274
		C1002.103,827.674,907.235,953.379,1379.367,1001h0.005C907.235,953.379,1002.105,827.674,0,837.274z"/>
	<path style="opacity:0.8;fill:#73C69C;enable-background:new    ;" d="M0,837.274L0,837.274
		C1002.103,827.674,907.235,953.379,1379.367,1001h0.005C907.235,953.379,1002.105,827.674,0,837.274z"/>
</g>
</svg>
