<?xml version="1.0" encoding="iso-8859-1"?>
<!-- Generator: Adobe Illustrator 15.1.0, SVG Export Plug-In . SVG Version: 6.00 Build 0)  -->
<!DOCTYPE svg PUBLIC "-//W3C//DTD SVG 1.1//EN" "http://www.w3.org/Graphics/SVG/1.1/DTD/svg11.dtd">
<svg version="1.1" xmlns="http://www.w3.org/2000/svg" xmlns:xlink="http://www.w3.org/1999/xlink" x="0px" y="0px"
	 width="1408.807px" height="617.062px" viewBox="0 0 1408.807 617.062" style="enable-background:new 0 0 1408.807 617.062;"
	 xml:space="preserve">
<g id="Color_Flood">
	<g>
		<path style="opacity:0.99;fill:#63C29D;" d="M-6439.543,0h-94.746c-67.194,44.937-119.479,99.988-145.022,129.275l-0.104-0.091
			v57.838C-6639.713,135.444-6557.97,46.23-6439.543,0z"/>
		<path style="opacity:0.99;fill:#63C29D;" d="M-6610.335,0h-55.595c-4.663,4.764-9.157,9.553-13.39,14.286l-0.097-0.087v56.729
			C-6664.77,52.812-6641.525,26.744-6610.335,0z"/>
		<path style="opacity:0.99;fill:#63C29D;" d="M-6537.87,0h-69.381c-33.014,28.061-57.28,55.527-72.033,73.954l-0.132-0.105v52.513
			C-6653.658,97.003-6602.882,43.954-6537.87,0z"/>
		<path style="opacity:0.99;fill:#63C29D;" d="M-6083.919,15.228c-33.73-1.208-71.962-2.577-121.935-2.577
			c-263.711,0-418.923,167.461-473.414,239.46l-0.148-0.112v66.159c24.205-31.789,74.763-90.976,150.13-143.76
			c91.757-64.263,193.379-101.22,302.044-109.844c143.818-11.414,223.7-4.483,287.886,1.087c51.526,4.471,92.226,8.003,147.02,0.173
			c56.026-8.004,98.986-18.808,136.889-28.341c39.401-9.91,73.847-18.555,110.032-20.241V0h-308.41
			C-5955.396,19.826-6004.806,18.062-6083.919,15.228z"/>
		<path style="opacity:0.99;fill:#63C29D;" d="M-6511.627,349.385c99.844-68.219,200.578-107.958,299.403-118.114
			c71.322-7.329,138.606,1.593,205.697,27.28c57.354,21.958,105.046,52.744,143.367,77.48c24.779,15.995,46.18,29.81,65.101,38.218
			c3.336,1.482,6.67,3.002,10.02,4.527c55.144,25.116,112.139,51.046,242.623-46.575V221.174
			c-32.775,8.708-59.645,24.255-85.687,39.355c-33.848,19.627-65.817,38.165-105.94,38.165c-62.765,0-120.202-26.878-181.012-55.334
			c-71.711-33.557-145.862-68.256-241.418-68.256c-268.784,0-464.942,213.648-518.66,279.129l-1.284-1.054v41.607
			C-6650.588,463.336-6591.6,404.026-6511.627,349.385z"/>
		<path style="opacity:0.99;fill:#63C29D;" d="M-5788.868,380.596c-3.344-1.522-6.673-3.039-10.003-4.519
			c-19.062-8.472-40.523-22.325-65.373-38.365c-79.068-51.039-187.354-120.945-347.775-104.451
			c-231.599,23.801-416.234,208.383-467.307,264.388l-0.09-0.082v41.555c31.118-32.824,95.213-94.336,183.563-148.006
			c110.254-66.976,223.007-100.936,335.125-100.936c84.101,0,165.451,22.839,241.792,67.882
			c62.753,37.025,106.704,79.584,132.964,105.012c3.597,3.482,6.703,6.489,9.505,9.14c2.989,2.828,6.083,5.812,9.289,8.905
			c44.403,42.832,110.946,106.988,221.762,63.124V334.696c-57.179,42.559-105.501,64.998-147.448,68.494
			C-5732.078,406.463-5760.95,393.312-5788.868,380.596z"/>
		<path style="opacity:0.99;fill:#63C29D;" d="M-5792.054,67.794c-55.023,7.86-95.823,4.319-147.476-0.161
			c-64.111-5.562-143.9-12.487-287.555-1.085c-249.601,19.81-399.375,184.731-452.183,254.719l-0.149-0.112v66.229
			c27.294-33.908,84.173-97.456,167.195-154.777c103.025-71.132,214.092-111.226,330.116-119.166
			c128.921-8.817,207.261,12.383,276.38,31.093c46.214,12.509,86.125,23.312,133.586,23.312c49.654,0,90.884-18.167,130.756-35.736
			c32.328-14.245,63.018-27.758,95.967-30.637V19.229c-35.725,1.637-68.679,9.905-109.545,20.184
			C-5692.91,48.957-5735.924,59.774-5792.054,67.794z"/>
		<path style="opacity:0.99;fill:#63C29D;" d="M-6498.862,283.109c109.95-74.984,224.138-113.005,339.39-113.005
			c96.668,0,171.331,34.938,243.537,68.728c60.292,28.214,117.24,54.862,178.893,54.862c38.777,0,70.183-18.211,103.432-37.49
			c26.677-15.469,54.207-31.408,88.195-40.209V103.481c-32.566,2.885-63.049,16.309-95.16,30.458
			c-40.062,17.652-81.487,35.906-131.562,35.906c-47.727,0-87.757-10.836-134.108-23.382
			c-68.967-18.669-147.136-39.828-275.72-31.027c-265.034,18.139-436.079,198.339-497.316,274.973l-0.132-0.105v57.631
			C-6648.491,410.65-6585.954,342.505-6498.862,283.109z"/>
		<path style="opacity:0.99;fill:#63C29D;" d="M-5935.91,583.231c-69.723-79.168-168.777-121.012-286.529-121.012
			c-151.403,0-284.657,65.599-370.193,121.012h81.951l-0.42-0.907c89.829-41.539,176.777-63.499,251.42-63.499c0.005,0-0.004,0,0,0
			c0.271-0.018,33.788-1.993,80.358,4.834c42.986,6.302,106.229,21.607,163.406,58.733l-0.545,0.839H-5935.91z"/>
		<path style="opacity:0.99;fill:#63C29D;" d="M-5843.406,583.231c-67.945-116.361-186.026-175.363-350.98-175.363
			c-208.589,0-374.51,109.494-455.419,175.363h55.332l-0.545-0.838c85.71-55.735,219.924-122.174,372.58-122.174
			c59.846,0,115.357,10.907,164.993,32.42c47.949,20.78,89.543,51.039,123.626,89.933l-0.752,0.659H-5843.406z"/>
		<path style="opacity:0.99;fill:#63C29D;" d="M-6401.588,583.231h273.213c-65.028-19.363-120.34-19.337-120.942-19.321
			C-6299.818,563.91-6351.023,570.422-6401.588,583.231z"/>
		<path style="opacity:0.99;fill:#63C29D;" d="M-5617.031,561.017c-70.202,0.004-117.361-45.496-151.535-78.459
			c-3.201-3.088-6.29-6.067-9.275-8.892c-2.81-2.658-5.92-5.67-9.521-9.156c-53.257-51.567-177.974-172.33-373.365-172.33
			c-262.697,0-463.365,191.172-518.61,249.764l-0.079-0.074v29.688c31.903-29.824,96.707-85.864,180.938-135.084
			c105.762-61.803,207.68-93.139,302.922-93.139c108.54,0,205.56,28.415,288.364,84.457
			c58.193,39.385,108.358,91.501,149.101,154.898l-0.841,0.541h213.516v-36.837
			C-5571.656,556.691-5595.441,561.015-5617.031,561.017z"/>
		<path style="opacity:0.99;fill:#63C29D;" d="M-6668.724,0h-10.692v11.416C-6675.992,7.626-6672.42,3.809-6668.724,0z"/>
		<path style="opacity:0.99;fill:#63C29D;" d="M-6018.326,583.231c-56.525-36.313-118.827-51.368-161.286-57.594
			c-46.369-6.798-79.675-4.837-80.006-4.814c-73.869,0.002-159.789,21.583-248.654,62.408h102.586l-0.251-0.968
			c51.977-13.506,104.669-20.354,156.615-20.354c0.582-0.03,58.011-0.048,124.699,20.365l-0.292,0.956H-6018.326z"/>
		<path style="opacity:0.99;fill:#63C29D;" d="M-6205.854,10.65c50.008,0,88.259,1.37,122.006,2.579
			c76.253,2.731,124.861,4.468,219.371-13.229h-569.487c-122.055,46.031-205.764,138.333-245.307,190.116l-0.146-0.111v58.997
			C-6623.48,175.765-6468.168,10.65-6205.854,10.65z"/>
		<path style="opacity:0.99;fill:#63C29D;" d="M-6652.024,582.457c80.765-65.95,247.615-176.589,457.638-176.589
			c165.957,0,284.725,59.505,353.006,176.86l-0.864,0.503h82.12c-69.994-108.663-202.285-237.896-435.432-237.896
			c-222.68,0-426.623,175.224-483.825,228.928l-0.036-0.038v9.007h28.024L-6652.024,582.457z"/>
	</g>
	<rect x="-2432" style="opacity:0.99;fill:#63C29D;" width="1408.807" height="617.062"/>
	<rect x="-4974.178" style="fill:#A9BA75;" width="1134" height="582.701"/>
</g>
<g id="Illustration_Line_Work">
	<path style="fill:none;stroke:#FFFFFF;stroke-width:3;stroke-miterlimit:10;" d="M-1780.725,1505.495
		c-27.21-10.609-85.214-27.167-169.363-19.511c-72.395,6.585-95.858,30.552-103.423,44.326"/>
	<path style="fill:none;stroke:#FFFFFF;stroke-width:3;stroke-miterlimit:10;" d="M-1614.78,1490.396
		c-21.245-25.057-96.401-92.836-277.848-76.329c-166.604,15.157-240.414,96.491-261.663,125.413"/>
	<path style="fill:none;stroke:#FFFFFF;stroke-width:3;stroke-miterlimit:10;" d="M-2214.657,1500.057
		c23.588-31.465,125.466-149.124,342.557-168.871c271.652-24.717,347.756,112.104,363.374,149.562"/>
	<path style="fill:none;stroke:#FFFFFF;stroke-width:3;stroke-miterlimit:10;" d="M-2229.364,1438.936
		c27.963-29.24,155.709-151.146,357.494-169.503c344.401-31.331,413.492,160.437,424.942,205.695"/>
	<path style="fill:none;stroke:#FFFFFF;stroke-width:3;stroke-miterlimit:10;" d="M-2240.616,1392.173
		c29.387-29.509,170.19-156.483,439.11-180.948c0,0,394.637-46.695,420.238,257.928"/>
	<path style="fill:none;stroke:#FFFFFF;stroke-width:3;stroke-miterlimit:10;" d="M-2249.87,1353.707
		c31.846-30.595,191.18-171.288,450.535-194.883c0,0,255.185-24.272,379.268,119.369c69.265,80.18,78.875,160.192,80.052,187.206"/>
	<path style="fill:none;stroke:#FFFFFF;stroke-width:3;stroke-miterlimit:10;" d="M-2258.547,1317.652
		c150.708-121.546,312.36-184.318,438.69-195.81c0,0,463.743-66.205,515.08,340.351"/>
	<path style="fill:none;stroke:#FFFFFF;stroke-width:3;stroke-miterlimit:10;" d="M-2266.04,1286.511
		c33.934-33.314,212.136-196.219,474.638-220.102c288.959-26.288,503.954,144.942,520.568,392.695"/>
	<path style="fill:none;stroke:#FFFFFF;stroke-width:3;stroke-miterlimit:10;" d="M-2274.084,1253.075
		c33.562-35.756,211.737-211.022,501.949-237.423c508.822-46.29,560.983,368.839,566.125,437.556"/>
	<path style="fill:none;stroke:#FFFFFF;stroke-width:3;stroke-miterlimit:10;" d="M-2281.298,1223.098
		c35.391-38.606,230.375-238.47,494.602-262.511c363.254-33.046,553.715,187.061,588.181,225.785
		c50.334,56.547,125,148.823,138.453,166.57c11.8,15.562,40.054,57.604,75.465,80.125"/>
	<path style="fill:none;stroke:#FFFFFF;stroke-width:3;stroke-miterlimit:10;" d="M-2287.805,1196.055
		c34.743-44.229,217.389-257.582,528.072-285.848c229.883-20.912,403.463,90.185,459.808,122.057
		c59.114,33.441,152.427,96.404,276.731,37.582"/>
	<path style="fill:none;stroke:#FFFFFF;stroke-width:3;stroke-miterlimit:10;" d="M-2297.112,1157.372
		c30.325-40.03,197.943-246.116,468.432-294.012c227.833-40.343,390.424,61.682,484.599,84.764
		c69.57,17.049,141.028,43.894,275.406-67.299"/>
	<path style="fill:none;stroke:#FFFFFF;stroke-width:3;stroke-miterlimit:10;" d="M-2306.178,1119.7
		c32.724-49.638,203.925-285.248,522.646-314.242c196.842-17.908,342.84,80.247,490.132,66.848
		c79.103-7.195,116.229-65.518,201.069-89.796"/>
	<path style="fill:none;stroke:#FFFFFF;stroke-width:3;stroke-miterlimit:10;" d="M-2319.411,1064.698
		c27.621-44.126,178.285-260.903,498.753-308.309c232.399-34.38,330.91,18.952,461.682,7.057
		c101.999-9.281,213.3-83.513,300.295-94.773"/>
	<path style="fill:none;stroke:#FFFFFF;stroke-width:3;stroke-miterlimit:10;" d="M-2333.859,1004.656
		c26.755-46.841,153.782-239.828,453.268-286.896c281.045-44.167,346.749-14.592,477.922-42.349
		c127.732-27.03,321.707-90.142,446.526-103.578"/>
	<path style="fill:none;stroke:#FFFFFF;stroke-width:3;stroke-miterlimit:10;" d="M-2348.548,943.607
		c29.17-51.034,160.83-246.506,479.912-275.535c239.521-21.787,246.482,1.312,556.221-96.942
		c91.363-28.981,198.54-50.057,217.39-52.737c0,0,107.893-18.826,209.185-10.685"/>
	<path style="fill:none;stroke:#FFFFFF;stroke-width:3;stroke-miterlimit:10;" d="M-2361.763,888.689
		c26.142-44.494,121.92-185.01,312.762-233.594c165.942-42.246,275.091-31.81,429.135-63.908
		c150.404-31.339,392.789-130.537,507.935-142.715c0,0,48.907-7.16,205.117-8.6"/>
	<path style="fill:none;stroke:#FFFFFF;stroke-width:3;stroke-miterlimit:10;" d="M-2375.171,832.961
		c22.449-31.512,120.709-159.496,268.1-208.752c190.83-63.771,364.467-16.478,579.016-120.37
		c177.657-86.026,341.364-113.702,401.685-115.086c0,0,100.11-4.353,200.748,10.105"/>
	<path style="fill:none;stroke:#FFFFFF;stroke-width:3;stroke-miterlimit:10;" d="M-2386.571,785.585
		c19.035-31.118,83.455-122.55,211.715-177.82c141.398-60.931,280.015-58.173,364.933-73.651
		c139.185-25.382,212.821-49.693,304.729-108.639c110.814-71.072,265.361-86.495,366.062-89.478c0,0,97.309-1.062,204.367,16.933"/>
	<path style="fill:none;stroke:#FFFFFF;stroke-width:3;stroke-miterlimit:10;" d="M-2399.597,731.453
		c20.572-29.716,102.723-132.697,283.472-184.514c212.622-60.955,348.937-44.458,466.252-112.926
		c116.171-67.803,255.199-159.416,496.717-156.016c0,0,90.657,1.033,218.973,14.242"/>
	<path style="fill:none;stroke:#FFFFFF;stroke-width:3;stroke-miterlimit:10;" d="M-2411.775,680.833
		c21.05-24.476,116.854-124.368,321.636-181.337c235.18-65.428,295.405-69.644,347.411-98.648
		c52.004-29.001,125.081-116.357,205.06-134.242c109.685-24.525,270.271-23.031,366.654-51.586c108.015-32,168.015-12,168.015-12"/>
	<path style="fill:none;stroke:#FFFFFF;stroke-width:9;stroke-miterlimit:10;" d="M-2422.253,637.287
		c24.073-24.924,122.054-118.651,278.627-168.76c152.547-48.818,185.084-31.404,275.939-96.765
		c84.613-60.868,69.279-112.646,123.326-151.081c0,0,52.171-51.387,183.916-24.826c120.65,24.327,259.976,4.754,372.798-49.587
		c50.387-24.269,111.941-9.204,111.941-9.204c88.014,21.01,131.283,1.067,131.283,1.067"/>
	<path style="opacity:0.99;fill:none;stroke:#FFFFFF;stroke-width:3;stroke-miterlimit:10;" d="M-2431.776,597.711
		c17.817-18.199,100.999-99.238,210.05-142.884c91.737-36.716,156.601-55.832,206.413-92.755
		c101.328-75.104,102.93-149.511,259.116-208.512c105.642-39.903,194.646-12.582,241.082,3.497
		c45.521,15.76,72.088,14.424,117.021,2.069c61.183-16.825,164.245-57.636,200.213-66.087c0,0,51.752-17.521,105.789-0.975
		c68.745,21.051,116.229-28.483,145.463-26.749"/>
	<path style="fill:none;stroke:#FFFFFF;stroke-width:3;stroke-miterlimit:10;" d="M-2443.103,550.644
		c20.569-17.265,93.295-74.747,202.174-121.811c98.698-42.659,145.487-142.693,194.223-185.271
		c48.735-42.575,124.623-67.974,176.531-85.411s133.567-60.697,151.296-130.505c17.289-68.092-43.017-225.111-76.935-299.157"/>
	<path style="fill:none;stroke:#FFFFFF;stroke-width:3;stroke-miterlimit:10;" d="M-1741.247-276.475
		c9.67,27.647,61.123,177.921,70.461,270.844c8.961,89.147,90.789,114.262,194.644,109.438
		c67.632-3.143,192.284-68.999,264.406-68.053c72.121,0.946,105.676,6.56,140.49,0.006c68.953-12.98,116.933-61.554,116.933-61.554"
		/>
	<path style="fill:none;stroke:#FFFFFF;stroke-width:3;stroke-miterlimit:10;" d="M-1288.158-31.35
		c-65.5,10.249-97.373,59.316-191.475,67.875c-63.153,5.748-135.074-35.163-151.035-127.782
		c-13.142-76.266-41.006-166.139-48.887-190.832"/>
	<path style="fill:none;stroke:#FFFFFF;stroke-width:3;stroke-miterlimit:10;" d="M-1305.32-102.668
		c-11.107,1.611-41.103,7.486-116.053,28.861c-154.241,43.988-203.602-171.526-211.536-212.526"/>
	<path style="fill:none;stroke:#FFFFFF;stroke-width:3;stroke-miterlimit:10;" d="M-1322.702-174.914
		c-11.006,1.444-34.118,5.918-77.944,19.594c-124.928,38.978-163.382-111.859-168.836-136.781"/>
	<path style="fill:none;stroke:#FFFFFF;stroke-width:3;stroke-miterlimit:10;" d="M-1335.764-229.186
		c-41.773,8.601-42.246,18.789-90.526,23.18c-75.854,6.899-91.028-70.772-93.658-90.602"/>
	<path style="fill:none;stroke:#FFFFFF;stroke-width:3;stroke-miterlimit:10;" d="M-1464.796-301.626
		c4.249,17.454,24.201,56.123,117.835,25.894"/>
	<path style="fill:none;stroke:#FFFFFF;stroke-width:3;stroke-miterlimit:10;" d="M-2454.651,502.645
		c15.037-8.098,70.98-38.299,141.007-76.94c93.77-51.747,118.824-92.919,132.499-125.491
		c13.673-32.577,27.402-104.046,195.742-142.05c168.339-38.002,234.135-77.479,203.7-215.155
		c-26.207-118.526-63.307-191.221-73.122-209.149"/>
	<path style="fill:none;stroke:#FFFFFF;stroke-width:3;stroke-miterlimit:10;" d="M-2465.956,455.651
		c27.463-8.746,151.735-51.266,212.104-122.315c50.321-59.228,44.083-135.314,154.74-161.587c0,0,149.365-33.034,192.62-48.854
		c43.249-15.818,118.321-66.84,84.726-201.094c-29.748-118.867-57.353-171.975-64.849-185.052"/>
	<path style="fill:none;stroke:#FFFFFF;stroke-width:3;stroke-miterlimit:10;" d="M-2477.507,407.651
		c25.752-4.67,116.744-23.842,159.301-67.96c74.256-76.979,53.352-158.265,213.963-183.681
		c160.613-25.417,225.425-41.034,253.759-130.043c25.335-79.589-44.671-251.574-59.763-287.068"/>
	<path style="fill:none;stroke:#FFFFFF;stroke-width:3;stroke-miterlimit:10;" d="M-2489.563,357.549
		c15.066,0.39,52.515-1.947,104.385-27.973c68.387-34.309,110.141-156.947,250.76-181.625
		c140.621-24.674,274.76-25.77,258.568-173.693c-14.029-128.21-49.439-211.714-59.34-233.09"/>
	<path style="fill:none;stroke:#FFFFFF;stroke-width:3;stroke-miterlimit:10;" d="M-2503.347,300.266
		c17.695,0.733,71.811-1.267,122.729-46.728c61.98-55.336,99.85-87.95,219.164-111.767
		c119.312-23.818,251.896-18.22,254.517-137.673c2.538-115.842-40.814-232.409-52.131-260.757"/>
	<path style="fill:none;stroke:#FFFFFF;stroke-width:3;stroke-miterlimit:10;" d="M-2515.472,249.868
		c13.533,1.13,48.757,0.595,95.391-26.231c60.236-34.651,117.346-87.883,268.497-96.731
		c168.254-9.851,206.612-57.767,215.929-138.56c10.354-89.743-24.947-194.483-43.46-243.182"/>
	<path style="fill:none;stroke:#FFFFFF;stroke-width:3;stroke-miterlimit:10;" d="M-2524.961,210.436
		c17.474-1.966,59.202-8.014,94.661-23.681c31.492-13.913,130.687-66.27,224.745-71.803c100.762-5.927,204.503-5.062,221.677-112.5
		c16.768-104.885-5.948-192.789-24.673-254.608"/>
	<path style="fill:none;stroke:#FFFFFF;stroke-width:3;stroke-miterlimit:10;" d="M-2533.831,173.573
		c40.051-3.277,71.984-8.647,112.652-19.653c21.086-5.702,69.691-29.169,115.346-40.17
		c167.021-40.25,339.237-38.487,254.993-362.062"/>
	<path style="fill:none;stroke:#FFFFFF;stroke-width:3;stroke-miterlimit:10;" d="M-2540.273,146.793
		c16.084,0.427,62.969-0.357,116.363-19.959c63.718-23.391,70.172-29.41,183.302-60.811
		c149.416-41.467,152.302-159.714,122.403-308.206"/>
	<path style="fill:none;stroke:#FFFFFF;stroke-width:3;stroke-miterlimit:10;" d="M-2549.239,109.533
		c25.716-0.392,102.252-5.772,216.078-50.31c206.798-80.911,192.986-157.936,166.816-297.027"/>
	<path style="fill:none;stroke:#FFFFFF;stroke-width:3;stroke-miterlimit:10;" d="M-2562.716,53.521
		c35.218-3.627,94.596-14.333,172.996-45.077c173.529-68.048,179.879-133.185,161.505-240.617"/>
	<g>
		<path style="opacity:0.99;fill:#63C29D;" d="M177.005,332.364c15.695-18.472,25.949-38.798,35.865-58.454
			c22.166-43.939,43.104-85.441,119.672-103.62c1.516-0.336,149.785-33.199,192.451-48.804
			C553.873,110.924,610.459,80.103,616.682,0h-28.846c-0.785,9.572-2.357,18.464-4.891,26.423
			c-14.122,44.361-37.473,71.21-78.081,89.777c-41.214,18.845-101.865,29.422-176.873,41.292
			c-109.455,17.321-134.044,60.732-162.517,110.999c-13.347,23.562-27.148,47.929-50.602,72.241
			C86.737,369.901,37.78,388.218,0,398.708v43.367C48.693,423.443,131.493,385.929,177.005,332.364z"/>
		<path style="opacity:0.99;fill:#63C29D;" d="M550.99,497.055c91.33-14.126,163.468-25.284,230.381-64.337
			c7.247-4.229,14.584-8.553,22.029-12.939c110.758-65.259,248.598-146.488,475.465-143.28c0.674,0.008,51.545,0.664,129.941,6.403
			v-82.389c-25.828-3.458-76.33-5.109-147.396,15.945c-52.136,15.445-124.386,22.253-194.257,28.836
			c-60.017,5.654-122.075,11.502-172.496,22.775c-51.503,11.518-99.779,51.754-142.372,87.253
			c-22.564,18.807-43.877,36.57-62.284,46.836c-31.41,17.518-65.155,25.884-139.093,44.213
			c-48.422,12.004-114.737,28.444-208.646,54.57c-115.882,32.237-196.511,77.816-248.757,116.121h60.885
			c41.685-26.663,94.762-52.555,161.071-71.564C406.456,519.411,483.242,507.534,550.99,497.055z"/>
		<path style="opacity:0.99;fill:#63C29D;" d="M952.23,35.031c48.875-4.445,80.268-19.561,109.498-35.031H850.557
			C879.729,26.614,917.372,38.201,952.23,35.031z"/>
		<path style="opacity:0.99;fill:#63C29D;" d="M44.171,111.628c35.789-13.727,59.433-22.795,146.819-47.05
			C238.009,51.529,272.324,30.22,294.713,0H215.87C187.662,21.263,149.4,41.052,99.386,60.62C62.092,75.213,28.826,85.615,0,93.023
			v35.063c2.509-0.85,5.03-1.728,7.573-2.661C22.101,120.093,33.825,115.596,44.171,111.628z"/>
		<path style="opacity:0.99;fill:#63C29D;" d="M413.302,430.326c56.63-12.971,90.812-20.8,148.384-62.217
			c46.09-33.155,62.035-63.695,76.104-90.641c11.432-21.893,22.232-42.577,46.979-60.268c2.162-2.021,15.875-14.083,44.041-23.175
			c27.437-8.857,74.625-16.494,143.635-2.582c118.176,23.827,256.479,5.426,369.955-49.23
			c51.252-24.684,112.385-10.151,114.964-9.521c19.332,4.614,36.476,7.207,51.442,8.463V93.785
			c-20.156,5.552-43.36,7.668-69.339-0.285c-52.963-16.219-104.356,0.786-104.87,0.961l-0.137,0.039
			c-17.388,4.086-51.316,16.047-87.237,28.71c-38.155,13.45-81.399,28.695-112.921,37.363
			c-43.109,11.853-70.365,14.362-117.908-2.099c-60.571-20.973-142.597-40.325-240.062-3.511
			c-97.831,36.956-134.762,79.946-173.86,125.461c-23.171,26.973-47.131,54.863-84.893,82.853
			c-38.119,28.255-85.575,46.342-145.657,69.241c-19.303,7.356-39.262,14.964-61.092,23.701
			C101.303,500.057,17.069,582.648,1.296,598.761L0,597.491v19.571h23.984c40.771-37.986,131.1-110.603,263.019-152.821
			C341.828,446.696,381.459,437.619,413.302,430.326z"/>
		<path style="opacity:0.99;fill:#63C29D;" d="M210.977,0H66.818c-7.646,3.284-15.629,6.562-23.99,9.841
			C27.848,15.715,13.566,20.855,0,25.363v64.565c28.537-7.366,61.434-17.68,98.292-32.102C147.438,38.599,184.052,19.623,210.977,0z
			"/>
		<path style="opacity:0.99;fill:#63C29D;" d="M541.17,542.912c30.828-3.245,57.451-6.049,80.637-10.274
			c144.703-26.388,215.775-51.722,304.188-108.426c49.378-31.669,112.407-55.382,187.337-70.48
			c53.731-10.826,114.121-17.298,179.491-19.233c0.708-0.004,49.806-0.43,115.983,5.625v-54.214
			c-78.416-5.747-129.305-6.404-129.98-6.411c-225.997-3.201-363.468,77.797-473.903,142.865
			c-7.448,4.389-14.788,8.714-22.04,12.946c-67.404,39.338-139.79,50.535-231.434,64.71
			c-67.66,10.466-144.349,22.327-235.161,48.362c-63.918,18.323-115.465,43.058-156.31,68.681h73.487
			c7.582-3.734,15.269-7.308,23.084-10.676C359.458,562.043,460.213,551.436,541.17,542.912z"/>
		<path style="opacity:0.99;fill:#63C29D;" d="M59.125,0H0v22.205c13.232-4.415,27.152-9.44,41.732-15.157
			C47.725,4.698,53.506,2.35,59.125,0z"/>
		<path style="opacity:0.99;fill:#63C29D;" d="M209.716,453.435c21.854-8.746,41.824-16.358,61.139-23.719
			c59.866-22.817,107.152-40.84,144.938-68.849c37.492-27.789,61.341-55.551,84.404-82.397
			c39.355-45.813,76.528-89.085,175.075-126.312c46.094-17.411,94.341-23.918,143.413-19.335
			c39.563,3.693,72.09,13.607,98.689,22.818c46.793,16.197,73.645,13.723,116.133,2.04c31.419-8.641,74.611-23.866,112.719-37.301
			c35.955-12.675,69.918-24.647,87.482-28.784c2.244-0.736,53.684-17.179,106.638-0.965c25.87,7.922,48.515,5.797,68.46,0.133
			V21.942c-14.343,6.475-30.418,12.024-47.775,15.292c-23.108,4.351-45.305,3.395-78.909,1.948
			c-17.483-0.752-37.299-1.605-61.878-1.928c-38.034-0.527-91.051,17.802-142.338,35.5c-46.297,15.977-90.026,31.066-121.979,32.551
			c-8.079,0.376-15.926,0.563-23.514,0.563c-104.52,0-162.312-35.552-172.028-105.869h-42.739
			c-0.038,10.419-0.999,19.858-3.07,28.015c-16.46,64.812-89.451,110.454-152.272,131.558l-0.558,0.188
			c-50.624,17.006-127.129,42.705-175.464,84.932c-15.812,13.813-31.842,34.258-48.812,55.901
			c-35.192,44.883-78.99,100.739-145.803,129.617C96.605,471.301,28.875,520.592,0,543.53v52.269
			C17.815,577.73,101.455,496.765,209.716,453.435z"/>
		<path style="opacity:0.99;fill:#63C29D;" d="M903.291,502.489c168.604-81.644,332.965-113.646,402.304-115.236
			c0.642-0.028,44.678-1.847,103.212,1.047v-45.167c-66.141-6.067-115.235-5.646-115.923-5.636
			c-157.303,4.659-280.206,34.684-365.27,89.24c-88.796,56.949-160.12,82.382-305.269,108.852
			c-23.298,4.247-49.974,7.055-80.861,10.307c-80.756,8.502-181.259,19.083-283.747,63.247c-5.958,2.567-11.775,5.211-17.456,7.92
			h102.242c74.82-22.514,146.148-28.92,221.334-35.659C670.319,571.861,780.405,561.994,903.291,502.489z"/>
		<path style="opacity:0.99;fill:#63C29D;" d="M341.458,498.051c93.95-26.137,160.29-42.583,208.729-54.592
			c73.67-18.263,107.294-26.599,138.354-43.921c18.162-10.129,39.371-27.806,61.824-46.52
			c42.854-35.718,91.427-76.201,143.639-87.877c50.604-11.315,112.76-17.171,172.869-22.835
			c69.728-6.569,141.83-13.362,193.687-28.726c71.103-21.064,121.903-19.552,148.247-16.082v-47.25
			c-15.56-1.296-33.396-3.995-53.557-8.808c-0.623-0.153-60.652-14.38-108.943,8.882c-115.18,55.475-255.605,74.145-375.641,49.943
			c-127.918-25.789-179.365,23.124-179.868,23.621l-0.257,0.253l-0.294,0.208c-23.172,16.479-33.046,35.39-44.479,57.286
			c-14.534,27.832-31.004,59.379-78.827,93.781c-59.047,42.478-93.896,50.459-151.63,63.683
			c-31.679,7.256-71.103,16.285-125.566,33.715C166.69,512.194,80.363,578.299,37.304,617.062h51.438
			c6.988-5.189,14.501-10.525,22.562-15.957C176.782,556.993,254.217,522.321,341.458,498.051z"/>
		<path style="opacity:0.99;fill:#63C29D;" d="M335.107,298.742c17.061-21.759,33.176-42.311,49.199-56.311
			c48.787-42.62,125.633-68.434,176.483-85.516l0.558-0.188c62.07-20.852,134.156-65.809,150.319-129.452
			c2.017-7.941,2.958-17.132,3.01-27.276h-55.7c0.213,38.126-11.208,66.612-34.96,89.054
			c-35.311,33.363-96.331,52.342-177.09,70.572c-153.86,34.735-178.184,98.293-191.25,132.438c-1.191,3.115-2.317,6.057-3.439,8.729
			c-14.968,35.653-41.459,75.62-133.157,126.225C68.641,454.851,25.809,478.143,0,492.115v47.59
			c29.982-23.619,97.1-71.887,190.477-112.249C256.589,398.881,300.125,343.356,335.107,298.742z"/>
		<path style="opacity:0.99;fill:#63C29D;" d="M115.28,265.625c20.56-23.162,43.862-49.415,72.814-71.307
			c33.23-25.128,68.959-40.778,109.227-47.845c16.458-2.888,32.931-5.469,48.862-7.965c59.798-9.371,116.28-18.222,155.12-40.812
			C537.671,76.543,555.38,45.145,555.971,0h-29.342c-0.018,1.377-0.036,2.754-0.066,4.132c-0.525,23.951-6.112,43.553-17.079,59.925
			c-9.843,14.692-23.861,26.469-42.854,36.001c-35.229,17.679-82.029,24.822-131.577,32.386
			c-21.126,3.225-42.971,6.559-64.212,10.799c-120.639,24.081-157.458,56.953-218.459,111.415
			C34.818,270.337,16.79,280.864,0,287.919v58.974c13.625-4.15,29.108-10.107,46.148-18.657
			C70.588,315.975,91.299,292.643,115.28,265.625z"/>
		<path style="opacity:0.99;fill:#63C29D;" d="M41.174,203.944c52.781-33.34,112.604-71.128,239.154-78.536
			c80.79-4.73,133.781-18.199,166.767-42.389C472.777,64.186,486.914,38.965,493.222,0h-43.216
			c-0.139,0.898-0.258,1.788-0.402,2.688c-3.936,24.617-12.343,44.283-25.704,60.122c-11.927,14.139-27.548,24.866-47.758,32.798
			c-37.368,14.665-85.519,17.305-132.084,19.857c-5.84,0.32-11.687,0.641-17.524,0.983c-81.499,4.795-167.327,45.083-208.574,64.444
			c-6.186,2.903-11.528,5.411-15.652,7.233c-0.765,0.338-1.536,0.665-2.307,0.994v39.249c3.646-1.85,7.366-3.845,11.171-6.033
			C21.102,216.624,30.852,210.465,41.174,203.944z"/>
		<path style="opacity:0.99;fill:#63C29D;" d="M16.685,178.178c41.416-19.441,127.598-59.895,209.673-64.723
			c5.841-0.344,11.692-0.665,17.536-0.985c46.328-2.539,94.233-5.166,131.152-19.654c41.572-16.314,64.322-45.104,71.595-90.6
			c0.119-0.742,0.217-1.476,0.332-2.216h-64.926c-1.025,1.835-2.079,3.648-3.176,5.428c-39.174,63.565-118.013,80.492-201.48,98.412
			c-16.657,3.576-33.883,7.274-50.872,11.368c-28.237,6.805-57.461,18.337-80.942,27.603c-14.104,5.566-26.285,10.373-34.363,12.558
			c-3.808,1.03-7.539,2.012-11.213,2.949v27.537c0.363-0.158,0.731-0.312,1.094-0.472C5.188,183.574,10.515,181.073,16.685,178.178z
			"/>
		<path style="opacity:0.99;fill:#63C29D;" d="M138.729,184.527c34.326-19.282,74.89-32.922,131.522-44.227
			c21.309-4.254,43.188-7.594,64.348-10.823c49.306-7.526,95.878-14.635,130.684-32.102c38.791-19.467,57.311-49.117,58.279-93.311
			c0.029-1.355,0.047-2.71,0.064-4.065h-27.358c-11.8,74.215-54.498,118.961-215.765,128.402
			c-125.778,7.363-185.254,44.933-237.728,78.079c-10.35,6.537-20.125,12.712-30.109,18.455c-4.323,2.486-8.544,4.736-12.667,6.793
			v52.941c16.182-6.937,33.498-17.177,50.383-32.252C79.987,225.988,105.555,203.162,138.729,184.527z"/>
		<path style="opacity:0.99;fill:#63C29D;" d="M249.472,299.632c1.103-2.628,2.221-5.548,3.403-8.64
			c6.88-17.977,16.301-42.597,43.627-67.402c32.185-29.216,82.573-51.721,149.765-66.89c94.994-21.445,145.895-41.675,175.69-69.827
			C645.047,65.056,656.164,37.266,655.97,0h-36.411c-2.027,25.446-9.226,48.036-21.604,67.565
			c-21.846,34.467-54.444,50.343-71.931,56.739c-42.854,15.672-191.317,48.578-192.812,48.909
			c-75.189,17.852-95.821,58.749-117.664,102.048c-9.996,19.813-20.331,40.301-36.257,59.046
			C133.032,388.751,48.817,426.684,0,445.283v43.421c25.939-14.048,68.118-36.991,117.631-64.313
			C208.526,374.229,234.713,334.785,249.472,299.632z"/>
		<path style="opacity:0.99;fill:#63C29D;" d="M44.475,140.021c23.568-9.301,52.899-20.876,81.341-27.729
			c17.026-4.104,34.27-7.806,50.946-11.386c82.823-17.781,161.054-34.577,199.556-97.052c0.778-1.263,1.522-2.558,2.265-3.854
			h-80.131c-22.728,31.709-58.002,53.966-106.658,67.469c-87.249,24.217-110.84,33.265-146.548,46.961
			c-10.354,3.971-22.091,8.472-36.639,13.812c-2.891,1.061-5.76,2.064-8.606,3.02v23.949c3.426-0.877,6.886-1.78,10.43-2.739
			C18.346,150.331,30.454,145.553,44.475,140.021z"/>
		<path style="opacity:0.99;fill:#63C29D;" d="M112.714,338.65c23.189-24.04,36.896-48.237,50.15-71.638
			c28.855-50.942,53.774-94.937,164.658-112.483c74.777-11.834,135.226-22.371,176.095-41.058
			c39.761-18.18,62.63-44.485,76.469-87.959c2.448-7.69,3.984-16.271,4.768-25.513h-25.909
			c-1.489,108.416-99.743,123.835-212.296,141.472c-15.918,2.495-32.378,5.074-48.809,7.957
			c-89.321,15.675-137.664,70.137-180.316,118.188c-24.187,27.248-45.075,50.78-70.029,63.3
			c-17.557,8.809-33.502,14.9-47.494,19.107v45.578C37.308,385.186,85.217,367.156,112.714,338.65z"/>
		<path style="opacity:0.99;fill:#63C29D;" d="M823.606,82.979c31.701,15.428,76.176,21.933,132.182,19.331
			c31.521-1.465,75.052-16.486,121.14-32.391c50.836-17.542,103.38-35.674,141.789-35.674c0.525,0,1.047,0.003,1.566,0.01
			c24.624,0.323,44.464,1.177,61.969,1.931c33.395,1.438,55.456,2.387,78.225-1.898c17.607-3.314,33.877-9.013,48.33-15.635V0
			h-340.684c-29.619,15.788-63.414,33.271-115.62,38.02c-4.036,0.367-8.078,0.55-12.104,0.55c-29.367,0-58.145-9.688-82.151-27.852
			c-4.4-3.329-8.577-6.911-12.538-10.718h-82.291C768.843,38.263,789.062,66.166,823.606,82.979z"/>
		<path style="opacity:0.99;fill:#63C29D;" d="M1408.807,617.062v-33.345c-44.576,8.524-93.595,20.449-143.511,33.345H1408.807z"/>
		<path style="opacity:0.99;fill:#63C29D;" d="M1120.038,572.56c-59.751,18.954-108.147,33.39-149.102,44.503h282.409
			c54.021-14.065,107.321-27.217,155.461-36.398v-69.593c-41.859,3.694-71.017,8.702-71.574,8.799
			C1318.344,522.557,1212.1,543.356,1120.038,572.56z"/>
		<path style="opacity:0.99;fill:#63C29D;" d="M811.828,589.719c68.176-14.205,156.008-42.607,240.947-70.074
			c104.955-33.939,204.088-65.996,267.135-72.664c0.295-0.044,24.078-3.409,88.896-5.978v-49.7
			c-58.449-2.896-102.451-1.08-103.112-1.051c-69.108,1.585-232.922,33.502-401.097,114.937
			c-123.378,59.745-233.742,69.637-340.473,79.203c-71.719,6.429-139.92,12.553-210.904,32.671h256.568
			c4.453-0.438,8.895-0.871,13.326-1.304C682.055,610.008,743,604.061,811.828,589.719z"/>
		<path style="opacity:0.99;fill:#63C29D;" d="M1336.764,516.907c0.537-0.094,29.903-5.137,72.043-8.844v-64.06
			c-64.506,2.559-88.186,5.904-88.521,5.953c-62.796,6.643-161.785,38.652-266.586,72.542
			c-85.016,27.491-172.926,55.919-241.26,70.157c-62.33,12.988-118.156,19.1-171.881,24.406h318.799
			c43.152-11.456,94.723-26.727,159.774-47.362C1211.367,540.441,1317.871,519.594,1336.764,516.907z"/>
	</g>
	<path style="fill:none;stroke:#FFFFFF;stroke-width:3;stroke-miterlimit:10;" d="M-2575.492,0.43
		c31.315-5.101,74.787-15.477,128.339-36.428c140.727-55.061,156.812-107.926,145.941-189.534"/>
	<path style="fill:none;stroke:#FFFFFF;stroke-width:3;stroke-miterlimit:10;" d="M-2585.239-40.085
		c26.573-5.181,60.795-14.29,101.523-30.227c114.743-44.892,136.979-88.157,132.705-150.689"/>
	<path style="fill:none;stroke:#FFFFFF;stroke-width:3;stroke-miterlimit:10;" d="M-2593.749-75.45
		c21.273-4.341,48.162-11.691,79.863-24.094c89.72-35.104,110.384-68.995,109.023-116.559"/>
	<path style="fill:none;stroke:#FFFFFF;stroke-width:3;stroke-miterlimit:10;" d="M-2603.369-115.433
		c17.119-3.511,38.721-9.432,64.165-19.388c61.193-23.94,82.557-47.18,87.037-76.979"/>
	<path style="fill:none;stroke:#FFFFFF;stroke-width:3;stroke-miterlimit:10;" d="M-3934.663-149.335
		c14.81-3.68,32.156-9.143,52.109-16.657c40.588-15.281,50.802-25.128,58.399-41.363"/>
	<path style="fill:none;stroke:#FFFFFF;stroke-width:3;stroke-miterlimit:10;" d="M-2166.345-237.804"/>
	<path style="fill:none;stroke:#FFFFFF;stroke-width:3;stroke-miterlimit:10;" d="M-2228.215-232.173"/>
	<path style="fill:none;stroke:#FFFFFF;stroke-width:3;stroke-miterlimit:10;" d="M-4322.038,1505.495
		c-27.21-10.609-85.214-27.167-169.363-19.511c-72.395,6.585-95.858,30.552-103.423,44.326"/>
	<path style="fill:none;stroke:#FFFFFF;stroke-width:3;stroke-miterlimit:10;" d="M-4156.093,1490.396
		c-21.245-25.057-96.401-92.836-277.848-76.329c-166.604,15.157-240.414,96.491-261.663,125.413"/>
	<path style="fill:none;stroke:#FFFFFF;stroke-width:3;stroke-miterlimit:10;" d="M-4755.97,1500.057
		c23.588-31.465,125.466-149.124,342.557-168.871c271.652-24.717,347.756,112.104,363.374,149.562"/>
	<path style="fill:none;stroke:#FFFFFF;stroke-width:3;stroke-miterlimit:10;" d="M-4770.677,1438.936
		c27.963-29.24,155.709-151.146,357.494-169.503c344.401-31.331,413.492,160.437,424.942,205.695"/>
	<path style="fill:none;stroke:#FFFFFF;stroke-width:3;stroke-miterlimit:10;" d="M-4781.929,1392.173
		c29.387-29.509,170.19-156.483,439.11-180.948c0,0,394.637-46.695,420.238,257.928"/>
	<path style="fill:none;stroke:#FFFFFF;stroke-width:3;stroke-miterlimit:10;" d="M-4791.183,1353.707
		c31.846-30.595,191.18-171.288,450.535-194.883c0,0,255.185-24.272,379.268,119.369c69.265,80.18,78.875,160.192,80.052,187.206"/>
	<path style="fill:none;stroke:#FFFFFF;stroke-width:3;stroke-miterlimit:10;" d="M-4799.86,1317.652
		c150.708-121.546,312.36-184.318,438.69-195.81c0,0,463.743-66.205,515.08,340.351"/>
	<path style="fill:none;stroke:#FFFFFF;stroke-width:3;stroke-miterlimit:10;" d="M-4807.353,1286.511
		c33.934-33.314,212.136-196.219,474.638-220.102c288.959-26.288,503.954,144.942,520.568,392.695"/>
	<path style="fill:none;stroke:#FFFFFF;stroke-width:3;stroke-miterlimit:10;" d="M-4815.397,1253.075
		c33.562-35.756,211.737-211.022,501.949-237.423c508.822-46.29,560.983,368.839,566.125,437.556"/>
	<path style="fill:none;stroke:#FFFFFF;stroke-width:3;stroke-miterlimit:10;" d="M-4822.611,1223.098
		c35.391-38.606,230.375-238.47,494.602-262.511c363.254-33.046,553.715,187.061,588.181,225.785
		c50.334,56.547,125,148.823,138.453,166.57c11.8,15.562,40.054,57.604,75.465,80.125"/>
	<path style="fill:none;stroke:#FFFFFF;stroke-width:3;stroke-miterlimit:10;" d="M-4829.118,1196.055
		c34.743-44.229,217.389-257.582,528.072-285.848c229.883-20.912,403.463,90.185,459.808,122.057
		c59.114,33.441,152.427,96.404,276.731,37.582"/>
	<path style="fill:none;stroke:#FFFFFF;stroke-width:3;stroke-miterlimit:10;" d="M-4838.425,1157.372
		c30.325-40.03,197.943-246.116,468.432-294.012c227.833-40.343,390.424,61.682,484.599,84.764
		c69.57,17.049,141.028,43.894,275.406-67.299"/>
	<path style="fill:none;stroke:#FFFFFF;stroke-width:3;stroke-miterlimit:10;" d="M-4847.491,1119.7
		c32.724-49.638,203.925-285.248,522.646-314.242c196.842-17.908,342.84,80.247,490.132,66.848
		c79.103-7.195,116.229-65.518,201.069-89.796"/>
	<path style="fill:none;stroke:#FFFFFF;stroke-width:3;stroke-miterlimit:10;" d="M-4860.724,1064.698
		c27.621-44.126,178.285-260.903,498.753-308.309c232.399-34.38,330.91,18.952,461.682,7.057
		c101.999-9.281,159.086-71.854,242.26-82.293"/>
	<path style="fill:none;stroke:#FFFFFF;stroke-width:3;stroke-miterlimit:10;" d="M-4875.172,1004.656
		c26.755-46.841,153.782-239.828,453.268-286.896c281.045-44.167,346.749-14.592,477.922-42.349
		c127.732-27.03,188.736-59.771,268.108-68.41"/>
	<path style="fill:none;stroke:#FFFFFF;stroke-width:3;stroke-miterlimit:10;" d="M-4889.861,943.607
		c29.17-51.034,160.83-246.506,479.912-275.535c239.521-21.787,246.482,1.312,556.221-96.942
		c91.363-28.981,141.507-37.792,159.526-40.294"/>
	<path style="fill:none;stroke:#FFFFFF;stroke-width:3;stroke-miterlimit:10;" d="M-4903.076,888.689
		c26.142-44.494,121.92-185.01,312.762-233.594c165.942-42.246,275.091-31.81,429.135-63.908
		c150.404-31.339,340.039-119.193,450.151-130.289"/>
	<path style="fill:none;stroke:#FFFFFF;stroke-width:3;stroke-miterlimit:10;" d="M-4916.484,832.961
		c22.449-31.512,120.709-159.496,268.1-208.752c190.83-63.771,364.467-16.478,579.016-120.37
		c177.657-86.026,286.24-101.848,343.969-102.675"/>
	<path style="fill:none;stroke:#FFFFFF;stroke-width:3;stroke-miterlimit:10;" d="M-4927.884,785.585
		c19.035-31.118,83.455-122.55,211.715-177.82c141.398-60.931,280.015-58.173,364.933-73.651
		c139.185-25.382,212.821-49.693,304.729-108.639c110.814-71.072,212.038-75.028,308.408-77.079"/>
	<path style="fill:none;stroke:#FFFFFF;stroke-width:3;stroke-miterlimit:10;" d="M-4940.91,731.453
		c20.572-29.716,102.723-132.697,283.472-184.514c212.622-60.955,348.937-44.458,466.252-112.926
		c116.171-67.803,207.902-149.245,439.129-143.631"/>
	<path style="fill:none;stroke:#FFFFFF;stroke-width:3;stroke-miterlimit:10;" d="M-4953.088,680.833
		c21.05-24.476,116.854-124.368,321.636-181.337c235.18-65.428,295.405-69.644,347.411-98.648
		c52.004-29.001,125.081-116.357,205.06-134.242c109.685-24.525,207.702-7.907,309.15-50.097"/>
	<path style="fill:none;stroke:#FFFFFF;stroke-width:9;stroke-miterlimit:10;" d="M-4963.566,637.287
		c24.073-24.924,122.054-118.651,278.627-168.76c152.547-48.818,185.084-31.404,275.939-96.765
		c84.613-60.868,69.279-112.646,123.326-151.081c0,0,52.171-51.387,183.916-24.826c120.65,24.327,218.429,40.636,315.373-48.132"/>
	<path style="opacity:0.99;fill:none;stroke:#FFFFFF;stroke-width:3;stroke-miterlimit:10;" d="M-3796.572,105.379
		c-34.353,8.104-81.653,36.923-142.836,53.748c-44.933,12.354-71.499,13.69-117.021-2.069c-46.437-16.079-135.44-43.4-241.082-3.497
		c-156.187,59.001-157.788,133.407-259.116,208.512c-49.812,36.923-114.676,56.039-206.413,92.755
		c-109.051,43.646-192.232,124.685-210.05,142.884"/>
	<path style="fill:none;stroke:#FFFFFF;stroke-width:3;stroke-miterlimit:10;" d="M-4984.416,550.644
		c20.569-17.265,93.295-74.747,202.174-121.811c98.698-42.659,145.487-142.693,194.223-185.271
		c48.735-42.575,124.623-67.974,176.531-85.411s133.567-60.697,151.296-130.505c17.289-68.092-43.017-225.111-76.935-299.157"/>
	<path style="fill:none;stroke:#FFFFFF;stroke-width:3;stroke-miterlimit:10;" d="M-3810.361,48.079
		c-80.715,0.617-139.463,52.586-207.095,55.729c-103.854,4.823-185.683-20.291-194.644-109.438
		c-9.338-92.923-60.791-243.196-70.461-270.844"/>
	<path style="fill:none;stroke:#FFFFFF;stroke-width:3;stroke-miterlimit:10;" d="M-3829.471-31.35
		c-65.5,10.249-97.373,59.316-191.475,67.875c-63.153,5.748-135.074-35.163-151.035-127.782
		c-13.142-76.266-41.006-166.139-48.887-190.832"/>
	<path style="fill:none;stroke:#FFFFFF;stroke-width:3;stroke-miterlimit:10;" d="M-3846.633-102.668
		c-11.107,1.611-41.103,7.486-116.053,28.861c-154.241,43.988-203.602-171.526-211.536-212.526"/>
	<path style="fill:none;stroke:#FFFFFF;stroke-width:3;stroke-miterlimit:10;" d="M-3864.015-174.914
		c-11.006,1.444-34.118,5.918-77.944,19.594c-124.928,38.978-163.382-111.859-168.836-136.781"/>
	<path style="fill:none;stroke:#FFFFFF;stroke-width:3;stroke-miterlimit:10;" d="M-3877.077-229.186
		c-41.773,8.601-42.246,18.789-90.526,23.18c-75.854,6.899-91.028-70.772-93.658-90.602"/>
	<path style="fill:none;stroke:#FFFFFF;stroke-width:3;stroke-miterlimit:10;" d="M-4006.109-301.626
		c4.249,17.454,24.201,56.123,117.835,25.894"/>
	<path style="fill:none;stroke:#FFFFFF;stroke-width:3;stroke-miterlimit:10;" d="M-4995.964,502.645
		c15.037-8.098,70.98-38.299,141.007-76.94c93.77-51.747,118.824-92.919,132.499-125.491
		c13.673-32.577,27.402-104.046,195.742-142.05c168.339-38.002,234.135-77.479,203.7-215.155
		c-26.207-118.526-63.307-191.221-73.122-209.149"/>
	<path style="fill:none;stroke:#FFFFFF;stroke-width:3;stroke-miterlimit:10;" d="M-5007.269,455.651
		c27.463-8.746,151.735-51.266,212.104-122.315c50.321-59.228,44.083-135.314,154.74-161.587c0,0,149.365-33.034,192.62-48.854
		c43.249-15.818,118.321-66.84,84.726-201.094c-29.748-118.867-57.353-171.975-64.849-185.052"/>
	<path style="fill:none;stroke:#FFFFFF;stroke-width:3;stroke-miterlimit:10;" d="M-5018.82,407.651
		c25.752-4.67,116.744-23.842,159.301-67.96c74.256-76.979,53.352-158.265,213.963-183.681
		c160.613-25.417,225.425-41.034,253.759-130.043c25.335-79.589-44.671-251.574-59.763-287.068"/>
	<path style="fill:none;stroke:#FFFFFF;stroke-width:3;stroke-miterlimit:10;" d="M-5030.876,357.549
		c15.066,0.39,52.515-1.947,104.385-27.973c68.387-34.309,110.141-156.947,250.76-181.625
		c140.621-24.674,274.76-25.77,258.568-173.693c-14.029-128.21-49.439-211.714-59.34-233.09"/>
	<path style="fill:none;stroke:#FFFFFF;stroke-width:3;stroke-miterlimit:10;" d="M-5044.66,300.266
		c17.695,0.733,71.811-1.267,122.729-46.728c61.98-55.336,99.85-87.95,219.164-111.767
		c119.312-23.818,251.896-18.22,254.517-137.673c2.538-115.842-40.814-232.409-52.131-260.757"/>
	<path style="fill:none;stroke:#FFFFFF;stroke-width:3;stroke-miterlimit:10;" d="M-5056.785,249.868
		c13.533,1.13,48.757,0.595,95.391-26.231c60.236-34.651,117.346-87.883,268.497-96.731
		c168.254-9.851,206.612-57.767,215.929-138.56c10.354-89.743-24.947-194.483-43.46-243.182"/>
	<path style="fill:none;stroke:#FFFFFF;stroke-width:3;stroke-miterlimit:10;" d="M-5066.274,210.436
		c17.474-1.966,59.202-8.014,94.661-23.681c31.492-13.913,130.687-66.27,224.745-71.803c100.762-5.927,204.503-5.062,221.677-112.5
		c16.768-104.885-5.948-192.789-24.673-254.608"/>
	<path style="fill:none;stroke:#FFFFFF;stroke-width:3;stroke-miterlimit:10;" d="M-5075.144,173.573
		c40.051-3.277,71.984-8.647,112.652-19.653c21.086-5.702,69.691-29.169,115.346-40.17
		c167.021-40.25,339.237-38.487,254.993-362.062"/>
	<path style="fill:none;stroke:#FFFFFF;stroke-width:3;stroke-miterlimit:10;" d="M-5081.586,146.793
		c16.084,0.427,62.969-0.357,116.363-19.959c63.718-23.391,70.172-29.41,183.302-60.811
		c149.416-41.467,152.302-159.714,122.403-308.206"/>
	<path style="fill:none;stroke:#FFFFFF;stroke-width:3;stroke-miterlimit:10;" d="M-5090.552,109.533
		c25.716-0.392,102.252-5.772,216.078-50.31c206.798-80.911,192.986-157.936,166.816-297.027"/>
	<path style="fill:none;stroke:#FFFFFF;stroke-width:3;stroke-miterlimit:10;" d="M-5104.029,53.521
		c35.218-3.627,94.596-14.333,172.996-45.077c173.529-68.048,179.879-133.185,161.505-240.617"/>
	<path style="fill:none;stroke:#FFFFFF;stroke-width:3;stroke-miterlimit:10;" d="M-5116.805,0.43
		c31.315-5.101,74.787-15.477,128.339-36.428c140.727-55.061,156.812-107.926,145.941-189.534"/>
	<path style="fill:none;stroke:#FFFFFF;stroke-width:3;stroke-miterlimit:10;" d="M-5126.552-40.085
		c26.573-5.181,60.795-14.29,101.523-30.227c114.743-44.892,136.979-88.157,132.705-150.689"/>
	<path style="fill:none;stroke:#FFFFFF;stroke-width:3;stroke-miterlimit:10;" d="M-5135.062-75.45
		c21.273-4.341,48.162-11.691,79.863-24.094c89.72-35.104,110.384-68.995,109.023-116.559"/>
	<path style="fill:none;stroke:#FFFFFF;stroke-width:3;stroke-miterlimit:10;" d="M-5144.682-115.433
		c17.119-3.511,38.721-9.432,64.165-19.388c61.193-23.94,82.557-47.18,87.037-76.979"/>
	<path style="fill:none;stroke:#FFFFFF;stroke-width:3;stroke-miterlimit:10;" d="M-4707.658-237.804"/>
	<path style="fill:none;stroke:#FFFFFF;stroke-width:3;stroke-miterlimit:10;" d="M-4769.528-232.173"/>
</g>
<g id="Hidder" style="display:none;">
	<path style="display:inline;fill:#F5F5F5;" d="M-4030.643-558.98v2360H-2141v-2360H-4030.643z M-2622,582.701h-1134V0h1134V582.701
		z"/>
</g>
<g id="Markers">
	<g>
		
			<image style="overflow:visible;opacity:0.4;" width="107" height="81" xlink:href="9793B6F1.png"  transform="matrix(1 0 0 1 -4084.1196 228.0195)">
		</image>
		<g>
			<polygon style="fill:#FFFFFF;" points="-4066.12,246.679 -3995.166,246.679 -3995.166,274.48 -4045.886,274.48 
				-4051.972,290.291 -4052.787,289.077 -4047.023,274.48 -4066.12,274.48 			"/>
		</g>
	</g>
	<g>
		<g>
			<path style="fill:#65C39E;" d="M-4054.037,263.192h-1.426v6.231h-3.43v-17.198h4.855c3.719,0,4.83,2.126,4.83,5.483
				S-4050.318,263.192-4054.037,263.192z M-4054.134,255.317h-1.328v4.783h1.328c1.449,0,1.498-1.305,1.498-2.392
				S-4052.685,255.317-4054.134,255.317z"/>
			<path style="fill:#65C39E;" d="M-4047.127,269.424v-17.198h3.43v14.106h4.493v3.092H-4047.127z"/>
			<path style="fill:#65C39E;" d="M-4029.348,269.424l-0.556-2.681h-3.961l-0.557,2.681h-3.574l4.42-17.198h3.382l4.421,17.198
				H-4029.348z M-4031.884,257.274l-1.328,6.377h2.656L-4031.884,257.274z"/>
			<path style="fill:#65C39E;" d="M-4015.651,268.386c-0.87,0.82-1.884,1.231-3.31,1.231c-1.859,0-2.994-0.772-3.768-1.739
				c-1.208-1.474-1.28-3.744-1.28-7.053c0-3.31,0.072-5.58,1.28-7.054c0.773-0.966,1.908-1.739,3.768-1.739
				c1.426,0,2.439,0.41,3.31,1.232c0.894,0.846,1.474,2.197,1.546,3.84h-3.43c-0.024-0.482-0.072-0.966-0.266-1.328
				c-0.193-0.41-0.531-0.652-1.16-0.652c-0.627,0-0.966,0.29-1.159,0.677c-0.411,0.797-0.459,2.946-0.459,5.024
				c0,2.076,0.048,4.227,0.459,5.023c0.193,0.387,0.532,0.677,1.159,0.677c0.629,0,0.967-0.266,1.16-0.677
				c0.193-0.361,0.241-0.846,0.266-1.328h3.43C-4014.177,266.163-4014.757,267.54-4015.651,268.386z"/>
			<path style="fill:#65C39E;" d="M-4011.083,269.424v-17.198h7.922v3.092h-4.492v3.889h3.864v3.092h-3.864v4.034h4.492v3.092
				H-4011.083z"/>
		</g>
	</g>
	<g>
		
			<image style="overflow:visible;opacity:0.2;" width="198" height="150" xlink:href="9793B6F3.png"  transform="matrix(1 0 0 1 -2960.0693 112.0195)">
		</image>
		<g>
			<polygon style="fill:#FFFFFF;" points="-2813.713,203.597 -2813.713,163.075 -2908.97,163.075 -2908.97,203.597 
				-2867.363,203.597 -2861.088,210.802 -2855.686,203.597 			"/>
		</g>
	</g>
	<g>
		<g>
			<g>
				<path style="fill:#A9BA75;" d="M-2890.586,186.309h-1.782v7.79h-4.288v-21.502h6.07c4.649,0,6.039,2.658,6.039,6.856
					C-2884.547,183.65-2885.937,186.309-2890.586,186.309z M-2890.708,176.463h-1.66v5.979h1.66c1.812,0,1.873-1.631,1.873-2.989
					C-2888.835,178.094-2888.896,176.463-2890.708,176.463z"/>
				<path style="fill:#A9BA75;" d="M-2881.947,194.099v-21.502h4.287v17.637h5.618v3.865H-2881.947z"/>
				<path style="fill:#A9BA75;" d="M-2859.719,194.099l-0.695-3.351h-4.952l-0.696,3.351h-4.468l5.525-21.502h4.229l5.527,21.502
					H-2859.719z M-2862.89,178.909l-1.661,7.973h3.321L-2862.89,178.909z"/>
				<path style="fill:#A9BA75;" d="M-2842.595,192.801c-1.087,1.026-2.354,1.54-4.138,1.54c-2.324,0-3.743-0.966-4.71-2.175
					c-1.511-1.842-1.601-4.681-1.601-8.817c0-4.138,0.09-6.977,1.601-8.818c0.967-1.208,2.386-2.175,4.71-2.175
					c1.783,0,3.051,0.513,4.138,1.541c1.117,1.057,1.843,2.747,1.934,4.801h-4.288c-0.031-0.604-0.091-1.208-0.332-1.661
					c-0.242-0.513-0.664-0.815-1.451-0.815c-0.783,0-1.207,0.363-1.449,0.847c-0.514,0.996-0.573,3.684-0.573,6.281
					c0,2.596,0.06,5.284,0.573,6.28c0.242,0.483,0.666,0.847,1.449,0.847c0.787,0,1.209-0.332,1.451-0.847
					c0.241-0.451,0.301-1.057,0.332-1.66h4.288C-2840.752,190.022-2841.478,191.744-2842.595,192.801z"/>
				<path style="fill:#A9BA75;" d="M-2836.884,194.099v-21.502h9.904v3.866h-5.616v4.861h4.831v3.865h-4.831v5.044h5.616v3.865
					H-2836.884z"/>
			</g>
		</g>
	</g>
	<g>
		<g>
			
				<image style="overflow:visible;opacity:0.2;" width="198" height="151" xlink:href="9793B6F6.png"  transform="matrix(1 0 0 1 -3254.2021 167.6211)">
			</image>
			<g>
				<polygon style="fill:#FFFFFF;" points="-3203.103,226.722 -3203.103,267.243 -3107.846,267.243 -3107.846,226.722 
					-3149.452,226.722 -3155.474,219.517 -3161.13,226.722 				"/>
			</g>
		</g>
		<g>
			<g>
				<g>
					<path style="fill:#A9BA75;" d="M-3184.719,250.215h-1.782v7.79h-4.288v-21.502h6.07c4.649,0,6.039,2.658,6.039,6.856
						C-3178.68,247.557-3180.069,250.215-3184.719,250.215z M-3184.841,240.369h-1.66v5.979h1.66c1.812,0,1.873-1.631,1.873-2.989
						C-3182.968,242-3183.029,240.369-3184.841,240.369z"/>
					<path style="fill:#A9BA75;" d="M-3176.08,258.005v-21.502h4.287v17.637h5.618v3.865H-3176.08z"/>
					<path style="fill:#A9BA75;" d="M-3153.852,258.005l-0.695-3.351h-4.952l-0.696,3.351h-4.468l5.525-21.502h4.229l5.527,21.502
						H-3153.852z M-3157.022,242.815l-1.661,7.973h3.321L-3157.022,242.815z"/>
					<path style="fill:#A9BA75;" d="M-3136.728,256.707c-1.087,1.026-2.354,1.54-4.138,1.54c-2.324,0-3.743-0.966-4.71-2.175
						c-1.511-1.842-1.601-4.681-1.601-8.817c0-4.138,0.09-6.977,1.601-8.818c0.967-1.208,2.386-2.175,4.71-2.175
						c1.783,0,3.051,0.513,4.138,1.541c1.117,1.057,1.843,2.747,1.934,4.801h-4.288c-0.031-0.604-0.091-1.208-0.332-1.661
						c-0.242-0.513-0.664-0.815-1.451-0.815c-0.783,0-1.207,0.363-1.449,0.847c-0.514,0.996-0.573,3.684-0.573,6.281
						c0,2.596,0.06,5.284,0.573,6.28c0.242,0.483,0.666,0.847,1.449,0.847c0.787,0,1.209-0.332,1.451-0.847
						c0.241-0.451,0.301-1.057,0.332-1.66h4.288C-3134.885,253.929-3135.61,255.65-3136.728,256.707z"/>
					<path style="fill:#A9BA75;" d="M-3131.017,258.005v-21.502h9.904v3.866h-5.616v4.861h4.831v3.865h-4.831v5.044h5.616v3.865
						H-3131.017z"/>
				</g>
			</g>
		</g>
	</g>
	<g>
		
			<image style="overflow:visible;opacity:0.2;" width="198" height="150" xlink:href="9793B6F7.png"  transform="matrix(1 0 0 1 1614.1484 102.1035)">
		</image>
		<g>
			<polygon style="fill:#FFFFFF;" points="1760.638,193.681 1760.638,153.159 1665.381,153.159 1665.381,193.681 1706.987,193.681 
				1713.263,200.886 1718.665,193.681 			"/>
		</g>
	</g>
	<g>
		<g>
			<g>
				<path style="fill:#A9BA75;" d="M1683.765,176.393h-1.782v7.79h-4.288v-21.502h6.07c4.649,0,6.039,2.658,6.039,6.856
					C1689.804,173.734,1688.414,176.393,1683.765,176.393z M1683.643,166.547h-1.66v5.979h1.66c1.812,0,1.873-1.631,1.873-2.989
					C1685.516,168.178,1685.454,166.547,1683.643,166.547z"/>
				<path style="fill:#A9BA75;" d="M1692.402,184.183v-21.502h4.288v17.637h5.618v3.865H1692.402z"/>
				<path style="fill:#A9BA75;" d="M1714.632,184.183l-0.696-3.351h-4.951l-0.696,3.351h-4.468l5.525-21.502h4.229l5.527,21.502
					H1714.632z M1711.461,168.993l-1.661,7.973h3.321L1711.461,168.993z"/>
				<path style="fill:#A9BA75;" d="M1731.756,182.885c-1.086,1.026-2.354,1.54-4.138,1.54c-2.324,0-3.743-0.966-4.71-2.175
					c-1.511-1.842-1.601-4.681-1.601-8.817c0-4.138,0.09-6.977,1.601-8.818c0.967-1.208,2.386-2.175,4.71-2.175
					c1.783,0,3.052,0.513,4.138,1.541c1.117,1.057,1.842,2.747,1.934,4.801h-4.288c-0.032-0.604-0.091-1.208-0.332-1.661
					c-0.242-0.513-0.664-0.815-1.451-0.815c-0.783,0-1.207,0.363-1.448,0.847c-0.515,0.996-0.574,3.684-0.574,6.281
					c0,2.596,0.06,5.284,0.574,6.28c0.241,0.483,0.665,0.847,1.448,0.847c0.787,0,1.209-0.332,1.451-0.847
					c0.241-0.451,0.3-1.057,0.332-1.66h4.288C1733.598,180.106,1732.873,181.828,1731.756,182.885z"/>
				<path style="fill:#A9BA75;" d="M1737.467,184.183v-21.502h9.904v3.866h-5.616v4.861h4.831v3.865h-4.831v5.044h5.616v3.865
					H1737.467z"/>
			</g>
		</g>
	</g>
	<g>
		<g>
			
				<image style="overflow:visible;opacity:0.2;" width="198" height="151" xlink:href="9793B6F2.png"  transform="matrix(1 0 0 1 1661.9102 -75.3604)">
			</image>
			<g>
				<polygon style="fill:#FFFFFF;" points="1713.01,-16.658 1713.01,23.863 1808.266,23.863 1808.266,-16.658 1766.66,-16.658 
					1760.639,-23.863 1754.982,-16.658 				"/>
			</g>
		</g>
		<g>
			<g>
				<g>
					<path style="fill:#A9BA75;" d="M1731.394,6.835h-1.782v7.79h-4.288V-6.877h6.07c4.649,0,6.039,2.658,6.039,6.856
						C1737.433,4.177,1736.043,6.835,1731.394,6.835z M1731.271-3.011h-1.66v5.979h1.66c1.812,0,1.873-1.631,1.873-2.989
						C1733.145-1.38,1733.083-3.011,1731.271-3.011z"/>
					<path style="fill:#A9BA75;" d="M1740.031,14.625V-6.877h4.287V10.76h5.619v3.865H1740.031z"/>
					<path style="fill:#A9BA75;" d="M1762.261,14.625l-0.695-3.351h-4.952l-0.695,3.351h-4.469l5.525-21.502h4.229l5.527,21.502
						H1762.261z M1759.09-0.564l-1.661,7.973h3.321L1759.09-0.564z"/>
					<path style="fill:#A9BA75;" d="M1779.385,13.327c-1.087,1.026-2.354,1.54-4.138,1.54c-2.324,0-3.743-0.966-4.71-2.175
						c-1.511-1.842-1.602-4.681-1.602-8.817c0-4.138,0.091-6.977,1.602-8.818c0.967-1.208,2.386-2.175,4.71-2.175
						c1.783,0,3.051,0.513,4.138,1.541c1.117,1.057,1.843,2.747,1.934,4.801h-4.288c-0.031-0.604-0.091-1.208-0.332-1.661
						c-0.242-0.513-0.664-0.815-1.451-0.815c-0.783,0-1.207,0.363-1.449,0.847c-0.515,0.996-0.573,3.684-0.573,6.281
						c0,2.596,0.059,5.284,0.573,6.28c0.242,0.483,0.666,0.847,1.449,0.847c0.787,0,1.209-0.332,1.451-0.847
						c0.241-0.451,0.301-1.057,0.332-1.66h4.288C1781.228,10.549,1780.502,12.271,1779.385,13.327z"/>
					<path style="fill:#A9BA75;" d="M1785.096,14.625V-6.877H1795v3.866h-5.616v4.861h4.831v3.865h-4.831v5.044H1795v3.865H1785.096
						z"/>
				</g>
			</g>
		</g>
	</g>
</g>
<g id="Layer_1" style="display:none;">
	<rect x="-599.963" y="432.596" style="display:inline;fill:#F4D345;" width="115.926" height="115.928"/>
	<rect x="-715.889" y="432.596" style="display:inline;fill:#B9CC66;" width="115.926" height="115.928"/>
	<rect x="-484.037" y="432.598" style="display:inline;fill:#E8794D;" width="115.926" height="115.926"/>
</g>
</svg>
