<?xml version="1.0" encoding="iso-8859-1"?>
<!-- Generator: Adobe Illustrator 15.1.0, SVG Export Plug-In . SVG Version: 6.00 Build 0)  -->
<!DOCTYPE svg PUBLIC "-//W3C//DTD SVG 1.1//EN" "http://www.w3.org/Graphics/SVG/1.1/DTD/svg11.dtd">
<svg version="1.1" xmlns="http://www.w3.org/2000/svg" xmlns:xlink="http://www.w3.org/1999/xlink" x="0px" y="0px" width="1134px"
	 height="582.701px" viewBox="0 0 1134 582.701" style="enable-background:new 0 0 1134 582.701;" xml:space="preserve">
<g id="Color_Flood">
</g>
<g id="Illustration_Line_Work">
	<g>
		<path style="opacity:0.99;fill:#63C29D;" d="M239.873,0h-94.746C77.933,44.937,25.648,99.988,0.104,129.275L0,129.185v57.838
			C39.703,135.444,121.446,46.23,239.873,0z"/>
		<path style="opacity:0.99;fill:#63C29D;" d="M69.081,0H13.486C8.823,4.764,4.33,9.553,0.097,14.286L0,14.199v56.729
			C14.646,52.812,37.891,26.744,69.081,0z"/>
		<path style="opacity:0.99;fill:#63C29D;" d="M141.546,0H72.165C39.151,28.061,14.885,55.527,0.132,73.954L0,73.849v52.513
			C25.758,97.003,76.534,43.954,141.546,0z"/>
		<path style="opacity:0.99;fill:#63C29D;" d="M595.497,15.228c-33.73-1.208-71.962-2.577-121.935-2.577
			C209.852,12.65,54.64,180.111,0.148,252.11L0,251.998v66.159c24.205-31.789,74.763-90.976,150.13-143.76
			c91.757-64.263,193.379-101.22,302.044-109.844c143.818-11.414,223.7-4.483,287.886,1.087c51.526,4.471,92.226,8.003,147.02,0.173
			c56.026-8.004,98.986-18.808,136.889-28.341c39.401-9.91,73.847-18.555,110.032-20.241V0H825.59
			C724.02,19.826,674.61,18.062,595.497,15.228z"/>
		<path style="opacity:0.99;fill:#63C29D;" d="M167.789,349.385c99.844-68.219,200.578-107.958,299.403-118.114
			c71.322-7.329,138.606,1.593,205.697,27.28c57.354,21.958,105.046,52.744,143.367,77.48c24.779,15.995,46.18,29.81,65.101,38.218
			c3.336,1.482,6.67,3.002,10.02,4.527c55.144,25.116,112.139,51.046,242.623-46.575V221.174
			c-32.775,8.708-59.645,24.255-85.687,39.355c-33.848,19.627-65.817,38.165-105.94,38.165c-62.765,0-120.202-26.878-181.012-55.334
			c-71.711-33.557-145.862-68.256-241.418-68.256c-268.784,0-464.942,213.648-518.66,279.129L0,453.18v41.607
			C28.828,463.336,87.816,404.026,167.789,349.385z"/>
		<path style="opacity:0.99;fill:#63C29D;" d="M890.548,380.596c-3.344-1.522-6.673-3.039-10.003-4.519
			c-19.062-8.472-40.523-22.325-65.373-38.365c-79.068-51.039-187.354-120.945-347.775-104.451
			C235.798,257.062,51.162,441.644,0.09,497.648L0,497.566v41.555c31.118-32.824,95.213-94.336,183.563-148.006
			C293.818,324.14,406.57,290.18,518.688,290.18c84.101,0,165.451,22.839,241.792,67.882
			c62.753,37.025,106.704,79.584,132.964,105.012c3.597,3.482,6.703,6.489,9.505,9.14c2.989,2.828,6.083,5.812,9.289,8.905
			c44.403,42.832,110.946,106.988,221.762,63.124V334.696c-57.179,42.559-105.501,64.998-147.448,68.494
			C947.338,406.463,918.466,393.312,890.548,380.596z"/>
		<path style="opacity:0.99;fill:#63C29D;" d="M887.362,67.794c-55.023,7.86-95.823,4.319-147.476-0.161
			c-64.111-5.562-143.9-12.487-287.555-1.085C202.731,86.357,52.958,251.279,0.149,321.267L0,321.154v66.229
			c27.294-33.908,84.173-97.456,167.195-154.777c103.025-71.132,214.092-111.226,330.117-119.166
			c128.92-8.817,207.26,12.383,276.379,31.093c46.214,12.509,86.125,23.312,133.586,23.312c49.654,0,90.884-18.167,130.756-35.736
			c32.328-14.245,63.017-27.758,95.967-30.637V19.229c-35.726,1.637-68.679,9.905-109.545,20.184
			C986.506,48.957,943.492,59.774,887.362,67.794z"/>
		<path style="opacity:0.99;fill:#63C29D;" d="M180.554,283.109c109.95-74.984,224.138-113.005,339.39-113.005
			c96.668,0,171.331,34.938,243.537,68.728c60.292,28.214,117.24,54.862,178.893,54.862c38.777,0,70.183-18.211,103.432-37.49
			c26.677-15.469,54.207-31.408,88.195-40.209V103.481c-32.566,2.885-63.049,16.309-95.16,30.458
			c-40.062,17.652-81.487,35.906-131.562,35.906c-47.727,0-87.757-10.836-134.108-23.382
			c-68.967-18.669-147.136-39.828-275.72-31.027C232.415,133.575,61.37,313.775,0.132,390.409L0,390.304v57.631
			C30.925,410.65,93.462,342.505,180.554,283.109z"/>
		<path style="opacity:0.99;fill:#63C29D;" d="M743.506,583.231C673.783,504.063,574.729,462.22,456.977,462.22
			c-151.404,0-284.657,65.599-370.194,121.012h81.951l-0.42-0.907c89.829-41.539,176.777-63.499,251.42-63.499c0.005,0-0.004,0,0,0
			c0.271-0.018,33.788-1.993,80.358,4.834c42.986,6.302,106.229,21.607,163.406,58.733l-0.545,0.839H743.506z"/>
		<path style="opacity:0.99;fill:#63C29D;" d="M836.01,583.231C768.064,466.87,649.983,407.868,485.03,407.868
			c-208.589,0-374.51,109.494-455.419,175.363h55.332l-0.545-0.838c85.71-55.735,219.924-122.174,372.58-122.174
			c59.846,0,115.357,10.907,164.993,32.42c47.949,20.78,89.543,51.039,123.626,89.933l-0.752,0.659H836.01z"/>
		<path style="opacity:0.99;fill:#63C29D;" d="M277.828,583.231h273.213c-65.028-19.363-120.34-19.337-120.942-19.321
			C379.598,563.91,328.393,570.422,277.828,583.231z"/>
		<path style="opacity:0.99;fill:#63C29D;" d="M1062.385,561.017c-70.202,0.004-117.361-45.496-151.535-78.459
			c-3.201-3.088-6.29-6.067-9.275-8.892c-2.81-2.658-5.92-5.67-9.521-9.156c-53.257-51.567-177.974-172.33-373.365-172.33
			c-262.697,0-463.365,191.172-518.61,249.764L0,541.869v29.688c31.903-29.824,96.707-85.864,180.938-135.084
			c105.762-61.803,207.68-93.139,302.922-93.139c108.54,0,205.56,28.415,288.364,84.457
			c58.193,39.385,108.358,91.501,149.101,154.898l-0.841,0.541H1134v-36.837C1107.76,556.691,1083.975,561.015,1062.385,561.017z"/>
		<path style="opacity:0.99;fill:#63C29D;" d="M10.692,0H0v11.416C3.424,7.626,6.996,3.809,10.692,0z"/>
		<path style="opacity:0.99;fill:#63C29D;" d="M661.09,583.231c-56.525-36.313-118.827-51.368-161.286-57.594
			c-46.369-6.798-79.675-4.837-80.006-4.814c-73.869,0.002-159.789,21.583-248.654,62.408H273.73l-0.251-0.968
			c51.977-13.506,104.669-20.354,156.615-20.354c0.582-0.03,58.011-0.048,124.699,20.365l-0.292,0.956H661.09z"/>
		<path style="opacity:0.99;fill:#63C29D;" d="M473.562,10.65c50.008,0,88.259,1.37,122.006,2.579
			C671.821,15.961,720.43,17.697,814.939,0H245.453C123.398,46.031,39.689,138.333,0.146,190.116L0,190.005v58.997
			C55.936,175.765,211.248,10.65,473.562,10.65z"/>
		<path style="opacity:0.99;fill:#63C29D;" d="M27.392,582.457c80.765-65.95,247.615-176.589,457.638-176.589
			c165.957,0,284.725,59.505,353.006,176.86l-0.864,0.503h82.12C849.298,474.568,717.007,345.335,483.86,345.335
			c-222.68,0-426.623,175.224-483.825,228.928L0,574.225v9.007h28.024L27.392,582.457z"/>
	</g>
</g>
<g id="Markers">
	<g>
		
			<image style="overflow:visible;opacity:0.4;" width="250" height="196" xlink:href="A2110DB4.png"  transform="matrix(1 0 0 1 807 145.7246)">
		</image>
		<g>
			<polygon style="fill:#FFFFFF;" points="858.111,196.879 1005.658,196.879 1005.658,255.324 1005.658,258.593 900.089,258.593 
				887.917,290.214 884.295,287.389 895.822,258.593 858.111,258.593 			"/>
		</g>
	</g>
	<g>
		<g>
			<path style="fill:#65C39E;" d="M885.587,232.526h-2.851v12.464h-6.859v-34.396h9.71c7.439,0,9.662,4.252,9.662,10.967
				S893.026,232.526,885.587,232.526z M885.394,216.777h-2.657v9.565h2.657c2.898,0,2.995-2.608,2.995-4.782
				S888.292,216.777,885.394,216.777z"/>
			<path style="fill:#65C39E;" d="M899.406,244.99v-34.396h6.859v28.213h8.986v6.184H899.406z"/>
			<path style="fill:#65C39E;" d="M934.965,244.99l-1.111-5.362h-7.923l-1.111,5.362h-7.149l8.841-34.396h6.763l8.841,34.396
				H934.965z M929.892,220.69l-2.656,12.754h5.313L929.892,220.69z"/>
			<path style="fill:#65C39E;" d="M962.359,242.913c-1.739,1.643-3.768,2.464-6.618,2.464c-3.72,0-5.99-1.546-7.536-3.479
				c-2.416-2.947-2.561-7.488-2.561-14.106s0.145-11.159,2.561-14.106c1.546-1.932,3.816-3.479,7.536-3.479
				c2.851,0,4.879,0.821,6.618,2.464c1.787,1.691,2.947,4.396,3.092,7.682h-6.859c-0.049-0.966-0.146-1.933-0.532-2.657
				c-0.386-0.821-1.062-1.305-2.318-1.305s-1.933,0.58-2.319,1.354c-0.821,1.594-0.918,5.894-0.918,10.048s0.097,8.454,0.918,10.049
				c0.387,0.772,1.063,1.353,2.319,1.353s1.933-0.531,2.318-1.353c0.387-0.725,0.483-1.691,0.532-2.657h6.859
				C965.307,238.469,964.146,241.222,962.359,242.913z"/>
			<path style="fill:#65C39E;" d="M971.493,244.99v-34.396h15.846v6.184h-8.986v7.778h7.729v6.184h-7.729v8.067h8.986v6.184H971.493
				z"/>
		</g>
	</g>
</g>
</svg>
