<?xml version="1.0" encoding="iso-8859-1"?>
<!-- Generator: Adobe Illustrator 16.2.0, SVG Export Plug-In . SVG Version: 6.00 Build 0)  -->
<!DOCTYPE svg PUBLIC "-//W3C//DTD SVG 1.1//EN" "http://www.w3.org/Graphics/SVG/1.1/DTD/svg11.dtd">
<svg version="1.1" id="Layer_1" xmlns="http://www.w3.org/2000/svg" xmlns:xlink="http://www.w3.org/1999/xlink" x="0px" y="0px"
	 width="792px" height="612px" viewBox="0 0 792 612" style="enable-background:new 0 0 792 612;" xml:space="preserve">
<rect x="248.535" y="261.142" style="fill:#333333;" width="161.5" height="90"/>
<g>
	<g>
		<g>
			<path style="fill:#7DB300;" d="M303.535,321.143v-20c0-2.762,2.238-5,5-5c2.76,0,5,2.238,5,5v20h5v-20c0-5.522-4.479-10-10-10
				c-5.523,0-10,4.478-10,10v20H303.535z"/>
			<path style="fill:#7DB300;" d="M288.535,321.143v-20c0-2.762,2.238-5,5-5c2.76,0,5,2.238,5,5v20h5v-20c0-5.522-4.477-10-10-10
				s-10,4.478-10,10v20H288.535z"/>
		</g>
		<path style="fill:#7DB300;" d="M335.035,291.142v20c0,2.762-2.238,5-5,5s-5-2.238-5-5v-20h-5v20c0,5.523,4.477,10,10,10
			s10-4.477,10-10v-20H335.035z"/>
	</g>
	<g>
		<path style="fill:#FFFFFF;" d="M350.035,291.142v20c0,2.762-2.238,5-5,5s-5-2.238-5-5v-20h-5v20c0,5.523,4.477,10,10,10
			s10-4.477,10-10v-20H350.035z"/>
		<polygon style="fill:#FFFFFF;" points="375.035,291.142 370.035,291.142 365.035,301.142 360.035,291.142 355.035,291.142 
			362.535,306.142 355.035,321.143 360.035,321.143 365.035,311.143 370.035,321.143 375.035,321.143 367.535,306.142 		"/>
	</g>
</g>
<rect x="248.535" y="259.519" style="fill:#171717;" width="161.5" height="90"/>
<g>
	<g>
		<path style="fill:#7DB300;" d="M303.535,321.143v-20c0-2.762,2.238-5,5-5c2.76,0,5,2.238,5,5v20h5v-20c0-5.522-4.479-10-10-10
			c-5.523,0-10,4.478-10,10v20H303.535z"/>
		<path style="fill:#7DB300;" d="M288.535,321.143v-20c0-2.762,2.238-5,5-5c2.76,0,5,2.238,5,5v20h5v-20c0-5.522-4.477-10-10-10
			s-10,4.478-10,10v20H288.535z"/>
	</g>
	<path style="fill:#7DB300;" d="M335.035,291.142v20c0,2.762-2.238,5-5,5s-5-2.238-5-5v-20h-5v20c0,5.523,4.477,10,10,10
		s10-4.477,10-10v-20H335.035z"/>
</g>
<g>
	<g>
		<path style="fill:#FFFFFF;" d="M350.035,291.142v20c0,2.762-2.238,5-5,5s-5-2.238-5-5v-20h-5v20c0,5.523,4.477,10,10,10
			s10-4.477,10-10v-20H350.035z"/>
	</g>
	<g>
		<polygon style="fill:#FFFFFF;" points="375.035,291.142 370.035,291.142 365.035,301.142 360.035,291.142 355.035,291.142 
			362.535,306.142 355.035,321.143 360.035,321.143 365.035,311.143 370.035,321.143 375.035,321.143 367.535,306.142 		"/>
	</g>
</g>
<path style="fill:#231F20;" d="M315.149,68.796c-8.458,0-16.024,3.731-21.206,9.615c-5.181-5.884-12.748-9.615-21.205-9.615
	c-15.617,0-28.273,12.659-28.273,28.273v56.548h14.137V97.069c0-7.809,6.329-14.137,14.137-14.137
	c7.803,0,14.137,6.328,14.137,14.137v56.548h14.137V97.069c0-7.809,6.328-14.137,14.137-14.137c7.803,0,14.137,6.328,14.137,14.137
	v56.548h14.137V97.069C343.422,81.455,330.76,68.796,315.149,68.796z"/>
<g>
	<path style="fill:#231F20;" d="M432.484,68.796v56.548c0,7.809-6.328,14.137-14.137,14.137s-14.137-6.328-14.137-14.137V68.796
		h-14.137v56.548c0,7.16,2.682,13.678,7.069,18.66c5.181,5.882,12.748,9.614,21.205,9.614c15.616,0,28.273-12.657,28.273-28.273
		V68.796H432.484z"/>
	<path style="fill:#231F20;" d="M375.937,139.481c-7.809,0-14.137-6.328-14.137-14.137V68.796h-14.137v56.548
		c0,15.617,12.657,28.273,28.273,28.273c6.426,0,12.333-2.168,17.08-5.779c-3.181-3.578-5.642-7.809-7.09-12.493
		C383.37,137.9,379.838,139.481,375.937,139.481z"/>
</g>
<g>
	<polygon style="fill:#231F20;" points="503.168,68.796 489.031,68.796 474.895,97.069 460.758,68.796 446.621,68.796 
		467.826,111.206 446.621,153.618 460.758,153.618 474.895,125.344 489.031,153.618 503.168,153.618 481.963,111.206 	"/>
</g>
<g>
	<path style="fill:#171717;" d="M421.882,273.617h1.749v2.53h-6.096v-2.53h1.603v-9.953h-1.603v-2.51h5.652l3.648,10.9l3.625-10.9
		h5.652v2.51h-1.603v9.953h1.603v2.53h-6.094v-2.53h1.75v-9.07l-3.816,11.601h-2.213l-3.858-11.515V273.617z"/>
	<path style="fill:#171717;" d="M443.753,273.617v2.53h-6.305v-2.53h1.624v-9.953h-1.624v-2.51h6.305v2.51h-1.752v9.953H443.753z"/>
	<path style="fill:#171717;" d="M446.691,263.643h-1.604v-2.489h6.601c2.36,0,4.007,0.336,5.503,1.792
		c1.413,1.372,2.151,3.332,2.151,5.778c0,2.721-1.056,4.912-2.995,6.304c-1.306,0.95-2.72,1.119-4.574,1.119h-6.686v-2.53h1.604
		V263.643z M449.643,263.643v9.974h1.961c3.204,0,4.723-1.584,4.723-4.913c0-3.312-1.644-5.061-4.763-5.061H449.643z"/>
	<g>
		<path style="fill:#171717;" d="M458.637,263.664v-2.51h6.304v2.51h-1.518l1.833,7.211l2.721-9.701h2.004l2.721,9.701l1.832-7.211
			h-1.494v-2.51h6.284v2.51h-1.877l-3.606,12.483h-2.363l-2.507-9.363l-2.51,9.363h-2.342l-3.605-12.483H458.637z"/>
		<path style="fill:#171717;" d="M491.747,271.404v4.743h-11.091v-2.53h1.604v-9.953h-1.604v-2.51h11.091v4.743h-2.612v-2.233
			h-3.965v3.583h3.965v2.53h-3.965v3.84h3.965v-2.213H491.747z"/>
		<path style="fill:#171717;" d="M493.083,271.572h2.551c0.295,1.326,1.284,2.109,2.572,2.109c1.158,0,1.96-0.783,1.96-1.899
			c0-1.33-1.033-1.792-2.909-2.382c-1.245-0.381-2.234-0.676-2.952-1.371c-0.762-0.738-1.16-1.709-1.16-2.807
			c0-2.486,1.939-4.364,4.194-4.364c0.973,0,1.816,0.296,2.679,0.864v-0.527h2.342v3.901h-2.678
			c-0.526-1.16-1.223-1.706-2.257-1.706c-0.929,0-1.561,0.631-1.561,1.539c0,1.115,0.845,1.475,2.405,1.98
			c3.162,1.011,4.746,2.322,4.746,4.853c0,1.265-0.531,2.466-1.499,3.352c-0.929,0.864-2.067,1.306-3.27,1.306
			c-0.946,0-1.898-0.294-2.912-0.926v0.589h-2.252V271.572z"/>
		<path style="fill:#171717;" d="M513.395,273.617v2.53h-6.306v-2.53h1.623v-9.953h-2.174v2.233h-2.192v-4.743h11.726v4.743h-2.214
			v-2.233h-2.214v9.953H513.395z"/>
	</g>
</g>
<g>
	<g>
		<path style="fill:#7DB400;" d="M429.816,281.58v16.375c0,2.262-1.833,4.096-4.093,4.096c-2.263,0-4.095-1.834-4.095-4.096V281.58
			h-4.094v16.375c0,4.521,3.664,8.188,8.188,8.188c4.521,0,8.187-3.666,8.187-8.188V281.58H429.816z"/>
		<polygon style="fill:#7DB400;" points="450.285,281.58 446.189,281.58 442.097,289.767 438.004,281.58 433.91,281.58 
			440.049,293.861 433.91,306.142 438.004,306.142 442.097,297.955 446.189,306.142 450.285,306.142 444.145,293.861 		"/>
	</g>
	<g>
		<g>
			<path style="fill:#939598;" d="M467.532,306.122c-0.4,0-0.751-0.05-1.052-0.149c-0.302-0.099-0.545-0.214-0.73-0.344
				l-0.278,0.356h-0.391l0.479-2.373h0.396c0.017,0.283,0.055,0.549,0.114,0.796c0.061,0.247,0.159,0.471,0.295,0.669
				c0.137,0.205,0.314,0.364,0.532,0.476c0.218,0.113,0.487,0.169,0.809,0.169c0.484,0,0.873-0.134,1.166-0.403
				c0.292-0.268,0.438-0.635,0.438-1.101c0-0.251-0.062-0.474-0.186-0.669c-0.123-0.195-0.309-0.347-0.556-0.454
				c-0.233-0.101-0.466-0.191-0.694-0.271c-0.229-0.08-0.454-0.174-0.676-0.281c-0.292-0.14-0.527-0.341-0.706-0.604
				c-0.18-0.262-0.269-0.557-0.269-0.886c0-0.312,0.069-0.601,0.208-0.864c0.138-0.264,0.321-0.491,0.549-0.684
				c0.222-0.186,0.489-0.334,0.803-0.444c0.314-0.11,0.626-0.166,0.936-0.166c0.29,0,0.564,0.034,0.822,0.103
				c0.26,0.068,0.519,0.197,0.779,0.386l0.269-0.332h0.391l-0.493,2.3h-0.396c-0.01-0.251-0.035-0.51-0.075-0.776
				c-0.041-0.267-0.11-0.488-0.208-0.664c-0.106-0.192-0.256-0.343-0.448-0.452c-0.191-0.108-0.446-0.163-0.765-0.163
				c-0.384,0-0.706,0.133-0.966,0.397c-0.26,0.266-0.39,0.581-0.39,0.945c0,0.241,0.048,0.445,0.144,0.613
				c0.096,0.167,0.245,0.303,0.446,0.407c0.215,0.11,0.439,0.206,0.675,0.286c0.236,0.079,0.446,0.163,0.632,0.251
				c0.374,0.176,0.665,0.388,0.875,0.635s0.314,0.55,0.314,0.908c0,0.345-0.075,0.667-0.225,0.967s-0.35,0.55-0.601,0.752
				c-0.264,0.215-0.559,0.379-0.887,0.493C468.287,306.065,467.926,306.122,467.532,306.122z"/>
			<path style="fill:#939598;" d="M475.128,302.066c0,0.346-0.108,0.643-0.324,0.89c-0.217,0.248-0.532,0.445-0.945,0.592
				c-0.303,0.111-0.608,0.201-0.918,0.27s-0.651,0.125-1.025,0.171c0,0.515,0.096,0.907,0.285,1.18
				c0.191,0.271,0.47,0.407,0.838,0.407c0.325,0,0.613-0.081,0.861-0.244c0.25-0.163,0.494-0.405,0.735-0.728l0.278,0.205
				c-0.261,0.397-0.586,0.715-0.977,0.952s-0.796,0.356-1.216,0.356c-0.576,0-1.017-0.161-1.321-0.483
				c-0.304-0.323-0.456-0.781-0.456-1.374c0-0.41,0.064-0.802,0.192-1.175c0.129-0.374,0.317-0.715,0.564-1.024
				c0.241-0.303,0.536-0.548,0.887-0.733c0.35-0.186,0.736-0.278,1.159-0.278c0.469,0,0.816,0.096,1.042,0.286
				C475.015,301.525,475.128,301.769,475.128,302.066z M474.229,301.946c0-0.127-0.018-0.227-0.054-0.3s-0.081-0.128-0.137-0.163
				c-0.059-0.039-0.12-0.063-0.186-0.073s-0.132-0.015-0.2-0.015c-0.391,0-0.751,0.215-1.082,0.644
				c-0.33,0.429-0.539,0.963-0.627,1.603c0.228-0.032,0.485-0.079,0.771-0.139c0.286-0.061,0.524-0.139,0.713-0.236
				c0.271-0.14,0.471-0.319,0.604-0.538C474.163,302.508,474.229,302.248,474.229,301.946z"/>
			<path style="fill:#939598;" d="M479.656,302.066c0,0.346-0.108,0.643-0.324,0.89c-0.217,0.248-0.532,0.445-0.945,0.592
				c-0.303,0.111-0.608,0.201-0.918,0.27s-0.651,0.125-1.025,0.171c0,0.515,0.096,0.907,0.285,1.18
				c0.191,0.271,0.47,0.407,0.838,0.407c0.325,0,0.613-0.081,0.861-0.244c0.25-0.163,0.494-0.405,0.735-0.728l0.278,0.205
				c-0.261,0.397-0.586,0.715-0.977,0.952s-0.796,0.356-1.216,0.356c-0.576,0-1.017-0.161-1.321-0.483
				c-0.304-0.323-0.456-0.781-0.456-1.374c0-0.41,0.064-0.802,0.192-1.175c0.129-0.374,0.317-0.715,0.564-1.024
				c0.241-0.303,0.536-0.548,0.887-0.733c0.35-0.186,0.736-0.278,1.159-0.278c0.469,0,0.816,0.096,1.042,0.286
				C479.543,301.525,479.656,301.769,479.656,302.066z M478.758,301.946c0-0.127-0.018-0.227-0.054-0.3s-0.081-0.128-0.137-0.163
				c-0.059-0.039-0.12-0.063-0.186-0.073s-0.132-0.015-0.2-0.015c-0.391,0-0.751,0.215-1.082,0.644
				c-0.33,0.429-0.539,0.963-0.627,1.603c0.228-0.032,0.485-0.079,0.771-0.139c0.286-0.061,0.524-0.139,0.713-0.236
				c0.271-0.14,0.471-0.319,0.604-0.538C478.691,302.508,478.758,302.248,478.758,301.946z"/>
			<path style="fill:#939598;" d="M484.842,301.61c0,0.144-0.057,0.276-0.169,0.397c-0.112,0.123-0.252,0.184-0.418,0.184
				c-0.107,0-0.214-0.015-0.317-0.044c-0.104-0.029-0.219-0.073-0.343-0.132c-0.179,0.101-0.363,0.226-0.554,0.373
				c-0.19,0.148-0.397,0.328-0.622,0.538c0.186,0.482,0.343,0.878,0.472,1.186s0.238,0.56,0.33,0.755
				c0.117,0.244,0.247,0.418,0.388,0.52c0.143,0.104,0.298,0.154,0.467,0.154c0.078,0,0.186-0.012,0.322-0.035
				s0.242-0.047,0.317-0.072l-0.073,0.32c-0.304,0.122-0.541,0.205-0.714,0.247c-0.173,0.041-0.348,0.062-0.523,0.062
				c-0.208,0-0.387-0.058-0.535-0.173c-0.148-0.116-0.291-0.325-0.427-0.628c-0.134-0.29-0.252-0.575-0.355-0.856
				c-0.104-0.282-0.207-0.548-0.308-0.799l-0.563,0.477l-0.423,1.896h-0.912l1.454-6.288c0.022-0.102,0.038-0.171,0.046-0.21
				s0.013-0.089,0.013-0.147c0-0.117-0.021-0.207-0.06-0.271s-0.095-0.112-0.166-0.145c-0.069-0.029-0.155-0.049-0.261-0.059
				c-0.104-0.01-0.211-0.021-0.318-0.034l0.068-0.298l1.817-0.107l0.049,0.073l-1.195,5.083h0.02
				c0.368-0.397,0.702-0.741,1.003-1.033c0.301-0.291,0.615-0.588,0.944-0.891c0.234-0.215,0.42-0.362,0.557-0.441
				c0.136-0.08,0.282-0.12,0.438-0.12c0.166,0,0.3,0.046,0.4,0.14C484.791,301.324,484.842,301.451,484.842,301.61z"/>
			<path style="fill:#939598;" d="M486.586,305.418c0,0.183-0.066,0.338-0.197,0.466c-0.133,0.129-0.289,0.193-0.472,0.193
				s-0.339-0.064-0.472-0.193c-0.131-0.128-0.197-0.283-0.197-0.466s0.066-0.339,0.197-0.472c0.133-0.131,0.289-0.197,0.472-0.197
				s0.339,0.066,0.472,0.197C486.52,305.08,486.586,305.236,486.586,305.418z"/>
			<path style="fill:#939598;" d="M491.647,306.122c-0.4,0-0.751-0.05-1.052-0.149c-0.302-0.099-0.545-0.214-0.73-0.344
				l-0.278,0.356h-0.391l0.479-2.373h0.396c0.017,0.283,0.055,0.549,0.114,0.796c0.061,0.247,0.159,0.471,0.295,0.669
				c0.137,0.205,0.314,0.364,0.532,0.476c0.218,0.113,0.487,0.169,0.809,0.169c0.484,0,0.873-0.134,1.166-0.403
				c0.292-0.268,0.438-0.635,0.438-1.101c0-0.251-0.062-0.474-0.186-0.669c-0.123-0.195-0.309-0.347-0.556-0.454
				c-0.233-0.101-0.466-0.191-0.694-0.271c-0.229-0.08-0.454-0.174-0.676-0.281c-0.292-0.14-0.527-0.341-0.706-0.604
				c-0.18-0.262-0.269-0.557-0.269-0.886c0-0.312,0.069-0.601,0.208-0.864c0.138-0.264,0.321-0.491,0.549-0.684
				c0.222-0.186,0.489-0.334,0.803-0.444c0.314-0.11,0.626-0.166,0.936-0.166c0.29,0,0.564,0.034,0.822,0.103
				c0.26,0.068,0.519,0.197,0.779,0.386l0.269-0.332h0.391l-0.493,2.3h-0.396c-0.01-0.251-0.035-0.51-0.075-0.776
				c-0.041-0.267-0.11-0.488-0.208-0.664c-0.106-0.192-0.256-0.343-0.448-0.452c-0.191-0.108-0.446-0.163-0.765-0.163
				c-0.384,0-0.706,0.133-0.966,0.397c-0.26,0.266-0.39,0.581-0.39,0.945c0,0.241,0.048,0.445,0.144,0.613
				c0.096,0.167,0.245,0.303,0.446,0.407c0.215,0.11,0.439,0.206,0.675,0.286c0.236,0.079,0.446,0.163,0.632,0.251
				c0.374,0.176,0.665,0.388,0.875,0.635s0.314,0.55,0.314,0.908c0,0.345-0.075,0.667-0.225,0.967s-0.35,0.55-0.601,0.752
				c-0.264,0.215-0.559,0.379-0.887,0.493C492.402,306.065,492.041,306.122,491.647,306.122z"/>
			<path style="fill:#939598;" d="M499.771,302.969c0,0.385-0.065,0.769-0.195,1.153s-0.319,0.722-0.566,1.012
				c-0.251,0.3-0.553,0.54-0.905,0.721c-0.354,0.181-0.763,0.271-1.229,0.271c-0.54,0-0.979-0.174-1.316-0.522
				c-0.336-0.349-0.505-0.818-0.505-1.408c0-0.434,0.071-0.837,0.215-1.212s0.335-0.704,0.576-0.987
				c0.244-0.283,0.546-0.513,0.905-0.687c0.36-0.175,0.75-0.262,1.17-0.262c0.579,0,1.033,0.177,1.359,0.53
				C499.607,301.932,499.771,302.396,499.771,302.969z M498.774,302.784c0-0.463-0.082-0.811-0.247-1.042
				c-0.164-0.23-0.4-0.347-0.71-0.347c-0.271,0-0.524,0.083-0.765,0.249c-0.238,0.166-0.444,0.437-0.617,0.812
				c-0.134,0.284-0.231,0.599-0.293,0.946c-0.062,0.347-0.093,0.667-0.093,0.96c0,0.467,0.081,0.819,0.241,1.059
				c0.162,0.239,0.405,0.359,0.73,0.359c0.29,0,0.547-0.091,0.771-0.273s0.407-0.414,0.547-0.694
				c0.14-0.273,0.247-0.588,0.322-0.941S498.774,303.155,498.774,302.784z"/>
			<path style="fill:#939598;" d="M502.738,298.495l-1.365,5.879c-0.029,0.124-0.057,0.247-0.083,0.371s-0.039,0.225-0.039,0.303
				c0,0.186,0.041,0.312,0.124,0.381s0.217,0.103,0.402,0.103c0.065,0,0.161-0.008,0.29-0.024c0.128-0.017,0.225-0.036,0.29-0.059
				l-0.073,0.312c-0.293,0.117-0.519,0.2-0.676,0.249c-0.158,0.049-0.337,0.073-0.535,0.073c-0.261,0-0.458-0.067-0.594-0.203
				c-0.135-0.135-0.202-0.302-0.202-0.5c0-0.075,0.007-0.153,0.022-0.235c0.014-0.081,0.034-0.184,0.061-0.308l1.19-5.145
				c0.022-0.102,0.038-0.172,0.046-0.211s0.013-0.088,0.013-0.146c0-0.117-0.02-0.207-0.06-0.271
				c-0.039-0.063-0.095-0.112-0.166-0.145c-0.069-0.029-0.155-0.049-0.261-0.059c-0.104-0.01-0.211-0.021-0.318-0.034l0.068-0.298
				l1.816-0.107L502.738,298.495z"/>
			<path style="fill:#939598;" d="M507.435,301.953c0,0.495-0.075,0.998-0.225,1.508s-0.354,0.955-0.615,1.337
				c-0.264,0.394-0.578,0.714-0.942,0.96s-0.765,0.369-1.201,0.369c-0.427,0-0.767-0.118-1.021-0.354s-0.381-0.553-0.381-0.95
				c0-0.075,0.009-0.16,0.026-0.255c0.019-0.094,0.03-0.158,0.037-0.19l0.425-1.564c0.032-0.127,0.062-0.251,0.085-0.374
				c0.025-0.122,0.037-0.229,0.037-0.319c0-0.183-0.031-0.305-0.096-0.367c-0.062-0.062-0.188-0.093-0.373-0.093
				c-0.068,0-0.161,0.014-0.278,0.042s-0.205,0.05-0.264,0.065l0.073-0.311c0.254-0.112,0.479-0.2,0.677-0.262
				s0.354-0.092,0.472-0.092c0.26,0,0.453,0.061,0.578,0.181c0.126,0.121,0.188,0.295,0.188,0.523c0,0.065-0.006,0.145-0.017,0.237
				c-0.012,0.093-0.032,0.194-0.062,0.305l-0.47,1.823c-0.032,0.124-0.057,0.243-0.073,0.357s-0.024,0.188-0.024,0.22
				c0,0.17,0.026,0.308,0.08,0.413c0.054,0.106,0.122,0.188,0.203,0.247c0.078,0.056,0.163,0.095,0.256,0.117
				s0.188,0.034,0.286,0.034c0.222,0,0.45-0.07,0.686-0.21c0.236-0.141,0.442-0.323,0.618-0.548
				c0.192-0.244,0.347-0.518,0.464-0.818c0.117-0.302,0.176-0.635,0.176-1c0-0.195-0.026-0.346-0.081-0.452
				c-0.053-0.105-0.112-0.198-0.178-0.276c-0.065-0.081-0.125-0.167-0.178-0.256c-0.055-0.09-0.081-0.217-0.081-0.379
				c0-0.187,0.062-0.328,0.186-0.426s0.254-0.146,0.391-0.146c0.192,0,0.343,0.077,0.452,0.232
				C507.38,301.435,507.435,301.66,507.435,301.953z"/>
			<path style="fill:#939598;" d="M512.021,302.066c0,0.346-0.108,0.643-0.324,0.89c-0.217,0.248-0.532,0.445-0.945,0.592
				c-0.303,0.111-0.608,0.201-0.918,0.27s-0.651,0.125-1.025,0.171c0,0.515,0.096,0.907,0.285,1.18
				c0.191,0.271,0.47,0.407,0.838,0.407c0.325,0,0.613-0.081,0.861-0.244c0.25-0.163,0.494-0.405,0.735-0.728l0.278,0.205
				c-0.261,0.397-0.586,0.715-0.977,0.952s-0.796,0.356-1.216,0.356c-0.576,0-1.017-0.161-1.321-0.483
				c-0.304-0.323-0.456-0.781-0.456-1.374c0-0.41,0.064-0.802,0.192-1.175c0.129-0.374,0.317-0.715,0.564-1.024
				c0.241-0.303,0.536-0.548,0.887-0.733c0.35-0.186,0.736-0.278,1.159-0.278c0.469,0,0.816,0.096,1.042,0.286
				C511.908,301.525,512.021,301.769,512.021,302.066z M511.123,301.946c0-0.127-0.018-0.227-0.054-0.3s-0.081-0.128-0.137-0.163
				c-0.059-0.039-0.12-0.063-0.186-0.073s-0.132-0.015-0.2-0.015c-0.391,0-0.751,0.215-1.082,0.644
				c-0.33,0.429-0.539,0.963-0.627,1.603c0.228-0.032,0.485-0.079,0.771-0.139c0.286-0.061,0.524-0.139,0.713-0.236
				c0.271-0.14,0.471-0.319,0.604-0.538C511.057,302.508,511.123,302.248,511.123,301.946z"/>
			<path style="fill:#939598;" d="M513.879,305.418c0,0.183-0.066,0.338-0.197,0.466c-0.133,0.129-0.289,0.193-0.472,0.193
				s-0.339-0.064-0.472-0.193c-0.131-0.128-0.197-0.283-0.197-0.466s0.066-0.339,0.197-0.472c0.133-0.131,0.289-0.197,0.472-0.197
				s0.339,0.066,0.472,0.197C513.812,305.08,513.879,305.236,513.879,305.418z"/>
			<path style="fill:#939598;" d="M518.94,306.122c-0.4,0-0.751-0.05-1.052-0.149c-0.302-0.099-0.545-0.214-0.73-0.344l-0.278,0.356
				h-0.391l0.479-2.373h0.396c0.017,0.283,0.055,0.549,0.114,0.796c0.061,0.247,0.159,0.471,0.295,0.669
				c0.137,0.205,0.314,0.364,0.532,0.476c0.218,0.113,0.487,0.169,0.809,0.169c0.484,0,0.873-0.134,1.166-0.403
				c0.292-0.268,0.438-0.635,0.438-1.101c0-0.251-0.062-0.474-0.186-0.669c-0.123-0.195-0.309-0.347-0.556-0.454
				c-0.233-0.101-0.466-0.191-0.694-0.271c-0.229-0.08-0.454-0.174-0.676-0.281c-0.292-0.14-0.527-0.341-0.706-0.604
				c-0.18-0.262-0.269-0.557-0.269-0.886c0-0.312,0.069-0.601,0.208-0.864c0.138-0.264,0.321-0.491,0.549-0.684
				c0.222-0.186,0.489-0.334,0.803-0.444c0.314-0.11,0.626-0.166,0.936-0.166c0.29,0,0.564,0.034,0.822,0.103
				c0.26,0.068,0.519,0.197,0.779,0.386l0.269-0.332h0.391l-0.493,2.3h-0.396c-0.01-0.251-0.035-0.51-0.075-0.776
				c-0.041-0.267-0.11-0.488-0.208-0.664c-0.106-0.192-0.256-0.343-0.448-0.452c-0.191-0.108-0.446-0.163-0.765-0.163
				c-0.384,0-0.706,0.133-0.966,0.397c-0.26,0.266-0.39,0.581-0.39,0.945c0,0.241,0.048,0.445,0.144,0.613
				c0.096,0.167,0.245,0.303,0.446,0.407c0.215,0.11,0.439,0.206,0.675,0.286c0.236,0.079,0.446,0.163,0.632,0.251
				c0.374,0.176,0.665,0.388,0.875,0.635s0.314,0.55,0.314,0.908c0,0.345-0.075,0.667-0.225,0.967s-0.35,0.55-0.601,0.752
				c-0.264,0.215-0.559,0.379-0.887,0.493C519.695,306.065,519.334,306.122,518.94,306.122z"/>
			<path style="fill:#939598;" d="M527.279,305.414l-0.073,0.312c-0.293,0.117-0.521,0.203-0.685,0.256
				c-0.163,0.055-0.327,0.081-0.493,0.081c-0.261,0-0.457-0.067-0.587-0.203c-0.13-0.135-0.195-0.302-0.195-0.501
				c0-0.071,0.007-0.15,0.02-0.237c0.013-0.086,0.034-0.188,0.063-0.305l0.479-1.823c0.035-0.141,0.063-0.268,0.085-0.382
				s0.032-0.205,0.032-0.273c0-0.219-0.052-0.392-0.155-0.519s-0.258-0.19-0.461-0.19c-0.207,0-0.431,0.067-0.671,0.2
				c-0.24,0.134-0.469,0.321-0.686,0.562l-0.829,3.588h-0.912l1.454-6.288c0.016-0.075,0.029-0.139,0.041-0.191
				c0.012-0.052,0.018-0.107,0.018-0.166c0-0.117-0.021-0.207-0.06-0.271s-0.095-0.112-0.166-0.145
				c-0.062-0.029-0.147-0.049-0.256-0.059c-0.107-0.01-0.216-0.021-0.323-0.034l0.068-0.298l1.817-0.107l0.049,0.073l-0.78,3.375
				h0.02c0.334-0.271,0.632-0.475,0.895-0.613s0.561-0.208,0.895-0.208c0.312,0,0.555,0.091,0.729,0.271s0.263,0.418,0.263,0.711
				c0,0.059-0.009,0.163-0.027,0.312c-0.018,0.15-0.046,0.299-0.085,0.445l-0.411,1.569c-0.025,0.104-0.054,0.224-0.083,0.359
				c-0.029,0.135-0.044,0.24-0.044,0.314c0,0.187,0.041,0.312,0.122,0.379c0.082,0.067,0.215,0.101,0.401,0.101
				c0.062,0,0.15-0.011,0.266-0.031C527.129,305.458,527.218,305.436,527.279,305.414z"/>
			<path style="fill:#939598;" d="M530.701,305.334h-0.034c-0.071,0.059-0.157,0.133-0.256,0.223c-0.1,0.09-0.216,0.175-0.349,0.257
				c-0.127,0.081-0.266,0.152-0.415,0.212c-0.149,0.061-0.312,0.091-0.487,0.091c-0.472,0-0.841-0.169-1.109-0.508
				c-0.269-0.34-0.402-0.802-0.402-1.389c0-0.404,0.075-0.797,0.225-1.178s0.356-0.724,0.619-1.026
				c0.251-0.29,0.549-0.523,0.894-0.701s0.699-0.267,1.063-0.267c0.23,0,0.451,0.031,0.661,0.093c0.21,0.062,0.375,0.132,0.495,0.21
				l0.896-0.229l0.059,0.073l-0.744,3.153c-0.025,0.101-0.053,0.224-0.08,0.369c-0.028,0.145-0.042,0.251-0.042,0.319
				c0,0.187,0.039,0.312,0.117,0.377s0.211,0.098,0.396,0.098c0.062,0,0.15-0.01,0.265-0.029c0.113-0.02,0.202-0.041,0.264-0.063
				l-0.073,0.312c-0.294,0.117-0.513,0.202-0.656,0.254s-0.317,0.078-0.523,0.078c-0.234,0-0.421-0.068-0.558-0.205
				S530.714,305.546,530.701,305.334z M531.404,302.246c0-0.107-0.011-0.21-0.034-0.308c-0.022-0.098-0.069-0.189-0.142-0.274
				c-0.064-0.081-0.154-0.146-0.269-0.195s-0.257-0.073-0.43-0.073c-0.238,0-0.469,0.078-0.693,0.234
				c-0.226,0.156-0.427,0.367-0.606,0.631c-0.169,0.248-0.308,0.548-0.415,0.899c-0.107,0.353-0.161,0.709-0.161,1.07
				c0,0.199,0.012,0.375,0.034,0.528s0.066,0.293,0.132,0.421c0.062,0.123,0.15,0.22,0.268,0.288s0.265,0.103,0.443,0.103
				c0.183,0,0.373-0.051,0.573-0.154c0.199-0.103,0.425-0.282,0.675-0.54L531.404,302.246z"/>
			<path style="fill:#939598;" d="M537.389,301.844c0,0.091-0.013,0.191-0.039,0.3c-0.026,0.109-0.063,0.2-0.112,0.271
				c-0.059,0.088-0.123,0.155-0.192,0.203c-0.07,0.047-0.171,0.07-0.301,0.07c-0.176,0-0.308-0.044-0.396-0.132
				s-0.132-0.186-0.132-0.293c0-0.101,0.024-0.214,0.073-0.339c0.049-0.126,0.1-0.25,0.151-0.374c-0.039,0-0.104,0.011-0.192,0.032
				c-0.09,0.021-0.198,0.062-0.324,0.124c-0.127,0.062-0.271,0.155-0.432,0.279c-0.16,0.124-0.331,0.288-0.514,0.493l-0.786,3.5
				h-0.911l0.712-3.168c0.017-0.078,0.04-0.195,0.071-0.352c0.03-0.156,0.046-0.272,0.046-0.347c0-0.183-0.03-0.305-0.093-0.367
				c-0.062-0.062-0.186-0.093-0.37-0.093c-0.072,0-0.163,0.012-0.273,0.037c-0.111,0.023-0.197,0.044-0.259,0.061l0.073-0.312
				c0.254-0.114,0.479-0.198,0.674-0.254s0.362-0.083,0.503-0.083c0.26,0,0.445,0.071,0.557,0.213
				c0.11,0.142,0.166,0.354,0.166,0.638h0.029c0.387-0.336,0.681-0.57,0.881-0.704s0.41-0.2,0.628-0.2
				c0.104,0,0.205,0.013,0.303,0.039s0.181,0.07,0.249,0.132c0.071,0.068,0.124,0.147,0.159,0.237
				C537.371,301.545,537.389,301.675,537.389,301.844z"/>
			<path style="fill:#939598;" d="M541.607,302.066c0,0.346-0.108,0.643-0.324,0.89c-0.217,0.248-0.532,0.445-0.945,0.592
				c-0.303,0.111-0.608,0.201-0.918,0.27s-0.651,0.125-1.025,0.171c0,0.515,0.096,0.907,0.285,1.18
				c0.191,0.271,0.47,0.407,0.838,0.407c0.325,0,0.613-0.081,0.861-0.244c0.25-0.163,0.494-0.405,0.735-0.728l0.278,0.205
				c-0.261,0.397-0.586,0.715-0.977,0.952s-0.796,0.356-1.216,0.356c-0.576,0-1.017-0.161-1.321-0.483
				c-0.304-0.323-0.456-0.781-0.456-1.374c0-0.41,0.064-0.802,0.192-1.175c0.129-0.374,0.317-0.715,0.564-1.024
				c0.241-0.303,0.536-0.548,0.887-0.733c0.35-0.186,0.736-0.278,1.159-0.278c0.469,0,0.816,0.096,1.042,0.286
				C541.494,301.525,541.607,301.769,541.607,302.066z M540.709,301.946c0-0.127-0.018-0.227-0.054-0.3s-0.081-0.128-0.137-0.163
				c-0.059-0.039-0.12-0.063-0.186-0.073s-0.132-0.015-0.2-0.015c-0.391,0-0.751,0.215-1.082,0.644
				c-0.33,0.429-0.539,0.963-0.627,1.603c0.228-0.032,0.485-0.079,0.771-0.139c0.286-0.061,0.524-0.139,0.713-0.236
				c0.271-0.14,0.471-0.319,0.604-0.538C540.643,302.508,540.709,302.248,540.709,301.946z"/>
			<path style="fill:#939598;" d="M543.465,305.418c0,0.183-0.066,0.338-0.197,0.466c-0.133,0.129-0.289,0.193-0.472,0.193
				s-0.339-0.064-0.472-0.193c-0.131-0.128-0.197-0.283-0.197-0.466s0.066-0.339,0.197-0.472c0.133-0.131,0.289-0.197,0.472-0.197
				s0.339,0.066,0.472,0.197C543.398,305.08,543.465,305.236,543.465,305.418z"/>
		</g>
		<polygon style="fill:#939598;" points="455.496,306.142 467.799,281.542 466.68,281.542 454.379,306.142 		"/>
	</g>
</g>
<g>
	<path style="fill:#7DB400;" d="M422.225,321.324c-1.421,0-2.638-0.549-3.604-1.635c-0.79-0.898-1.232-2.078-1.232-3.379
		c0-1.338,0.51-2.531,1.501-3.508c0.924-0.91,2.062-1.381,3.416-1.381c1.047,0,1.93,0.32,2.814,0.99v-0.803h1.354v2.76h-1.877
		c-0.55-0.684-1.312-1.045-2.251-1.045c-1.729,0-2.987,1.34-2.987,3.162c0,1.701,1.312,2.934,2.855,2.934
		c0.909,0,1.66-0.35,2.17-1.004h2.265C425.722,320.359,424.275,321.324,422.225,321.324z"/>
	<path style="fill:#7DB400;" d="M428.46,312.83c0.939-0.926,2.104-1.396,3.457-1.396c1.273,0,2.478,0.498,3.402,1.408
		c0.952,0.938,1.462,2.168,1.462,3.469c0,1.369-0.47,2.588-1.367,3.512c-0.925,0.965-2.184,1.488-3.51,1.488
		c-1.408,0-2.613-0.508-3.551-1.502c-0.899-0.951-1.354-2.129-1.354-3.537C427,314.945,427.51,313.754,428.46,312.83z
		 M428.942,316.326c0,0.762,0.282,1.488,0.803,2.064c0.591,0.641,1.382,1.004,2.159,1.004c1.606,0,2.935-1.287,2.935-3.109
		c0-1.621-1.314-2.936-2.896-2.936C430.256,313.35,428.942,314.637,428.942,316.326z"/>
	<path style="fill:#7DB400;" d="M442.506,319.529v-1.41h1.663v3.016h-7.05v-1.605h1.019v-6.326h-1.019v-1.594h4.006v1.594h-1.126
		v6.326H442.506z"/>
	<path style="fill:#7DB400;" d="M448.473,321.324c-1.34,0-2.265-0.402-2.774-1.205c-0.456-0.711-0.456-1.502-0.456-2.469v-4.447
		h-1.058v-1.594h3.765v1.594h-0.83v3.9c0,1.619,0.188,2.291,1.354,2.291s1.353-0.672,1.353-2.291v-3.9h-0.844v-1.594h3.779v1.594
		h-1.072v4.447C451.688,320.199,450.844,321.324,448.473,321.324z"/>
	<path style="fill:#7DB400;" d="M455.944,319.529h1.111v1.605h-3.872v-1.605h1.019v-6.326h-1.019v-1.594h3.592l2.319,6.928
		l2.304-6.928h3.591v1.594h-1.018v6.326h1.018v1.605h-3.873v-1.605h1.114v-5.764l-2.425,7.369h-1.409l-2.452-7.314V319.529z"/>
	<path style="fill:#7DB400;" d="M465.674,319.529h1.02v-6.326h-1.02v-1.594h3.337c1.902,0,3.003,1.033,3.003,2.545
		c0,0.883-0.336,1.527-0.98,1.85c0.939,0.281,1.515,1.125,1.515,2.223c0,0.912-0.361,1.732-0.938,2.225
		c-0.711,0.605-1.488,0.684-2.52,0.684h-3.417V319.529z M468.717,315.439c1.019,0,1.526-0.359,1.526-1.109
		c0-0.725-0.47-1.047-1.461-1.047H468.5v2.156H468.717z M469.063,319.461c1.101,0,1.648-0.348,1.648-1.166
		c0-0.859-0.562-1.314-1.648-1.314H468.5v2.48H469.063z"/>
	<path style="fill:#7DB400;" d="M477.187,321.324c-1.342,0-2.266-0.402-2.774-1.205c-0.455-0.711-0.455-1.502-0.455-2.469v-4.447
		h-1.059v-1.594h3.766v1.594h-0.831v3.9c0,1.619,0.188,2.291,1.354,2.291c1.164,0,1.353-0.672,1.353-2.291v-3.9h-0.844v-1.594h3.778
		v1.594h-1.07v4.447C480.403,320.199,479.558,321.324,477.187,321.324z"/>
	<path style="fill:#7DB400;" d="M481.931,318.227h1.62c0.188,0.844,0.819,1.342,1.635,1.342c0.736,0,1.247-0.498,1.247-1.207
		c0-0.844-0.657-1.139-1.85-1.514c-0.79-0.24-1.421-0.43-1.877-0.871c-0.48-0.469-0.735-1.086-0.735-1.781
		c0-1.582,1.231-2.773,2.665-2.773c0.617,0,1.154,0.188,1.702,0.551v-0.338h1.487v2.48h-1.702c-0.333-0.738-0.776-1.086-1.434-1.086
		c-0.589,0-0.992,0.402-0.992,0.977c0,0.711,0.537,0.939,1.528,1.262c2.011,0.643,3.016,1.473,3.016,3.082
		c0,0.803-0.336,1.566-0.951,2.131c-0.59,0.549-1.314,0.83-2.077,0.83c-0.604,0-1.206-0.188-1.849-0.588v0.373h-1.434V318.227z"/>
	<path style="fill:#7DB400;" d="M492.442,321.135v-1.795h1.674v1.795H492.442z"/>
	<path style="fill:#7DB400;" d="M499.682,312.83c0.939-0.926,2.104-1.396,3.456-1.396c1.274,0,2.479,0.498,3.403,1.408
		c0.951,0.938,1.462,2.168,1.462,3.469c0,1.369-0.469,2.588-1.367,3.512c-0.926,0.965-2.186,1.488-3.51,1.488
		c-1.409,0-2.613-0.508-3.552-1.502c-0.899-0.951-1.354-2.129-1.354-3.537C498.221,314.945,498.73,313.754,499.682,312.83z
		 M500.163,316.326c0,0.762,0.282,1.488,0.803,2.064c0.592,0.641,1.381,1.004,2.16,1.004c1.605,0,2.935-1.287,2.935-3.109
		c0-1.621-1.314-2.936-2.896-2.936C501.479,313.35,500.163,314.637,500.163,316.326z"/>
	<path style="fill:#7DB400;" d="M509.359,313.203h-1.017v-1.594h4.006v1.594h-1.127v2.291h3.257v-2.291h-1.126v-1.594h4.02v1.594
		h-1.031v6.326h1.031v1.605h-4.02v-1.605h1.126v-2.441h-3.257v2.441h1.127v1.605h-4.006v-1.605h1.017V313.203z"/>
	<path style="fill:#7DB400;" d="M522.067,319.529v1.605h-4.006v-1.605h1.033v-6.326h-1.033v-1.594h4.006v1.594h-1.111v6.326H522.067
		z"/>
	<path style="fill:#7DB400;" d="M523.852,312.83c0.939-0.926,2.104-1.396,3.458-1.396c1.273,0,2.478,0.498,3.402,1.408
		c0.952,0.938,1.461,2.168,1.461,3.469c0,1.369-0.47,2.588-1.366,3.512c-0.924,0.965-2.185,1.488-3.51,1.488
		c-1.408,0-2.613-0.508-3.551-1.502c-0.9-0.951-1.355-2.129-1.355-3.537C522.391,314.945,522.9,313.754,523.852,312.83z
		 M524.334,316.326c0,0.762,0.281,1.488,0.803,2.064c0.593,0.641,1.382,1.004,2.16,1.004c1.606,0,2.934-1.287,2.934-3.109
		c0-1.621-1.313-2.936-2.895-2.936C525.649,313.35,524.334,314.637,524.334,316.326z"/>
</g>
<g>
	<g>
		<path style="fill:#171717;" d="M420.471,334.615h0.919v1.527h-3.854v-1.527h1.073l2.407-6.133h-1.074v-1.539h3.223l2.898,7.672
			h1.088v1.527h-3.87v-1.527h0.931l-0.35-0.906h-3.065L420.471,334.615z M422.347,329.541l-0.994,2.693h1.98L422.347,329.541z"/>
		<path style="fill:#171717;" d="M431.292,334.592v1.551h-3.869v-1.551h0.982v-6.109h-0.982v-1.539h3.442
			c0.853,0,1.475,0.037,1.967,0.348c0.789,0.492,1.307,1.422,1.307,2.42c0,1.707-1.19,2.898-3.223,2.898h-0.698v1.982H431.292z
			 M430.722,331.055c1.024,0,1.553-0.465,1.553-1.256c0-0.84-0.517-1.24-1.564-1.24h-0.492v2.496H430.722z"/>
		<path style="fill:#171717;" d="M438.056,334.592v1.551h-3.701v-1.551h0.982v-6.109h-0.982v-1.539h3.649
			c2.342,0,3.545,1.033,3.545,2.883c0,1.424-0.829,2.471-2.187,2.744l1.306,2.021h0.907v1.551h-1.955l-2.473-4.273v2.723H438.056z
			 M437.538,331.418c1.461,0,2.225-0.543,2.225-1.553c0-0.996-0.646-1.422-1.954-1.422h-0.661v2.975H437.538z"/>
	</g>
	<g>
		<path style="fill:#171717;" d="M446.708,336.143l2.069-3.107c-0.26,0.078-0.479,0.117-0.66,0.117c-1.409,0-2.73-1.359-2.73-3.156
			c0-0.711,0.298-1.502,0.79-2.084c0.673-0.791,1.436-1.141,2.471-1.141c0.881,0,1.681,0.326,2.289,0.934
			c0.623,0.621,0.945,1.408,0.945,2.188c0,1.15-0.542,2.096-1.294,3.221l-2.005,3.029H446.708z M448.647,328.416
			c-0.854,0-1.502,0.646-1.502,1.605c0,0.945,0.635,1.578,1.476,1.578c0.866,0,1.526-0.711,1.526-1.527
			C450.147,329.129,449.448,328.416,448.647,328.416z"/>
		<path style="fill:#171717;" d="M455.717,333.373h-3.26v-1.504h3.26V333.373z"/>
		<g>
			<path style="fill:#171717;" d="M460.907,334.629v1.514h-3.701v-1.514h0.997v-6.33h-1.604v-1.355h3.339v7.686H460.907z"/>
			<path style="fill:#171717;" d="M462.093,327.99c0.635-0.83,1.503-1.23,2.655-1.23c1.085,0,2.004,0.439,2.664,1.256
				c0.428,0.531,0.544,1.229,0.544,2.174v2.729c0,0.842-0.053,1.529-0.569,2.188c-0.635,0.83-1.501,1.219-2.654,1.219
				c-1.085,0-2.005-0.441-2.663-1.258c-0.427-0.529-0.543-1.215-0.543-2.16v-2.742C461.526,329.322,461.578,328.648,462.093,327.99z
				 M464.732,334.68c0.999,0,1.426-0.607,1.426-1.811v-2.666c0-0.066,0-0.117,0-0.182c0-0.377-0.013-0.688-0.155-0.932
				c-0.26-0.441-0.714-0.686-1.255-0.686c-0.945,0-1.424,0.58-1.424,1.744v2.77C463.324,334.098,463.764,334.68,464.732,334.68z"/>
		</g>
	</g>
	<g>
		<path style="fill:#171717;" d="M471.769,336.143v-1.723l3.339-3.117c0.635-0.596,0.957-1.178,0.957-1.697
			c0-0.67-0.477-1.189-1.19-1.189c-0.736,0-1.15,0.492-1.15,1.371c0,0.053,0,0.105,0,0.156h-1.814c0-0.012,0-0.025,0-0.025
			c0-1.916,1.219-3.146,3.004-3.146c1.709,0,2.964,1.295,2.964,2.85c0,0.891-0.454,1.705-1.371,2.533l-2.575,2.344h2.394v-0.816
			h1.526v2.461H471.769z"/>
		<path style="fill:#171717;" d="M479.279,327.99c0.635-0.83,1.501-1.23,2.654-1.23c1.085,0,2.005,0.439,2.663,1.256
			c0.428,0.531,0.545,1.229,0.545,2.174v2.729c0,0.842-0.053,1.529-0.568,2.188c-0.635,0.83-1.503,1.219-2.654,1.219
			c-1.086,0-2.005-0.441-2.665-1.258c-0.427-0.529-0.543-1.215-0.543-2.16v-2.742C478.711,329.322,478.764,328.648,479.279,327.99z
			 M481.919,334.68c0.996,0,1.424-0.607,1.424-1.811v-2.666c0-0.066,0-0.117,0-0.182c0-0.377-0.013-0.688-0.156-0.932
			c-0.258-0.441-0.712-0.686-1.253-0.686c-0.944,0-1.425,0.58-1.425,1.744v2.77C480.509,334.098,480.949,334.68,481.919,334.68z"/>
		<g>
			<path style="fill:#171717;" d="M490.027,334.629v1.514h-3.699v-1.514h0.996v-6.33h-1.604v-1.355h3.338v7.686H490.027z"/>
			<path style="fill:#171717;" d="M494.337,334.629v1.514h-3.7v-1.514h0.995v-6.33h-1.604v-1.355h3.339v7.686H494.337z"/>
		</g>
	</g>
</g>
</svg>
