<?xml version="1.0" encoding="iso-8859-1"?>
<!-- Generator: Adobe Illustrator 15.1.0, SVG Export Plug-In . SVG Version: 6.00 Build 0)  -->
<!DOCTYPE svg PUBLIC "-//W3C//DTD SVG 1.1//EN" "http://www.w3.org/Graphics/SVG/1.1/DTD/svg11.dtd">
<svg version="1.1" id="Layer_1" xmlns="http://www.w3.org/2000/svg" xmlns:xlink="http://www.w3.org/1999/xlink" x="0px" y="0px"
	 width="110.152px" height="109.941px" viewBox="0 0 110.152 109.941" style="enable-background:new 0 0 110.152 109.941;"
	 xml:space="preserve">
<path style="fill:#6FC497;" d="M55.075,0C24.659,0,0,24.658,0,55.079c0,30.416,24.659,55.073,55.075,55.073
	c30.424,0,55.078-24.657,55.078-55.073C110.154,24.658,85.499,0,55.075,0z M86.536,39.306c-0.256,0.429-1.585,1.929-3.001,3.301
	c-2.4,2.359-2.526,2.616-2.526,4.588c0,3.046-1.46,9.395-2.916,12.865c-2.701,6.52-8.491,13.25-14.28,16.638
	c-8.148,4.759-18.996,5.961-28.13,3.174c-3.045-0.942-8.277-3.346-8.277-3.773c0-0.128,1.588-0.302,3.519-0.342
	c4.029-0.089,8.061-1.203,11.49-3.174l2.315-1.374l-2.658-0.899c-3.772-1.286-7.16-4.245-8.019-7.033
	c-0.259-0.899-0.175-0.942,2.229-0.942l2.486-0.042l-2.104-0.985c-2.484-1.244-4.758-3.346-5.874-5.489
	c-0.813-1.542-1.845-5.445-1.544-5.746c0.086-0.129,0.987,0.129,2.018,0.473c2.959,1.073,3.347,0.813,1.629-0.986
	c-3.215-3.26-4.201-8.104-2.657-12.691l0.729-2.06l2.831,2.788c5.789,5.614,12.606,8.961,20.41,9.947l2.146,0.26l-0.128-2.104
	c-0.388-5.446,3-10.422,8.358-12.351c1.975-0.687,5.318-0.771,7.504-0.173c0.86,0.257,2.488,1.113,3.646,1.888l2.102,1.416
	l2.317-0.73c1.283-0.385,2.999-1.026,3.771-1.459c0.729-0.384,1.371-0.599,1.371-0.471c0,0.729-1.586,3.218-2.916,4.589
	c-1.802,1.928-1.287,2.103,2.357,0.814C86.922,38.492,86.965,38.492,86.536,39.306z"/>
<path style="fill:#FFFFFF;" d="M86.536,39.306c-0.256,0.429-1.585,1.929-3.001,3.301c-2.4,2.359-2.526,2.616-2.526,4.588
	c0,3.046-1.46,9.395-2.916,12.865c-2.701,6.52-8.491,13.25-14.28,16.638c-8.148,4.759-18.996,5.961-28.13,3.174
	c-3.045-0.942-8.277-3.346-8.277-3.773c0-0.128,1.588-0.302,3.519-0.342c4.029-0.089,8.061-1.203,11.49-3.174l2.315-1.374
	l-2.658-0.899c-3.772-1.286-7.16-4.245-8.019-7.033c-0.259-0.899-0.175-0.942,2.229-0.942l2.486-0.042l-2.104-0.985
	c-2.484-1.244-4.758-3.346-5.874-5.489c-0.813-1.542-1.845-5.445-1.544-5.746c0.086-0.129,0.987,0.129,2.018,0.473
	c2.959,1.073,3.347,0.813,1.629-0.986c-3.215-3.26-4.201-8.104-2.657-12.691l0.729-2.06l2.831,2.788
	c5.789,5.614,12.606,8.961,20.41,9.947l2.146,0.26l-0.128-2.104c-0.388-5.446,3-10.422,8.358-12.351
	c1.975-0.687,5.318-0.771,7.504-0.173c0.86,0.257,2.488,1.113,3.646,1.888l2.102,1.416l2.317-0.73
	c1.283-0.385,2.999-1.026,3.771-1.459c0.729-0.384,1.371-0.599,1.371-0.471c0,0.729-1.586,3.218-2.916,4.589
	c-1.802,1.928-1.287,2.103,2.357,0.814C86.922,38.492,86.965,38.492,86.536,39.306z"/>
</svg>
