<?xml version="1.0" encoding="utf-8"?>
<!-- Generator: Adobe Illustrator 16.2.0, SVG Export Plug-In . SVG Version: 6.00 Build 0)  -->
<!DOCTYPE svg PUBLIC "-//W3C//DTD SVG 1.1//EN" "http://www.w3.org/Graphics/SVG/1.1/DTD/svg11.dtd">
<svg version="1.1" id="Layer_1" xmlns="http://www.w3.org/2000/svg" xmlns:xlink="http://www.w3.org/1999/xlink" x="0px" y="0px"
	 width="912px" height="489px" viewBox="0 0 912 489" enable-background="new 0 0 912 489" xml:space="preserve">
<pattern  x="150.5" y="641" width="60" height="60" patternUnits="userSpaceOnUse" id="SVGID_1_" viewBox="0 -60 60 60" overflow="visible">
	<g>
		<polygon fill="none" points="0,0 60,0 60,-60 0,-60 		"/>
		<g>
			<polygon fill="none" points="0,-60 60,-60 60,0 0,0 			"/>
			<polygon fill="#D1D3D4" points="0,0 0,-0.425 0.425,0 			"/>
			<polygon fill="#D1D3D4" points="2.545,0 0,-2.545 0,-3.427 3.427,0 			"/>
			<polygon fill="#D1D3D4" points="5.548,0 0,-5.548 0,-6.43 6.429,0 			"/>
			<polygon fill="#D1D3D4" points="8.549,0 0,-8.549 0,-9.43 9.43,0 			"/>
			<polygon fill="#D1D3D4" points="11.551,0 0,-11.551 0,-12.434 12.433,0 			"/>
			<polygon fill="#D1D3D4" points="14.554,0 0,-14.555 0,-15.436 15.435,0 			"/>
			<polygon fill="#D1D3D4" points="17.555,0 0,-17.555 0,-18.436 18.436,0 			"/>
			<polygon fill="#D1D3D4" points="20.556,0 0,-20.557 0,-21.438 21.438,0 			"/>
			<polygon fill="#D1D3D4" points="23.559,0 0,-23.559 0,-24.439 24.439,0 			"/>
			<polygon fill="#D1D3D4" points="26.56,0 0,-26.561 0,-27.441 27.441,0 			"/>
			<polygon fill="#D1D3D4" points="29.562,0 0,-29.562 0,-30.441 30.442,0 			"/>
			<polygon fill="#D1D3D4" points="32.563,0 0,-32.562 0,-33.445 33.445,0 			"/>
			<polygon fill="#D1D3D4" points="35.565,0 0,-35.564 0,-36.445 36.447,0 			"/>
			<polygon fill="#D1D3D4" points="38.567,0 0,-38.566 0,-39.448 39.448,0 			"/>
			<polygon fill="#D1D3D4" points="41.569,0 0,-41.568 0,-42.45 42.45,0 			"/>
			<polygon fill="#D1D3D4" points="44.57,0 0,-44.568 0,-45.451 45.451,0 			"/>
			<polygon fill="#D1D3D4" points="47.572,0 0,-47.572 0,-48.453 48.454,0 			"/>
			<polygon fill="#D1D3D4" points="50.575,0 0,-50.574 0,-51.456 51.456,0 			"/>
			<polygon fill="#D1D3D4" points="53.577,0 0,-53.577 0,-54.458 54.458,0 			"/>
			<polygon fill="#D1D3D4" points="56.578,0 0,-56.577 0,-57.458 57.458,0 			"/>
			<polygon fill="#D1D3D4" points="60,0 59.58,0 0,-59.579 0,-60 0.461,-60 60,-0.46 			"/>
			<polygon fill="#D1D3D4" points="3.462,-60 60,-3.463 60,-2.581 2.582,-60 			"/>
			<polygon fill="#D1D3D4" points="6.465,-60 60,-6.465 60,-5.584 5.583,-60 			"/>
			<polygon fill="#D1D3D4" points="9.467,-60 60,-9.466 60,-8.585 8.585,-60 			"/>
			<polygon fill="#D1D3D4" points="12.468,-60 60,-12.469 60,-11.587 11.587,-60 			"/>
			<polygon fill="#D1D3D4" points="15.47,-60 60,-15.47 60,-14.589 14.588,-60 			"/>
			<polygon fill="#D1D3D4" points="18.472,-60 60,-18.473 60,-17.591 17.59,-60 			"/>
			<polygon fill="#D1D3D4" points="21.474,-60 60,-21.475 60,-20.592 20.592,-60 			"/>
			<polygon fill="#D1D3D4" points="24.476,-60 60,-24.477 60,-23.595 23.595,-60 			"/>
			<polygon fill="#D1D3D4" points="27.477,-60 60,-27.477 60,-26.596 26.596,-60 			"/>
			<polygon fill="#D1D3D4" points="30.479,-60 60,-30.479 60,-29.598 29.598,-60 			"/>
			<polygon fill="#D1D3D4" points="33.48,-60 60,-33.48 60,-32.6 32.6,-60 			"/>
			<polygon fill="#D1D3D4" points="36.483,-60 60,-36.482 60,-35.602 35.602,-60 			"/>
			<polygon fill="#D1D3D4" points="39.484,-60 60,-39.482 60,-38.604 38.604,-60 			"/>
			<polygon fill="#D1D3D4" points="42.486,-60 60,-42.486 60,-41.604 41.605,-60 			"/>
			<polygon fill="#D1D3D4" points="45.488,-60 60,-45.488 60,-44.607 44.606,-60 			"/>
			<polygon fill="#D1D3D4" points="48.49,-60 60,-48.489 60,-47.607 47.608,-60 			"/>
			<polygon fill="#D1D3D4" points="51.492,-60 60,-51.492 60,-50.609 50.61,-60 			"/>
			<polygon fill="#D1D3D4" points="54.494,-60 60,-54.493 60,-53.611 53.612,-60 			"/>
			<polygon fill="#D1D3D4" points="57.495,-60 60,-57.494 60,-56.614 56.614,-60 			"/>
			<polygon fill="#D1D3D4" points="60,-60 60,-59.615 59.616,-60 			"/>
		</g>
	</g>
</pattern>
<g id="Grid">
	<g opacity="0.7">
		
			<pattern  id="SVGID_2_" xlink:href="#SVGID_1_" patternTransform="matrix(4.3231 0 0 -4.3231 53469.3984 -69445.9062)"  opacity="0.7">
		</pattern>
		<rect fill="url(#SVGID_2_)" width="912" height="489"/>
	</g>
</g>
</svg>
