<?xml version="1.0" encoding="utf-8"?>
<!-- Generator: Adobe Illustrator 15.1.0, SVG Export Plug-In . SVG Version: 6.00 Build 0)  -->
<!DOCTYPE svg PUBLIC "-//W3C//DTD SVG 1.1//EN" "http://www.w3.org/Graphics/SVG/1.1/DTD/svg11.dtd" [
	<!ENTITY ns_extend "http://ns.adobe.com/Extensibility/1.0/">
	<!ENTITY ns_ai "http://ns.adobe.com/AdobeIllustrator/10.0/">
	<!ENTITY ns_graphs "http://ns.adobe.com/Graphs/1.0/">
	<!ENTITY ns_vars "http://ns.adobe.com/Variables/1.0/">
	<!ENTITY ns_imrep "http://ns.adobe.com/ImageReplacement/1.0/">
	<!ENTITY ns_sfw "http://ns.adobe.com/SaveForWeb/1.0/">
	<!ENTITY ns_custom "http://ns.adobe.com/GenericCustomNamespace/1.0/">
	<!ENTITY ns_adobe_xpath "http://ns.adobe.com/XPath/1.0/">
]>
<svg version="1.1" xmlns:x="&ns_extend;" xmlns:i="&ns_ai;" xmlns:graph="&ns_graphs;"
	 xmlns="http://www.w3.org/2000/svg" xmlns:xlink="http://www.w3.org/1999/xlink" x="0px" y="0px" width="100px" height="100px"
	 viewBox="0 0 100 100" style="enable-background:new 0 0 100 100;" xml:space="preserve">
<metadata>
	<sfw  xmlns="&ns_sfw;">
		<slices></slices>
		<sliceSourceBounds  height="100" width="100" x="-368.634" y="-181.585" bottomLeftOrigin="true"></sliceSourceBounds>
	</sfw>
</metadata>
<g id="Layer_1">
</g>
<g id="Grid">
</g>
<g id="Layer_2">
	<g>
		<polygon style="fill:#D0D2D3;" points="0,0 0,0.674 0.674,0 		"/>
		<polygon style="fill:#D0D2D3;" points="5.459,0 0,5.459 0,6.928 6.928,0 		"/>
		<polygon style="fill:#D0D2D3;" points="11.713,0 0,11.712 0,13.181 13.182,0 		"/>
		<polygon style="fill:#D0D2D3;" points="17.966,0 0,17.966 0,19.436 19.436,0 		"/>
		<polygon style="fill:#D0D2D3;" points="24.22,0 0,24.22 0,25.688 25.688,0 		"/>
		<polygon style="fill:#D0D2D3;" points="30.474,0 0,30.475 0,31.942 31.943,0 		"/>
		<polygon style="fill:#D0D2D3;" points="36.728,0 0,36.728 0,38.196 38.196,0 		"/>
		<polygon style="fill:#D0D2D3;" points="42.981,0 0,42.981 0,44.45 44.45,0 		"/>
		<polygon style="fill:#D0D2D3;" points="49.236,0 0,49.236 0,50.705 50.705,0 		"/>
		<polygon style="fill:#D0D2D3;" points="55.488,0 0,55.488 0,56.957 56.957,0 		"/>
		<polygon style="fill:#D0D2D3;" points="61.742,0 0,61.743 0,63.212 63.211,0 		"/>
		<polygon style="fill:#D0D2D3;" points="67.997,0 0,67.997 0,69.466 69.466,0 		"/>
		<polygon style="fill:#D0D2D3;" points="74.249,0 0,74.249 0,75.718 75.718,0 		"/>
		<polygon style="fill:#D0D2D3;" points="80.504,0 0,80.504 0,81.973 81.973,0 		"/>
		<polygon style="fill:#D0D2D3;" points="86.758,0 0,86.758 0,88.227 88.227,0 		"/>
		<polygon style="fill:#D0D2D3;" points="93.012,0 0,93.012 0,94.48 94.48,0 		"/>
		<polygon style="fill:#D0D2D3;" points="100,0 99.266,0 0,99.266 0,100 0.734,100 100,0.734 		"/>
		<polygon style="fill:#D0D2D3;" points="6.988,100 100,6.988 100,5.52 5.52,100 		"/>
		<polygon style="fill:#D0D2D3;" points="13.242,100 100,13.242 100,11.773 11.773,100 		"/>
		<polygon style="fill:#D0D2D3;" points="19.496,100 100,19.496 100,18.027 18.027,100 		"/>
		<polygon style="fill:#D0D2D3;" points="25.75,100 100,25.75 100,24.281 24.281,100 		"/>
		<polygon style="fill:#D0D2D3;" points="32.003,100 100,32.003 100,30.534 30.534,100 		"/>
		<polygon style="fill:#D0D2D3;" points="38.257,100 100,38.257 100,36.788 36.788,100 		"/>
		<polygon style="fill:#D0D2D3;" points="44.511,100 100,44.511 100,43.042 43.042,100 		"/>
		<polygon style="fill:#D0D2D3;" points="50.764,100 100,50.764 100,49.295 49.295,100 		"/>
		<polygon style="fill:#D0D2D3;" points="57.018,100 100,57.018 100,55.549 55.549,100 		"/>
		<polygon style="fill:#D0D2D3;" points="63.271,100 100,63.271 100,61.803 61.803,100 		"/>
		<polygon style="fill:#D0D2D3;" points="69.525,100 100,69.524 100,68.057 68.057,100 		"/>
		<polygon style="fill:#D0D2D3;" points="75.779,100 100,75.779 100,74.311 74.311,100 		"/>
		<polygon style="fill:#D0D2D3;" points="82.033,100 100,82.033 100,80.564 80.564,100 		"/>
		<polygon style="fill:#D0D2D3;" points="88.287,100 100,88.287 100,86.818 86.818,100 		"/>
		<polygon style="fill:#D0D2D3;" points="94.541,100 100,94.541 100,93.071 93.071,100 		"/>
		<polygon style="fill:#D0D2D3;" points="100,100 100,99.325 99.325,100 		"/>
	</g>
</g>
</svg>
